<svg xmlns="http://www.w3.org/2000/svg" xmlns:xlink="http://www.w3.org/1999/xlink" width="64" zoomAndPan="magnify" viewBox="0 0 48 48" height="64" preserveAspectRatio="xMidYMid meet" version="1.0"><defs><clipPath id="0fbf292274"><path d="M 5.191406 6.960938 L 42.820312 6.960938 L 42.820312 40.0625 L 5.191406 40.0625 Z M 5.191406 6.960938 " clip-rule="nonzero"/></clipPath><clipPath id="94d59cbc2c"><path d="M 30.769531 6.960938 C 37.316406 7.335938 42.507812 12.527344 42.808594 18.996094 L 42.808594 22.304688 C 42.507812 28.703125 37.316406 33.890625 30.921875 33.890625 L 21.441406 33.890625 C 19.710938 35.921875 17.832031 37.730469 15.648438 39.234375 L 14.21875 40.0625 C 13.46875 40.0625 13.316406 39.609375 13.542969 38.859375 C 14.070312 37.203125 13.992188 35.472656 13.390625 33.890625 L 13.167969 33.214844 C 8.578125 31.710938 5.265625 27.347656 5.191406 22.304688 L 5.191406 18.921875 C 5.191406 12.527344 10.457031 7.335938 17.230469 6.960938 L 30.921875 6.960938 Z M 30.769531 6.960938 " clip-rule="nonzero"/></clipPath><clipPath id="7eb245c185"><path d="M 0.191406 0.960938 L 37.808594 0.960938 L 37.808594 34.0625 L 0.191406 34.0625 Z M 0.191406 0.960938 " clip-rule="nonzero"/></clipPath><clipPath id="cfe4e323bb"><path d="M 25.769531 0.960938 C 32.316406 1.335938 37.507812 6.527344 37.808594 12.996094 L 37.808594 16.304688 C 37.507812 22.703125 32.316406 27.890625 25.921875 27.890625 L 16.441406 27.890625 C 14.710938 29.921875 12.832031 31.730469 10.648438 33.234375 L 9.21875 34.0625 C 8.46875 34.0625 8.316406 33.609375 8.542969 32.859375 C 9.070312 31.203125 8.992188 29.472656 8.390625 27.890625 L 8.167969 27.214844 C 3.578125 25.710938 0.265625 21.347656 0.191406 16.304688 L 0.191406 12.921875 C 0.191406 6.527344 5.457031 1.335938 12.230469 0.960938 L 25.921875 0.960938 Z M 25.769531 0.960938 " clip-rule="nonzero"/></clipPath><clipPath id="ddec207ba6"><rect x="0" width="38" y="0" height="35"/></clipPath><clipPath id="f19acb581a"><path d="M 5.191406 6.960938 L 42.660156 6.960938 L 42.660156 40.019531 L 5.191406 40.019531 Z M 5.191406 6.960938 " clip-rule="nonzero"/></clipPath><clipPath id="3d7bf68386"><path d="M 30.765625 6.960938 C 37.308594 7.335938 42.5 12.527344 42.800781 18.992188 L 42.800781 22.304688 C 42.5 28.695312 37.308594 33.886719 30.914062 33.886719 L 21.4375 33.886719 C 19.707031 35.917969 17.828125 37.722656 15.648438 39.226562 L 14.21875 40.054688 C 13.464844 40.054688 13.316406 39.601562 13.539062 38.851562 C 14.066406 37.195312 13.992188 35.464844 13.390625 33.886719 L 13.164062 33.210938 C 8.578125 31.707031 5.265625 27.34375 5.191406 22.304688 L 5.191406 18.917969 C 5.191406 12.527344 10.457031 7.335938 17.226562 6.960938 L 30.914062 6.960938 Z M 30.765625 6.960938 " clip-rule="nonzero"/></clipPath></defs><g clip-path="url(#0fbf292274)"><g clip-path="url(#94d59cbc2c)"><g transform="matrix(1, 0, 0, 1, 5, 6)"><g clip-path="url(#ddec207ba6)"><g clip-path="url(#7eb245c185)"><g clip-path="url(#cfe4e323bb)"><path fill="#ffffff" d="M 0.191406 0.960938 L 37.820312 0.960938 L 37.820312 34.0625 L 0.191406 34.0625 Z M 0.191406 0.960938 " fill-opacity="1" fill-rule="nonzero"/></g></g></g></g></g></g><g clip-path="url(#f19acb581a)"><g clip-path="url(#3d7bf68386)"><path stroke-linecap="butt" transform="matrix(0.734694, 0, 0, 0.734694, 5.191836, 6.959024)" fill="none" stroke-linejoin="miter" d="M 34.808771 0.0026051 C 43.71448 0.513022 50.780561 7.579103 51.189958 16.378475 L 51.189958 20.887156 C 50.780561 29.585507 43.71448 36.651589 35.010811 36.651589 L 22.112155 36.651589 C 19.756795 39.416346 17.199395 41.872726 14.232597 43.91971 L 12.286634 45.04688 C 11.260483 45.04688 11.058443 44.430127 11.361503 43.409293 C 12.079277 41.154953 11.978257 38.799592 11.159463 36.651589 L 10.851087 35.731775 C 4.609116 33.684792 0.100435 27.74588 -0.000585458 20.887156 L -0.000585458 16.277455 C -0.000585458 7.579103 7.166516 0.513022 16.380601 0.0026051 L 35.010811 0.0026051 Z M 34.808771 0.0026051 " stroke="currentColor" stroke-width="8" stroke-opacity="1" stroke-miterlimit="4"/></g></g></svg>