<svg xmlns="http://www.w3.org/2000/svg" xmlns:xlink="http://www.w3.org/1999/xlink" width="64" zoomAndPan="magnify" viewBox="0 0 48 48" height="64" preserveAspectRatio="xMidYMid meet" version="1.0"><defs><g/><clipPath id="30ac5c2167"><path d="M 5.191406 6.960938 L 42.820312 6.960938 L 42.820312 40.0625 L 5.191406 40.0625 Z M 5.191406 6.960938 " clip-rule="nonzero"/></clipPath><clipPath id="556d302cc9"><path d="M 30.769531 6.960938 C 37.316406 7.335938 42.507812 12.527344 42.808594 18.996094 L 42.808594 22.304688 C 42.507812 28.703125 37.316406 33.890625 30.921875 33.890625 L 21.441406 33.890625 C 19.710938 35.921875 17.832031 37.730469 15.648438 39.234375 L 14.21875 40.0625 C 13.46875 40.0625 13.316406 39.609375 13.542969 38.859375 C 14.070312 37.203125 13.992188 35.472656 13.390625 33.890625 L 13.167969 33.214844 C 8.578125 31.710938 5.265625 27.347656 5.191406 22.304688 L 5.191406 18.921875 C 5.191406 12.527344 10.457031 7.335938 17.230469 6.960938 L 30.921875 6.960938 Z M 30.769531 6.960938 " clip-rule="nonzero"/></clipPath><clipPath id="2ea43d5c08"><path d="M 0.191406 0.960938 L 37.808594 0.960938 L 37.808594 34.0625 L 0.191406 34.0625 Z M 0.191406 0.960938 " clip-rule="nonzero"/></clipPath><clipPath id="9abc87e537"><path d="M 25.769531 0.960938 C 32.316406 1.335938 37.507812 6.527344 37.808594 12.996094 L 37.808594 16.304688 C 37.507812 22.703125 32.316406 27.890625 25.921875 27.890625 L 16.441406 27.890625 C 14.710938 29.921875 12.832031 31.730469 10.648438 33.234375 L 9.21875 34.0625 C 8.46875 34.0625 8.316406 33.609375 8.542969 32.859375 C 9.070312 31.203125 8.992188 29.472656 8.390625 27.890625 L 8.167969 27.214844 C 3.578125 25.710938 0.265625 21.347656 0.191406 16.304688 L 0.191406 12.921875 C 0.191406 6.527344 5.457031 1.335938 12.230469 0.960938 L 25.921875 0.960938 Z M 25.769531 0.960938 " clip-rule="nonzero"/></clipPath><clipPath id="091e69e164"><rect x="0" width="38" y="0" height="35"/></clipPath><clipPath id="edcba248e7"><path d="M 5.191406 6.960938 L 42.660156 6.960938 L 42.660156 40.019531 L 5.191406 40.019531 Z M 5.191406 6.960938 " clip-rule="nonzero"/></clipPath><clipPath id="337bfce3ff"><path d="M 30.765625 6.960938 C 37.308594 7.335938 42.5 12.527344 42.800781 18.992188 L 42.800781 22.304688 C 42.5 28.695312 37.308594 33.886719 30.914062 33.886719 L 21.4375 33.886719 C 19.707031 35.917969 17.828125 37.722656 15.648438 39.226562 L 14.21875 40.054688 C 13.464844 40.054688 13.316406 39.601562 13.539062 38.851562 C 14.066406 37.195312 13.992188 35.464844 13.390625 33.886719 L 13.164062 33.210938 C 8.578125 31.707031 5.265625 27.34375 5.191406 22.304688 L 5.191406 18.917969 C 5.191406 12.527344 10.457031 7.335938 17.226562 6.960938 L 30.914062 6.960938 Z M 30.765625 6.960938 " clip-rule="nonzero"/></clipPath></defs><g clip-path="url(#30ac5c2167)"><g clip-path="url(#556d302cc9)"><g transform="matrix(1, 0, 0, 1, 5, 6)"><g clip-path="url(#091e69e164)"><g clip-path="url(#2ea43d5c08)"><g clip-path="url(#9abc87e537)"><path fill="#ffffff" d="M 0.191406 0.960938 L 37.820312 0.960938 L 37.820312 34.0625 L 0.191406 34.0625 Z M 0.191406 0.960938 " fill-opacity="1" fill-rule="nonzero"/></g></g></g></g></g></g><g clip-path="url(#edcba248e7)"><g clip-path="url(#337bfce3ff)"><path stroke-linecap="butt" transform="matrix(0.734694, 0, 0, 0.734694, 5.191836, 6.959016)" fill="none" stroke-linejoin="miter" d="M 34.808771 0.0026147 C 43.71448 0.513031 50.780561 7.579113 51.189958 16.378484 L 51.189958 20.887165 C 50.780561 29.585517 43.71448 36.651598 35.010811 36.651598 L 22.112155 36.651598 C 19.756795 39.416356 17.199395 41.872736 14.232597 43.91972 L 12.286634 45.04689 C 11.260483 45.04689 11.058443 44.430136 11.361503 43.409303 C 12.079277 41.154962 11.978257 38.799602 11.159463 36.651598 L 10.851087 35.731785 C 4.609116 33.684801 0.100435 27.74589 -0.000585458 20.887165 L -0.000585458 16.277464 C -0.000585458 7.579113 7.166516 0.513031 16.380601 0.0026147 L 35.010811 0.0026147 Z M 34.808771 0.0026147 " stroke="currentColor" stroke-width="8" stroke-opacity="1" stroke-miterlimit="4"/></g></g><g fill="currentColor" fill-opacity="1"><g transform="translate(17.55306, 27.355007)"><g><path d="M 6.421875 -15.703125 L 11.1875 -15.703125 L 10.234375 -12.84375 L 4.515625 -12.84375 L 4.515625 -4.765625 C 4.515625 -4.109375 4.75 -3.546875 5.21875 -3.078125 C 5.6875 -2.609375 6.25 -2.375 6.90625 -2.375 L 11.1875 -2.375 L 9.28125 0.46875 L 6.90625 0.46875 C 5.457031 0.46875 4.222656 -0.0390625 3.203125 -1.0625 C 2.179688 -2.082031 1.671875 -3.316406 1.671875 -4.765625 L 1.671875 -6.65625 L 0.234375 -6.65625 L 1.1875 -9.515625 L 1.671875 -9.515625 L 1.671875 -12.140625 Z M 6.421875 -15.703125 "/></g></g></g></svg>