<svg xmlns="http://www.w3.org/2000/svg" xmlns:xlink="http://www.w3.org/1999/xlink" width="64" zoomAndPan="magnify" viewBox="0 0 48 48" height="64" preserveAspectRatio="xMidYMid meet" version="1.0"><defs><clipPath id="57b7300e66"><path d="M 22 8.429688 L 26 8.429688 L 26 12 L 22 12 Z M 22 8.429688 " clip-rule="nonzero"/></clipPath><clipPath id="18c9c09ad6"><path d="M 39 18 L 42.660156 18 L 42.660156 22 L 39 22 Z M 39 18 " clip-rule="nonzero"/></clipPath><clipPath id="02237233a7"><path d="M 5.191406 18 L 9 18 L 9 22 L 5.191406 22 Z M 5.191406 18 " clip-rule="nonzero"/></clipPath><clipPath id="a03dbbb9d5"><path d="M 7 12 L 41 12 L 41 38.550781 L 7 38.550781 Z M 7 12 " clip-rule="nonzero"/></clipPath></defs><g clip-path="url(#57b7300e66)"><path fill="#000000" d="M 25.644531 10.054688 C 25.644531 10.269531 25.605469 10.476562 25.523438 10.675781 C 25.441406 10.875 25.324219 11.046875 25.171875 11.199219 C 25.019531 11.351562 24.84375 11.46875 24.648438 11.550781 C 24.449219 11.632812 24.242188 11.675781 24.027344 11.675781 C 23.8125 11.675781 23.609375 11.632812 23.410156 11.550781 C 23.210938 11.46875 23.035156 11.351562 22.886719 11.199219 C 22.734375 11.046875 22.617188 10.875 22.535156 10.675781 C 22.453125 10.476562 22.410156 10.269531 22.410156 10.054688 C 22.410156 9.839844 22.453125 9.632812 22.535156 9.433594 C 22.617188 9.234375 22.734375 9.058594 22.886719 8.910156 C 23.035156 8.757812 23.210938 8.640625 23.410156 8.558594 C 23.609375 8.476562 23.8125 8.433594 24.027344 8.433594 C 24.242188 8.433594 24.449219 8.476562 24.648438 8.558594 C 24.84375 8.640625 25.019531 8.757812 25.171875 8.910156 C 25.324219 9.058594 25.441406 9.234375 25.523438 9.433594 C 25.605469 9.632812 25.644531 9.839844 25.644531 10.054688 Z M 25.644531 10.054688 " fill-opacity="1" fill-rule="nonzero"/></g><g clip-path="url(#18c9c09ad6)"><path fill="#000000" d="M 42.660156 19.730469 C 42.660156 19.945312 42.617188 20.152344 42.535156 20.347656 C 42.453125 20.546875 42.335938 20.722656 42.1875 20.875 C 42.035156 21.027344 41.859375 21.144531 41.660156 21.226562 C 41.464844 21.308594 41.257812 21.351562 41.042969 21.351562 C 40.828125 21.351562 40.621094 21.308594 40.425781 21.226562 C 40.226562 21.144531 40.050781 21.027344 39.898438 20.875 C 39.75 20.722656 39.632812 20.546875 39.550781 20.347656 C 39.46875 20.152344 39.425781 19.945312 39.425781 19.730469 C 39.425781 19.515625 39.46875 19.308594 39.550781 19.109375 C 39.632812 18.910156 39.75 18.734375 39.898438 18.582031 C 40.050781 18.429688 40.226562 18.3125 40.425781 18.230469 C 40.621094 18.148438 40.828125 18.109375 41.042969 18.109375 C 41.257812 18.109375 41.464844 18.148438 41.660156 18.230469 C 41.859375 18.3125 42.035156 18.429688 42.1875 18.582031 C 42.335938 18.734375 42.453125 18.910156 42.535156 19.109375 C 42.617188 19.308594 42.660156 19.515625 42.660156 19.730469 Z M 42.660156 19.730469 " fill-opacity="1" fill-rule="nonzero"/></g><g clip-path="url(#02237233a7)"><path fill="#000000" d="M 8.425781 19.730469 C 8.425781 19.945312 8.382812 20.152344 8.300781 20.347656 C 8.21875 20.546875 8.105469 20.722656 7.953125 20.875 C 7.800781 21.027344 7.625 21.144531 7.425781 21.226562 C 7.230469 21.308594 7.023438 21.351562 6.808594 21.351562 C 6.59375 21.351562 6.386719 21.308594 6.191406 21.226562 C 5.992188 21.144531 5.816406 21.027344 5.664062 20.875 C 5.515625 20.722656 5.398438 20.546875 5.316406 20.347656 C 5.234375 20.152344 5.191406 19.945312 5.191406 19.730469 C 5.191406 19.515625 5.234375 19.308594 5.316406 19.109375 C 5.398438 18.910156 5.515625 18.734375 5.664062 18.582031 C 5.816406 18.429688 5.992188 18.3125 6.191406 18.230469 C 6.386719 18.148438 6.59375 18.109375 6.808594 18.109375 C 7.023438 18.109375 7.230469 18.148438 7.425781 18.230469 C 7.625 18.3125 7.800781 18.429688 7.953125 18.582031 C 8.105469 18.734375 8.21875 18.910156 8.300781 19.109375 C 8.382812 19.308594 8.425781 19.515625 8.425781 19.730469 Z M 8.425781 19.730469 " fill-opacity="1" fill-rule="nonzero"/></g><path fill="#000000" d="M 32.714844 22.125 C 32.714844 22.292969 32.683594 22.457031 32.617188 22.613281 C 32.554688 22.769531 32.460938 22.90625 32.34375 23.023438 C 32.222656 23.144531 32.085938 23.238281 31.929688 23.300781 C 31.773438 23.367188 31.613281 23.398438 31.445312 23.398438 C 31.273438 23.398438 31.113281 23.367188 30.957031 23.300781 C 30.800781 23.238281 30.664062 23.144531 30.542969 23.023438 C 30.425781 22.90625 30.332031 22.769531 30.269531 22.613281 C 30.203125 22.457031 30.171875 22.292969 30.171875 22.125 C 30.171875 21.957031 30.203125 21.792969 30.269531 21.636719 C 30.332031 21.480469 30.425781 21.34375 30.542969 21.222656 C 30.664062 21.105469 30.800781 21.011719 30.957031 20.945312 C 31.113281 20.882812 31.273438 20.851562 31.445312 20.851562 C 31.613281 20.851562 31.773438 20.882812 31.929688 20.945312 C 32.085938 21.011719 32.222656 21.105469 32.34375 21.222656 C 32.460938 21.34375 32.554688 21.480469 32.617188 21.636719 C 32.683594 21.792969 32.714844 21.957031 32.714844 22.125 Z M 32.714844 22.125 " fill-opacity="1" fill-rule="nonzero"/><path fill="#000000" d="M 17.652344 21.898438 C 17.652344 22.066406 17.621094 22.226562 17.558594 22.382812 C 17.492188 22.539062 17.402344 22.679688 17.28125 22.796875 C 17.164062 22.917969 17.023438 23.007812 16.871094 23.074219 C 16.714844 23.136719 16.550781 23.171875 16.382812 23.171875 C 16.214844 23.171875 16.050781 23.136719 15.898438 23.074219 C 15.742188 23.007812 15.605469 22.917969 15.484375 22.796875 C 15.367188 22.679688 15.273438 22.539062 15.207031 22.382812 C 15.144531 22.226562 15.113281 22.066406 15.113281 21.898438 C 15.113281 21.726562 15.144531 21.566406 15.207031 21.410156 C 15.273438 21.253906 15.367188 21.113281 15.484375 20.996094 C 15.605469 20.875 15.742188 20.785156 15.898438 20.71875 C 16.050781 20.65625 16.214844 20.621094 16.382812 20.621094 C 16.550781 20.621094 16.714844 20.65625 16.871094 20.71875 C 17.023438 20.785156 17.164062 20.875 17.28125 20.996094 C 17.402344 21.113281 17.492188 21.253906 17.558594 21.410156 C 17.621094 21.566406 17.652344 21.726562 17.652344 21.898438 Z M 17.652344 21.898438 " fill-opacity="1" fill-rule="nonzero"/><g clip-path="url(#a03dbbb9d5)"><path fill="#000000" d="M 40.261719 22.4375 L 40 22.792969 L 34.625 30.027344 C 33.964844 30.917969 33.039062 31.539062 32.015625 31.832031 L 31.445312 24.148438 C 31.429688 23.9375 31.175781 23.886719 31.101562 24.082031 L 28.21875 31.363281 C 27.300781 30.75 26.652344 29.773438 26.476562 28.636719 L 24.339844 15.03125 L 24.347656 14.976562 L 23.941406 12.5 L 21.410156 28.636719 C 21.230469 29.773438 20.585938 30.75 19.667969 31.363281 L 16.785156 24.082031 C 16.707031 23.886719 16.457031 23.9375 16.441406 24.148438 L 15.867188 31.859375 C 14.855469 31.5625 13.9375 30.945312 13.28125 30.058594 L 7.910156 22.824219 L 7.648438 22.472656 C 7.496094 22.269531 7.179688 22.425781 7.246094 22.667969 L 11.066406 36.273438 L 11.441406 37.609375 L 11.453125 37.65625 C 11.464844 37.695312 11.476562 37.730469 11.488281 37.765625 C 11.496094 37.777344 11.5 37.789062 11.503906 37.796875 C 11.515625 37.824219 11.523438 37.847656 11.535156 37.871094 C 11.542969 37.882812 11.550781 37.894531 11.554688 37.90625 C 11.566406 37.929688 11.578125 37.949219 11.59375 37.972656 C 11.597656 37.984375 11.605469 37.996094 11.613281 38.007812 C 11.628906 38.027344 11.640625 38.046875 11.65625 38.0625 C 11.664062 38.074219 11.671875 38.085938 11.683594 38.097656 C 11.695312 38.117188 11.710938 38.132812 11.726562 38.148438 C 11.738281 38.160156 11.746094 38.171875 11.757812 38.179688 C 11.773438 38.199219 11.789062 38.214844 11.804688 38.230469 C 11.816406 38.238281 11.824219 38.246094 11.835938 38.257812 C 11.855469 38.273438 11.875 38.289062 11.898438 38.304688 C 11.90625 38.3125 11.914062 38.316406 11.921875 38.324219 C 11.953125 38.34375 11.980469 38.363281 12.011719 38.382812 C 12.023438 38.386719 12.03125 38.390625 12.039062 38.398438 C 12.0625 38.410156 12.085938 38.421875 12.109375 38.433594 C 12.125 38.4375 12.136719 38.445312 12.152344 38.449219 C 12.171875 38.457031 12.191406 38.46875 12.210938 38.472656 C 12.226562 38.480469 12.242188 38.484375 12.257812 38.488281 C 12.277344 38.496094 12.292969 38.5 12.3125 38.507812 C 12.332031 38.511719 12.347656 38.515625 12.363281 38.519531 C 12.382812 38.523438 12.402344 38.527344 12.417969 38.53125 C 12.4375 38.535156 12.457031 38.535156 12.476562 38.539062 C 12.492188 38.539062 12.507812 38.542969 12.527344 38.542969 C 12.546875 38.546875 12.566406 38.546875 12.585938 38.546875 C 12.601562 38.546875 12.617188 38.523438 12.632812 38.523438 C 12.65625 38.523438 12.675781 38.5 12.699219 38.5 C 12.699219 38.5 12.703125 38.5 12.703125 38.5 C 12.714844 38.5 12.726562 38.519531 12.738281 38.519531 C 12.761719 38.515625 12.785156 38.527344 12.808594 38.523438 C 12.847656 38.519531 12.886719 38.515625 12.925781 38.507812 C 15.132812 37.953125 20.089844 36.832031 23.941406 36.832031 C 27.792969 36.832031 32.753906 37.957031 34.960938 38.511719 C 35 38.519531 35.035156 38.527344 35.074219 38.535156 C 35.097656 38.539062 35.121094 38.515625 35.144531 38.519531 C 35.15625 38.519531 35.167969 38.5 35.183594 38.5 C 35.207031 38.5 35.230469 38.523438 35.25 38.523438 C 35.265625 38.523438 35.28125 38.535156 35.296875 38.535156 C 35.320312 38.535156 35.339844 38.539062 35.359375 38.539062 C 35.375 38.535156 35.394531 38.539062 35.410156 38.535156 C 35.429688 38.535156 35.449219 38.53125 35.464844 38.527344 C 35.484375 38.523438 35.5 38.523438 35.519531 38.519531 C 35.539062 38.515625 35.554688 38.511719 35.570312 38.507812 C 35.589844 38.5 35.609375 38.496094 35.628906 38.488281 C 35.644531 38.484375 35.660156 38.480469 35.675781 38.472656 C 35.695312 38.464844 35.714844 38.457031 35.734375 38.449219 C 35.746094 38.445312 35.761719 38.4375 35.773438 38.433594 C 35.796875 38.421875 35.820312 38.410156 35.84375 38.398438 C 35.851562 38.390625 35.863281 38.386719 35.871094 38.382812 C 35.902344 38.363281 35.933594 38.34375 35.960938 38.324219 C 35.96875 38.316406 35.980469 38.3125 35.988281 38.304688 C 36.007812 38.289062 36.027344 38.273438 36.046875 38.257812 C 36.058594 38.246094 36.066406 38.238281 36.078125 38.230469 C 36.09375 38.214844 36.113281 38.199219 36.128906 38.179688 C 36.136719 38.171875 36.148438 38.160156 36.15625 38.148438 C 36.171875 38.132812 36.1875 38.117188 36.203125 38.097656 C 36.210938 38.085938 36.21875 38.074219 36.230469 38.0625 C 36.242188 38.042969 36.257812 38.027344 36.269531 38.007812 C 36.277344 37.996094 36.285156 37.984375 36.292969 37.972656 C 36.304688 37.949219 36.316406 37.929688 36.328125 37.90625 C 36.335938 37.894531 36.34375 37.882812 36.347656 37.871094 C 36.359375 37.847656 36.371094 37.824219 36.382812 37.796875 C 36.386719 37.789062 36.390625 37.777344 36.394531 37.765625 C 36.410156 37.730469 36.421875 37.695312 36.429688 37.65625 L 36.445312 37.609375 L 36.820312 36.273438 L 40.574219 22.894531 L 40.578125 22.890625 L 40.597656 22.859375 L 40.660156 22.636719 C 40.730469 22.394531 40.410156 22.234375 40.261719 22.4375 Z M 40.261719 22.4375 " fill-opacity="1" fill-rule="nonzero"/></g></svg>