<svg xmlns="http://www.w3.org/2000/svg" xmlns:xlink="http://www.w3.org/1999/xlink" width="64" zoomAndPan="magnify" viewBox="0 0 48 48" height="64" preserveAspectRatio="xMidYMid meet" version="1.0"><defs><clipPath id="3a921b3263"><path d="M 5.191406 3.339844 L 42.660156 3.339844 L 42.660156 43.75 L 5.191406 43.75 Z M 5.191406 3.339844 " clip-rule="nonzero"/></clipPath></defs><path fill="#ffffff" d="M 23.550781 42.519531 C 23.574219 42.542969 23.597656 42.566406 23.621094 42.585938 L 23.65625 42.609375 L 23.667969 42.621094 L 23.671875 42.621094 L 23.683594 42.628906 L 23.703125 42.640625 L 23.75 42.664062 C 23.8125 42.691406 23.875 42.707031 23.945312 42.714844 L 24.039062 42.714844 C 24.109375 42.707031 24.175781 42.691406 24.234375 42.664062 L 24.246094 42.660156 L 24.257812 42.652344 L 24.273438 42.644531 L 24.285156 42.636719 L 24.316406 42.621094 L 24.363281 42.585938 L 24.371094 42.578125 C 24.394531 42.558594 24.414062 42.539062 24.433594 42.519531 L 41.460938 23.953125 C 41.535156 23.867188 41.585938 23.769531 41.605469 23.667969 C 41.621094 23.597656 41.625 23.523438 41.609375 23.449219 C 41.601562 23.382812 41.578125 23.320312 41.546875 23.261719 L 41.546875 23.257812 C 41.523438 23.210938 41.492188 23.171875 41.457031 23.132812 L 24.535156 4.679688 C 24.429688 4.496094 24.238281 4.375 24.015625 4.375 C 24.011719 4.375 24.007812 4.375 24.003906 4.375 C 24 4.375 23.996094 4.375 23.992188 4.375 C 23.824219 4.375 23.667969 4.445312 23.554688 4.566406 L 6.523438 23.136719 C 6.3125 23.367188 6.3125 23.722656 6.523438 23.953125 Z M 23.550781 42.519531 " fill-opacity="1" fill-rule="evenodd"/><g clip-path="url(#3a921b3263)"><path fill="#ffffff" d="M 7.546875 23.542969 L 23.992188 41.476562 L 40.4375 23.542969 L 23.992188 5.613281 Z M 24.816406 43.523438 L 24.832031 43.511719 L 24.847656 43.503906 L 24.859375 43.496094 C 24.871094 43.488281 24.878906 43.484375 24.886719 43.476562 L 24.902344 43.46875 C 24.910156 43.460938 24.921875 43.457031 24.929688 43.449219 L 24.945312 43.4375 C 24.953125 43.429688 24.964844 43.425781 24.972656 43.417969 L 24.988281 43.40625 C 24.996094 43.398438 25.003906 43.394531 25.007812 43.390625 L 25.019531 43.382812 C 25.019531 43.378906 25.023438 43.378906 25.023438 43.375 C 25.082031 43.328125 42.214844 24.652344 42.214844 24.652344 C 42.421875 24.425781 42.554688 24.15625 42.613281 23.875 C 42.652344 23.683594 42.65625 23.484375 42.625 23.28125 C 42.597656 23.105469 42.539062 22.933594 42.453125 22.773438 L 42.453125 22.769531 L 42.449219 22.769531 C 42.382812 22.644531 42.300781 22.53125 42.207031 22.429688 C 42.207031 22.429688 26.449219 5.242188 25.347656 4.042969 C 25.054688 3.621094 24.566406 3.339844 24.015625 3.339844 L 23.992188 3.339844 C 23.539062 3.339844 23.105469 3.53125 22.796875 3.867188 L 5.769531 22.4375 C 5.195312 23.0625 5.195312 24.027344 5.769531 24.652344 C 5.769531 24.652344 22.597656 43.003906 22.792969 43.21875 C 22.851562 43.28125 22.914062 43.339844 22.984375 43.394531 L 22.992188 43.402344 L 23.003906 43.410156 L 23.019531 43.425781 L 23.03125 43.433594 C 23.039062 43.4375 23.046875 43.441406 23.050781 43.445312 L 23.066406 43.457031 C 23.074219 43.460938 23.082031 43.464844 23.085938 43.472656 L 23.101562 43.480469 L 23.113281 43.488281 C 23.113281 43.488281 23.292969 43.601562 23.128906 43.5 L 23.144531 43.507812 C 23.152344 43.511719 23.160156 43.519531 23.171875 43.523438 L 23.1875 43.535156 C 23.195312 43.539062 23.207031 43.542969 23.214844 43.550781 L 23.230469 43.558594 C 23.242188 43.5625 23.253906 43.570312 23.261719 43.574219 L 23.28125 43.582031 C 23.289062 43.585938 23.296875 43.589844 23.308594 43.597656 L 23.320312 43.601562 C 23.324219 43.605469 23.328125 43.605469 23.332031 43.605469 C 23.5 43.683594 23.679688 43.730469 23.863281 43.742188 C 23.871094 43.742188 23.875 43.746094 23.878906 43.746094 L 23.894531 43.746094 C 23.902344 43.746094 23.910156 43.746094 23.917969 43.746094 L 23.929688 43.746094 C 23.9375 43.746094 23.945312 43.746094 23.953125 43.75 L 23.96875 43.75 C 23.976562 43.75 23.984375 43.75 23.992188 43.75 L 24.011719 43.75 C 24.019531 43.75 24.03125 43.75 24.039062 43.746094 L 24.058594 43.746094 C 24.070312 43.746094 24.082031 43.746094 24.089844 43.746094 L 24.105469 43.746094 C 24.109375 43.742188 24.117188 43.742188 24.121094 43.742188 C 24.304688 43.730469 24.484375 43.683594 24.652344 43.605469 C 24.65625 43.605469 24.660156 43.605469 24.664062 43.601562 L 24.671875 43.597656 C 24.679688 43.59375 24.6875 43.589844 24.695312 43.589844 L 24.707031 43.582031 C 24.714844 43.578125 24.722656 43.574219 24.730469 43.570312 L 24.742188 43.5625 C 24.75 43.558594 24.757812 43.554688 24.765625 43.550781 L 24.78125 43.542969 C 24.789062 43.539062 24.796875 43.535156 24.804688 43.53125 Z M 24.816406 43.523438 " fill-opacity="1" fill-rule="evenodd"/></g><path fill="#ffffff" d="M 23.550781 42.519531 C 23.574219 42.542969 23.597656 42.566406 23.621094 42.585938 L 23.65625 42.609375 L 23.667969 42.621094 L 23.671875 42.621094 L 23.683594 42.628906 L 23.703125 42.640625 L 23.75 42.664062 C 23.8125 42.691406 23.875 42.707031 23.945312 42.714844 L 24.039062 42.714844 C 24.109375 42.707031 24.175781 42.691406 24.234375 42.664062 L 24.246094 42.660156 L 24.257812 42.652344 L 24.273438 42.644531 L 24.285156 42.636719 L 24.316406 42.621094 L 24.363281 42.585938 L 24.371094 42.578125 C 24.394531 42.558594 24.414062 42.539062 24.433594 42.519531 L 41.460938 23.953125 C 41.535156 23.867188 41.585938 23.769531 41.605469 23.667969 C 41.621094 23.597656 41.625 23.523438 41.609375 23.449219 C 41.601562 23.382812 41.578125 23.320312 41.546875 23.261719 L 41.546875 23.257812 C 41.523438 23.210938 41.492188 23.171875 41.457031 23.132812 L 24.535156 4.679688 C 24.429688 4.496094 24.238281 4.375 24.015625 4.375 C 24.011719 4.375 24.007812 4.375 24.003906 4.375 C 24 4.375 23.996094 4.375 23.992188 4.375 C 23.824219 4.375 23.667969 4.445312 23.554688 4.566406 L 6.523438 23.136719 C 6.3125 23.367188 6.3125 23.722656 6.523438 23.953125 Z M 23.550781 42.519531 " fill-opacity="1" fill-rule="evenodd"/><path fill="#282211" d="M 9.25 22.898438 L 14.648438 24.167969 L 22.804688 20.132812 L 22.804688 12.554688 C 22.804688 12.554688 22.070312 22.253906 9.25 22.898438 " fill-opacity="1" fill-rule="evenodd"/><path fill="#282211" d="M 21.070312 33.621094 C 21.070312 33.621094 21.941406 34.738281 23.992188 34.832031 L 24.003906 34.832031 C 26.046875 34.734375 26.914062 33.621094 26.914062 33.621094 L 23.992188 39.714844 Z M 21.070312 33.621094 " fill-opacity="1" fill-rule="evenodd"/><path fill="#282211" d="M 34.378906 26.789062 L 37.460938 25.765625 L 29.738281 34.3125 Z M 34.378906 26.789062 " fill-opacity="1" fill-rule="evenodd"/><path fill="#282211" d="M 13.804688 26.789062 L 10.722656 25.765625 L 18.445312 34.3125 Z M 13.804688 26.789062 " fill-opacity="1" fill-rule="evenodd"/><path fill="#282211" d="M 38.679688 22.898438 L 33.277344 24.167969 L 25.125 20.132812 L 25.125 12.554688 C 25.125 12.554688 25.855469 22.253906 38.679688 22.898438 " fill-opacity="1" fill-rule="evenodd"/><path fill="#282211" d="M 33.636719 24.878906 L 39.910156 23.21875 L 24.609375 6.53125 L 24.589844 20.597656 L 33.609375 24.867188 C 33.617188 24.871094 33.625 24.875 33.636719 24.878906 M 8.082031 23.207031 L 14.527344 24.914062 L 23.394531 20.601562 L 23.414062 6.488281 Z M 20.945312 37.90625 L 14.316406 26.101562 L 8.773438 24.632812 Z M 33.644531 26.117188 L 27.03125 37.914062 L 39.199219 24.648438 Z M 23.992188 40.894531 C 23.992188 40.894531 17.070312 28.5625 15.503906 25.773438 C 15.503906 25.773438 22.550781 22.347656 23.996094 21.644531 C 25.25 22.238281 30.714844 24.824219 32.519531 25.675781 Z M 23.550781 42.519531 C 23.574219 42.542969 23.597656 42.566406 23.621094 42.585938 L 23.632812 42.597656 L 23.636719 42.597656 L 23.644531 42.601562 C 23.644531 42.605469 23.648438 42.605469 23.648438 42.605469 L 23.652344 42.609375 L 23.65625 42.609375 L 23.660156 42.613281 C 23.660156 42.613281 23.664062 42.617188 23.667969 42.617188 L 23.667969 42.621094 L 23.671875 42.621094 C 23.675781 42.625 23.679688 42.625 23.683594 42.628906 L 23.6875 42.632812 C 23.691406 42.632812 23.691406 42.632812 23.695312 42.636719 L 23.699219 42.636719 L 23.707031 42.644531 L 23.710938 42.644531 L 23.71875 42.648438 L 23.722656 42.652344 L 23.726562 42.652344 L 23.730469 42.65625 L 23.734375 42.65625 L 23.738281 42.660156 L 23.742188 42.660156 L 23.746094 42.664062 L 23.75 42.664062 C 23.8125 42.691406 23.875 42.707031 23.945312 42.714844 L 24.039062 42.714844 C 24.109375 42.707031 24.175781 42.691406 24.234375 42.664062 L 24.238281 42.664062 L 24.242188 42.660156 C 24.242188 42.660156 24.246094 42.660156 24.246094 42.660156 L 24.25 42.65625 L 24.253906 42.65625 L 24.261719 42.648438 L 24.269531 42.648438 L 24.273438 42.644531 C 24.273438 42.644531 24.277344 42.644531 24.28125 42.640625 L 24.285156 42.640625 L 24.285156 42.636719 L 24.289062 42.636719 C 24.292969 42.632812 24.296875 42.632812 24.296875 42.632812 L 24.300781 42.628906 C 24.304688 42.625 24.308594 42.625 24.3125 42.621094 L 24.316406 42.621094 L 24.320312 42.617188 C 24.320312 42.617188 24.324219 42.613281 24.328125 42.613281 L 24.328125 42.609375 L 24.332031 42.609375 L 24.335938 42.605469 L 24.339844 42.605469 L 24.351562 42.59375 L 24.355469 42.59375 L 24.367188 42.582031 C 24.367188 42.582031 24.367188 42.582031 24.371094 42.582031 L 24.371094 42.578125 C 24.394531 42.558594 24.414062 42.539062 24.433594 42.519531 L 41.460938 23.953125 C 41.535156 23.867188 41.585938 23.769531 41.605469 23.667969 C 41.621094 23.597656 41.625 23.523438 41.609375 23.449219 C 41.601562 23.382812 41.578125 23.320312 41.546875 23.261719 L 41.546875 23.257812 C 41.523438 23.210938 41.492188 23.171875 41.457031 23.132812 L 24.535156 4.679688 C 24.429688 4.496094 24.238281 4.375 24.015625 4.375 C 24.011719 4.375 24.007812 4.375 24.003906 4.375 C 24 4.375 23.996094 4.375 23.992188 4.375 C 23.824219 4.375 23.667969 4.445312 23.554688 4.566406 L 6.523438 23.136719 C 6.3125 23.367188 6.3125 23.722656 6.523438 23.953125 Z M 23.550781 42.519531 " fill-opacity="1" fill-rule="evenodd"/><path fill="#282211" d="M 18.386719 14.214844 C 19.058594 13.363281 19.820312 13.277344 20.671875 13.949219 C 21.515625 14.625 21.601562 15.390625 20.925781 16.246094 L 18.121094 19.800781 C 17.445312 20.652344 16.6875 20.738281 15.839844 20.0625 C 14.992188 19.386719 14.90625 18.621094 15.578125 17.769531 L 16.242188 16.929688 L 17.222656 17.710938 L 16.558594 18.554688 C 16.386719 18.773438 16.394531 18.960938 16.585938 19.117188 L 16.589844 19.121094 C 16.78125 19.273438 16.964844 19.238281 17.140625 19.015625 L 18.136719 17.753906 C 17.984375 17.761719 17.785156 17.667969 17.535156 17.464844 C 17.492188 17.433594 17.453125 17.398438 17.410156 17.359375 C 17.144531 17.097656 17.003906 16.816406 16.980469 16.507812 C 16.957031 16.195312 17.125 15.816406 17.472656 15.371094 Z M 19.945312 15.464844 C 20.121094 15.242188 20.113281 15.050781 19.921875 14.898438 C 19.726562 14.742188 19.542969 14.777344 19.367188 15 L 18.453125 16.15625 C 18.3125 16.335938 18.257812 16.464844 18.300781 16.539062 C 18.320312 16.582031 18.375 16.636719 18.464844 16.710938 C 18.492188 16.730469 18.515625 16.75 18.546875 16.769531 C 18.699219 16.886719 18.863281 16.835938 19.035156 16.617188 Z M 19.945312 15.464844 " fill-opacity="1" fill-rule="nonzero"/><path fill="#282211" d="M 30.585938 19 C 30.746094 19.234375 30.933594 19.28125 31.140625 19.144531 C 31.34375 19.007812 31.371094 18.820312 31.222656 18.578125 L 30.535156 17.53125 C 30.40625 17.332031 30.296875 17.242188 30.210938 17.253906 C 30.160156 17.261719 30.085938 17.300781 29.988281 17.367188 C 29.960938 17.382812 29.933594 17.402344 29.90625 17.425781 C 29.746094 17.542969 29.742188 17.71875 29.898438 17.957031 Z M 28.863281 18.644531 C 28.582031 18.214844 28.535156 17.835938 28.71875 17.503906 C 28.34375 17.542969 28.015625 17.351562 27.730469 16.921875 L 27.066406 15.90625 C 26.46875 14.996094 26.621094 14.242188 27.523438 13.640625 C 28.421875 13.039062 29.171875 13.195312 29.773438 14.105469 L 30.4375 15.121094 C 30.722656 15.550781 30.769531 15.929688 30.585938 16.261719 C 30.960938 16.222656 31.289062 16.414062 31.570312 16.84375 L 32.257812 17.886719 C 32.855469 18.800781 32.703125 19.554688 31.804688 20.152344 C 30.898438 20.75 30.148438 20.597656 29.550781 19.6875 Z M 28.761719 16.226562 C 28.925781 16.472656 29.109375 16.527344 29.324219 16.386719 C 29.535156 16.242188 29.5625 16.050781 29.398438 15.804688 L 28.738281 14.792969 C 28.574219 14.5625 28.390625 14.511719 28.183594 14.648438 C 27.976562 14.785156 27.949219 14.976562 28.101562 15.21875 Z M 28.761719 16.226562 " fill-opacity="1" fill-rule="nonzero"/><path fill="#282211" d="M 22.515625 24.679688 L 22.515625 31.09375 L 23.519531 31.09375 L 23.519531 32.3125 L 20.25 32.3125 L 20.25 31.09375 L 21.253906 31.09375 L 21.253906 25.898438 L 20.25 25.898438 L 20.25 24.679688 Z M 22.515625 24.679688 " fill-opacity="1" fill-rule="nonzero"/><path fill="#282211" d="M 26.472656 26.210938 C 26.472656 25.921875 26.351562 25.777344 26.101562 25.777344 L 26.09375 25.777344 C 25.851562 25.777344 25.726562 25.921875 25.726562 26.210938 L 25.726562 30.78125 C 25.726562 31.070312 25.851562 31.214844 26.097656 31.214844 C 26.347656 31.214844 26.472656 31.070312 26.472656 30.78125 Z M 27.738281 30.78125 C 27.738281 31.878906 27.191406 32.429688 26.097656 32.429688 C 25.011719 32.429688 24.464844 31.878906 24.464844 30.78125 L 24.464844 26.210938 C 24.464844 25.109375 25.011719 24.558594 26.097656 24.558594 C 27.191406 24.558594 27.738281 25.109375 27.738281 26.210938 Z M 27.738281 30.78125 " fill-opacity="1" fill-rule="nonzero"/></svg>