<svg xmlns="http://www.w3.org/2000/svg" xmlns:xlink="http://www.w3.org/1999/xlink" width="64" zoomAndPan="magnify" viewBox="0 0 48 48" height="64" preserveAspectRatio="xMidYMid meet" version="1.0"><defs><clipPath id="b5efa0f4eb"><path d="M 6.460938 4.703125 L 41.726562 4.703125 L 41.726562 42.171875 L 6.460938 42.171875 Z M 6.460938 4.703125 " clip-rule="nonzero"/></clipPath></defs><path fill="#ffffff" d="M 23.742188 41.03125 C 23.761719 41.054688 23.785156 41.074219 23.808594 41.09375 L 23.816406 41.101562 L 23.851562 41.125 L 23.855469 41.125 L 23.867188 41.132812 L 23.882812 41.144531 L 23.914062 41.160156 L 23.929688 41.164062 C 23.984375 41.191406 24.046875 41.207031 24.113281 41.210938 L 24.128906 41.214844 L 24.1875 41.214844 L 24.199219 41.210938 C 24.265625 41.207031 24.328125 41.191406 24.386719 41.164062 L 24.394531 41.160156 L 24.40625 41.15625 L 24.421875 41.148438 L 24.445312 41.132812 L 24.449219 41.132812 L 24.460938 41.125 L 24.476562 41.113281 L 24.492188 41.105469 L 24.507812 41.09375 L 24.515625 41.085938 C 24.535156 41.070312 24.554688 41.050781 24.570312 41.03125 L 40.597656 23.8125 C 40.667969 23.738281 40.714844 23.644531 40.734375 23.550781 C 40.75 23.484375 40.75 23.414062 40.738281 23.347656 C 40.730469 23.285156 40.710938 23.230469 40.679688 23.175781 L 40.679688 23.171875 C 40.65625 23.128906 40.625 23.089844 40.59375 23.054688 L 24.664062 5.941406 C 24.570312 5.773438 24.386719 5.660156 24.175781 5.660156 C 24.171875 5.660156 24.171875 5.660156 24.167969 5.660156 L 24.15625 5.660156 C 24 5.660156 23.851562 5.726562 23.742188 5.839844 L 7.714844 23.058594 C 7.515625 23.273438 7.515625 23.601562 7.714844 23.8125 Z M 23.742188 41.03125 " fill-opacity="1" fill-rule="evenodd"/><g clip-path="url(#b5efa0f4eb)"><path fill="#ffffff" d="M 8.679688 23.4375 L 24.15625 40.066406 L 39.632812 23.4375 L 24.15625 6.808594 Z M 24.929688 41.960938 L 24.945312 41.953125 L 24.949219 41.953125 L 24.945312 41.953125 L 24.960938 41.945312 L 24.972656 41.9375 C 24.980469 41.929688 24.992188 41.925781 25 41.921875 L 25.011719 41.910156 C 25.023438 41.90625 25.03125 41.898438 25.039062 41.894531 L 25.054688 41.882812 C 25.0625 41.875 25.070312 41.871094 25.078125 41.863281 L 25.09375 41.851562 C 25.101562 41.847656 25.105469 41.84375 25.113281 41.835938 L 25.121094 41.832031 C 25.125 41.828125 25.125 41.828125 25.128906 41.824219 C 25.183594 41.78125 25.234375 41.730469 25.285156 41.679688 C 25.464844 41.484375 41.308594 24.464844 41.308594 24.464844 C 41.503906 24.253906 41.625 24.003906 41.679688 23.742188 C 41.71875 23.566406 41.722656 23.378906 41.691406 23.191406 C 41.664062 23.03125 41.613281 22.871094 41.53125 22.722656 L 41.53125 22.71875 L 41.527344 22.71875 C 41.464844 22.601562 41.390625 22.496094 41.300781 22.402344 C 41.300781 22.402344 26.46875 6.464844 25.433594 5.355469 C 25.15625 4.960938 24.699219 4.703125 24.179688 4.703125 L 24.15625 4.703125 C 23.730469 4.703125 23.320312 4.878906 23.03125 5.191406 L 7.003906 22.410156 C 6.464844 22.988281 6.464844 23.882812 7.003906 24.464844 C 7.003906 24.464844 22.84375 41.480469 23.027344 41.679688 C 23.082031 41.738281 23.144531 41.792969 23.207031 41.84375 L 23.214844 41.851562 L 23.222656 41.855469 C 23.230469 41.863281 23.234375 41.867188 23.242188 41.871094 L 23.253906 41.878906 C 23.257812 41.882812 23.265625 41.886719 23.273438 41.890625 L 23.285156 41.902344 C 23.289062 41.90625 23.296875 41.910156 23.304688 41.914062 L 23.328125 41.929688 C 23.328125 41.929688 23.496094 42.035156 23.34375 41.941406 L 23.359375 41.949219 C 23.367188 41.953125 23.375 41.957031 23.382812 41.964844 L 23.398438 41.972656 C 23.40625 41.976562 23.417969 41.980469 23.425781 41.988281 L 23.441406 41.996094 C 23.449219 42 23.460938 42.003906 23.46875 42.011719 L 23.484375 42.019531 C 23.496094 42.023438 23.503906 42.027344 23.511719 42.03125 L 23.523438 42.035156 C 23.527344 42.039062 23.53125 42.039062 23.535156 42.039062 C 23.691406 42.109375 23.859375 42.152344 24.035156 42.167969 C 24.039062 42.167969 24.042969 42.167969 24.050781 42.167969 L 24.066406 42.167969 C 24.074219 42.167969 24.082031 42.167969 24.089844 42.171875 L 24.097656 42.171875 C 24.105469 42.171875 24.113281 42.171875 24.117188 42.171875 L 24.132812 42.171875 C 24.140625 42.171875 24.148438 42.171875 24.15625 42.171875 L 24.171875 42.171875 C 24.183594 42.171875 24.191406 42.171875 24.203125 42.171875 L 24.21875 42.171875 C 24.230469 42.167969 24.238281 42.167969 24.25 42.167969 L 24.265625 42.167969 C 24.269531 42.167969 24.621094 42.109375 24.777344 42.039062 C 24.78125 42.039062 24.785156 42.039062 24.785156 42.035156 L 24.796875 42.03125 C 24.804688 42.027344 24.808594 42.027344 24.816406 42.023438 L 24.828125 42.015625 C 24.835938 42.011719 24.84375 42.007812 24.851562 42.007812 L 24.863281 42 C 24.871094 41.996094 24.878906 41.992188 24.886719 41.988281 L 24.898438 41.980469 C 24.90625 41.976562 24.914062 41.972656 24.921875 41.96875 L 24.933594 41.960938 Z M 24.929688 41.960938 " fill-opacity="1" fill-rule="evenodd"/></g><path fill="#ffffff" d="M 23.742188 41.03125 C 23.761719 41.054688 23.785156 41.074219 23.808594 41.09375 L 23.816406 41.101562 L 23.851562 41.125 L 23.855469 41.125 L 23.867188 41.132812 L 23.882812 41.144531 L 23.914062 41.160156 L 23.929688 41.164062 C 23.984375 41.191406 24.046875 41.207031 24.113281 41.210938 L 24.128906 41.214844 L 24.1875 41.214844 L 24.199219 41.210938 C 24.265625 41.207031 24.328125 41.191406 24.386719 41.164062 L 24.394531 41.160156 L 24.40625 41.15625 L 24.421875 41.148438 L 24.445312 41.132812 L 24.449219 41.132812 L 24.460938 41.125 L 24.476562 41.113281 L 24.492188 41.105469 L 24.507812 41.09375 L 24.515625 41.085938 C 24.535156 41.070312 24.554688 41.050781 24.570312 41.03125 L 40.597656 23.8125 C 40.667969 23.738281 40.714844 23.644531 40.734375 23.550781 C 40.75 23.484375 40.75 23.414062 40.738281 23.347656 C 40.730469 23.285156 40.710938 23.230469 40.679688 23.175781 L 40.679688 23.171875 C 40.65625 23.128906 40.625 23.089844 40.59375 23.054688 L 24.664062 5.941406 C 24.570312 5.773438 24.386719 5.660156 24.175781 5.660156 C 24.171875 5.660156 24.171875 5.660156 24.167969 5.660156 L 24.15625 5.660156 C 24 5.660156 23.851562 5.726562 23.742188 5.839844 L 7.714844 23.058594 C 7.515625 23.273438 7.515625 23.601562 7.714844 23.8125 Z M 23.742188 41.03125 " fill-opacity="1" fill-rule="evenodd"/><path fill="#282211" d="M 21.40625 32.78125 C 21.40625 32.78125 22.226562 33.816406 24.15625 33.902344 L 24.167969 33.902344 C 26.089844 33.8125 26.90625 32.78125 26.90625 32.78125 L 24.15625 38.433594 Z M 21.40625 32.78125 " fill-opacity="1" fill-rule="evenodd"/><path fill="#282211" d="M 33.933594 26.445312 L 36.832031 25.496094 L 29.5625 33.421875 Z M 33.933594 26.445312 " fill-opacity="1" fill-rule="evenodd"/><path fill="#282211" d="M 14.566406 26.445312 L 11.667969 25.496094 L 18.9375 33.421875 Z M 14.566406 26.445312 " fill-opacity="1" fill-rule="evenodd"/><path fill="#282211" d="M 23.039062 17.839844 C 22.929688 16.925781 22.414062 16.503906 22.105469 16.171875 C 22.976562 14.441406 23.039062 13.246094 23.039062 13.246094 Z M 23.039062 20.273438 L 20.609375 21.457031 C 20.644531 21.425781 20.675781 21.398438 20.707031 21.367188 C 21.382812 20.734375 22.773438 19.378906 23.039062 18.398438 Z M 27.921875 21.589844 L 25.222656 20.273438 L 25.222656 13.246094 C 25.222656 13.246094 25.320312 14.535156 26.097656 16.171875 C 25.828125 16.5 25.546875 16.878906 25.4375 17.152344 C 25.203125 17.738281 25.289062 19.175781 25.847656 19.566406 C 26.410156 19.957031 26.925781 20.238281 26.925781 20.238281 C 26.925781 20.238281 27.421875 21.007812 27.921875 21.589844 M 31.15625 21.222656 C 32.882812 22.078125 35.109375 22.695312 37.980469 22.839844 L 32.894531 24.015625 L 28.878906 22.054688 C 29.664062 22.070312 30.742188 21.695312 31.15625 21.222656 M 16.878906 21.328125 C 16.957031 21.496094 17.082031 21.660156 17.273438 21.816406 C 17.804688 22.242188 18.375 22.355469 18.917969 22.28125 L 15.363281 24.015625 L 10.28125 22.839844 C 13.027344 22.703125 15.183594 22.132812 16.878906 21.328125 " fill-opacity="1" fill-rule="evenodd"/><path fill="#282211" d="M 33.230469 24.671875 L 39.136719 23.132812 L 24.738281 7.660156 L 24.71875 20.707031 L 33.207031 24.660156 C 33.214844 24.664062 33.222656 24.667969 33.230469 24.671875 M 9.183594 23.125 L 15.246094 24.707031 L 23.59375 20.707031 L 23.613281 7.621094 Z M 21.285156 36.753906 L 15.050781 25.804688 L 9.832031 24.445312 Z M 33.242188 25.824219 L 27.015625 36.761719 L 38.46875 24.460938 Z M 24.15625 39.523438 C 24.15625 39.523438 17.640625 28.089844 16.167969 25.503906 C 16.167969 25.503906 22.800781 22.324219 24.160156 21.675781 C 25.339844 22.222656 30.484375 24.621094 32.183594 25.414062 Z M 23.742188 41.03125 C 23.761719 41.054688 23.785156 41.074219 23.808594 41.09375 L 23.816406 41.101562 L 23.820312 41.101562 L 23.828125 41.109375 C 23.828125 41.109375 23.832031 41.113281 23.835938 41.113281 L 23.839844 41.117188 L 23.84375 41.117188 C 23.84375 41.121094 23.847656 41.121094 23.847656 41.125 L 23.855469 41.125 C 23.859375 41.128906 23.859375 41.128906 23.863281 41.132812 L 23.871094 41.136719 C 23.871094 41.136719 23.875 41.136719 23.878906 41.140625 L 23.882812 41.144531 L 23.886719 41.144531 L 23.890625 41.148438 L 23.894531 41.148438 L 23.898438 41.152344 L 23.902344 41.152344 L 23.90625 41.15625 L 23.910156 41.15625 L 23.914062 41.160156 L 23.917969 41.160156 L 23.925781 41.164062 L 23.929688 41.164062 C 23.984375 41.191406 24.046875 41.207031 24.113281 41.210938 L 24.128906 41.214844 L 24.175781 41.214844 L 24.191406 41.210938 L 24.199219 41.210938 C 24.265625 41.207031 24.328125 41.191406 24.386719 41.164062 L 24.390625 41.164062 C 24.390625 41.164062 24.394531 41.160156 24.394531 41.160156 L 24.398438 41.160156 L 24.402344 41.15625 L 24.40625 41.15625 L 24.410156 41.152344 L 24.414062 41.152344 L 24.421875 41.148438 C 24.421875 41.148438 24.425781 41.144531 24.425781 41.144531 L 24.429688 41.144531 L 24.433594 41.140625 L 24.4375 41.140625 C 24.4375 41.136719 24.441406 41.136719 24.445312 41.136719 L 24.445312 41.132812 L 24.449219 41.132812 C 24.453125 41.128906 24.457031 41.128906 24.460938 41.125 L 24.464844 41.125 C 24.464844 41.121094 24.46875 41.121094 24.472656 41.117188 L 24.476562 41.113281 L 24.480469 41.113281 L 24.492188 41.101562 L 24.496094 41.101562 L 24.507812 41.089844 C 24.507812 41.089844 24.511719 41.089844 24.511719 41.089844 L 24.515625 41.085938 C 24.535156 41.070312 24.554688 41.050781 24.570312 41.03125 L 40.597656 23.8125 C 40.667969 23.738281 40.714844 23.644531 40.734375 23.550781 C 40.75 23.484375 40.75 23.414062 40.738281 23.347656 C 40.730469 23.285156 40.710938 23.230469 40.679688 23.175781 L 40.679688 23.171875 C 40.65625 23.128906 40.625 23.089844 40.59375 23.054688 L 24.664062 5.941406 C 24.570312 5.773438 24.386719 5.660156 24.175781 5.660156 L 24.15625 5.660156 C 24 5.660156 23.851562 5.726562 23.742188 5.839844 L 7.714844 23.058594 C 7.515625 23.273438 7.515625 23.601562 7.714844 23.8125 Z M 23.742188 41.03125 " fill-opacity="1" fill-rule="evenodd"/><path fill="#282211" d="M 17.867188 14.726562 C 18.457031 14.101562 19.066406 14.082031 19.699219 14.667969 C 20.324219 15.25 20.34375 15.855469 19.75 16.480469 L 17.289062 19.074219 C 16.695312 19.699219 16.085938 19.71875 15.457031 19.132812 C 14.832031 18.546875 14.8125 17.945312 15.402344 17.320312 L 15.988281 16.707031 L 16.714844 17.382812 L 16.128906 17.996094 C 15.976562 18.160156 15.972656 18.308594 16.113281 18.441406 L 16.117188 18.445312 C 16.257812 18.578125 16.40625 18.5625 16.5625 18.398438 L 17.433594 17.476562 C 17.316406 17.472656 17.160156 17.386719 16.976562 17.210938 C 16.945312 17.183594 16.917969 17.152344 16.886719 17.121094 C 16.691406 16.898438 16.597656 16.667969 16.597656 16.425781 C 16.601562 16.179688 16.757812 15.894531 17.066406 15.570312 Z M 19.023438 15.800781 C 19.179688 15.640625 19.183594 15.492188 19.042969 15.359375 C 18.898438 15.226562 18.746094 15.238281 18.59375 15.402344 L 17.792969 16.246094 C 17.667969 16.378906 17.617188 16.476562 17.644531 16.535156 C 17.660156 16.570312 17.699219 16.617188 17.765625 16.679688 C 17.785156 16.699219 17.804688 16.714844 17.828125 16.734375 C 17.941406 16.835938 18.074219 16.804688 18.222656 16.644531 Z M 19.023438 15.800781 " fill-opacity="1" fill-rule="nonzero"/><path fill="#282211" d="M 21.453125 18.066406 C 21.609375 17.902344 21.613281 17.753906 21.472656 17.621094 L 21.464844 17.617188 C 21.324219 17.488281 21.175781 17.503906 21.023438 17.664062 L 18.558594 20.261719 C 18.40625 20.425781 18.398438 20.570312 18.542969 20.703125 C 18.6875 20.839844 18.835938 20.824219 18.992188 20.660156 Z M 19.71875 21.339844 C 19.125 21.960938 18.515625 21.980469 17.886719 21.394531 C 17.261719 20.808594 17.242188 20.207031 17.832031 19.582031 L 20.296875 16.988281 C 20.886719 16.363281 21.5 16.34375 22.125 16.925781 C 22.753906 17.511719 22.773438 18.117188 22.179688 18.742188 Z M 19.71875 21.339844 " fill-opacity="1" fill-rule="nonzero"/><path fill="#282211" d="M 29.148438 20.660156 C 29.300781 20.820312 29.453125 20.835938 29.601562 20.703125 C 29.746094 20.574219 29.746094 20.425781 29.597656 20.253906 L 28.933594 19.527344 C 28.808594 19.386719 28.710938 19.328125 28.644531 19.347656 C 28.605469 19.359375 28.554688 19.398438 28.484375 19.460938 C 28.464844 19.476562 28.445312 19.496094 28.425781 19.515625 C 28.3125 19.625 28.332031 19.761719 28.484375 19.929688 Z M 27.75 20.585938 C 27.476562 20.285156 27.390625 19.996094 27.5 19.71875 C 27.207031 19.792969 26.925781 19.683594 26.652344 19.382812 L 26.007812 18.671875 C 25.429688 18.039062 25.457031 17.433594 26.097656 16.859375 C 26.738281 16.289062 27.347656 16.320312 27.925781 16.957031 L 28.570312 17.664062 C 28.84375 17.964844 28.929688 18.253906 28.820312 18.535156 C 29.113281 18.457031 29.394531 18.570312 29.667969 18.871094 L 30.332031 19.597656 C 30.910156 20.234375 30.882812 20.839844 30.242188 21.410156 C 29.601562 21.980469 28.992188 21.949219 28.414062 21.316406 Z M 27.382812 18.722656 C 27.539062 18.894531 27.691406 18.914062 27.84375 18.777344 C 27.992188 18.644531 27.992188 18.488281 27.835938 18.316406 L 27.191406 17.613281 C 27.035156 17.449219 26.886719 17.433594 26.742188 17.5625 C 26.59375 17.695312 26.59375 17.847656 26.738281 18.015625 Z M 27.382812 18.722656 " fill-opacity="1" fill-rule="nonzero"/><path fill="#282211" d="M 29.660156 15.40625 C 29.511719 15.238281 29.363281 15.222656 29.214844 15.351562 L 29.210938 15.355469 C 29.066406 15.484375 29.070312 15.628906 29.222656 15.796875 L 31.632812 18.441406 C 31.78125 18.609375 31.929688 18.625 32.078125 18.496094 C 32.222656 18.363281 32.222656 18.214844 32.070312 18.050781 Z M 32.808594 17.386719 C 33.386719 18.023438 33.355469 18.625 32.714844 19.199219 C 32.078125 19.769531 31.46875 19.738281 30.890625 19.105469 L 28.480469 16.457031 C 27.902344 15.824219 27.933594 15.21875 28.570312 14.648438 C 29.210938 14.074219 29.824219 14.105469 30.402344 14.742188 Z M 32.808594 17.386719 " fill-opacity="1" fill-rule="nonzero"/><path fill="#282211" d="M 22.488281 25.90625 C 22.488281 25.640625 22.371094 25.507812 22.136719 25.507812 L 22.128906 25.507812 C 21.898438 25.507812 21.785156 25.640625 21.785156 25.90625 L 21.785156 30.148438 C 21.785156 30.414062 21.902344 30.546875 22.132812 30.546875 C 22.371094 30.546875 22.488281 30.414062 22.488281 30.148438 Z M 23.675781 30.148438 C 23.675781 31.164062 23.160156 31.675781 22.132812 31.675781 C 21.109375 31.675781 20.597656 31.164062 20.597656 30.148438 L 20.597656 25.90625 C 20.597656 24.886719 21.109375 24.378906 22.132812 24.378906 C 23.160156 24.378906 23.675781 24.886719 23.675781 25.90625 Z M 23.675781 30.148438 " fill-opacity="1" fill-rule="nonzero"/><path fill="#282211" d="M 26.421875 25.90625 C 26.421875 25.640625 26.304688 25.507812 26.070312 25.507812 L 26.066406 25.507812 C 25.835938 25.507812 25.71875 25.640625 25.71875 25.90625 L 25.71875 30.148438 C 25.71875 30.414062 25.835938 30.546875 26.066406 30.546875 C 26.304688 30.546875 26.421875 30.414062 26.421875 30.148438 Z M 27.609375 30.148438 C 27.609375 31.164062 27.09375 31.675781 26.066406 31.675781 C 25.042969 31.675781 24.53125 31.164062 24.53125 30.148438 L 24.53125 25.90625 C 24.53125 24.886719 25.042969 24.378906 26.066406 24.378906 C 27.09375 24.378906 27.609375 24.886719 27.609375 25.90625 Z M 27.609375 30.148438 " fill-opacity="1" fill-rule="nonzero"/></svg>