<svg xmlns="http://www.w3.org/2000/svg" xmlns:xlink="http://www.w3.org/1999/xlink" width="64" zoomAndPan="magnify" viewBox="0 0 48 48" height="64" preserveAspectRatio="xMidYMid meet" version="1.0"><defs><clipPath id="d142727a48"><path d="M 5.191406 3.796875 L 42.660156 3.796875 L 42.660156 43.472656 L 5.191406 43.472656 Z M 5.191406 3.796875 " clip-rule="nonzero"/></clipPath></defs><g clip-path="url(#d142727a48)"><path fill="#ffffff" d="M 31.933594 10.339844 L 29.949219 12.675781 L 18.722656 12.675781 C 18.03125 11.859375 16.558594 10.128906 16.558594 10.128906 C 16.558594 10.128906 22.394531 8.214844 23.925781 7.710938 Z M 8.929688 18.714844 L 13.511719 12.34375 C 14.191406 13.144531 15.0625 14.167969 15.578125 14.773438 L 12.023438 25.664062 L 8.929688 26.382812 Z M 34.714844 12.867188 C 35.972656 14.613281 38.207031 17.722656 38.921875 18.714844 L 38.921875 26.644531 L 36.597656 25.808594 C 36.597656 25.808594 33.816406 17.289062 33.023438 14.855469 Z M 15.695312 26.476562 L 18.972656 16.4375 L 29.605469 16.453125 L 32.878906 26.476562 L 24.285156 32.691406 Z M 37.722656 30.222656 L 33.191406 36.519531 L 26.15625 38.828125 L 26.15625 35.984375 C 26.15625 35.984375 33.332031 30.792969 35.316406 29.359375 Z M 9.980469 30.015625 L 13.148438 29.28125 C 14.796875 30.472656 20.667969 34.722656 22.417969 35.984375 L 22.417969 39.066406 C 22.417969 39.066406 16.242188 37.039062 14.660156 36.519531 Z M 24.503906 3.925781 C 24.128906 3.804688 23.722656 3.804688 23.347656 3.925781 L 12.925781 7.347656 C 12.550781 7.472656 12.222656 7.710938 11.992188 8.035156 L 5.550781 16.988281 C 5.316406 17.3125 5.191406 17.703125 5.191406 18.101562 L 5.191406 29.171875 C 5.191406 29.570312 5.316406 29.957031 5.550781 30.28125 L 11.992188 39.234375 C 12.222656 39.558594 12.550781 39.800781 12.925781 39.921875 L 23.347656 43.34375 C 23.722656 43.464844 24.128906 43.464844 24.503906 43.34375 L 34.925781 39.921875 C 35.300781 39.800781 35.628906 39.558594 35.863281 39.234375 L 42.304688 30.28125 C 42.535156 29.957031 42.660156 29.570312 42.660156 29.171875 L 42.660156 18.101562 C 42.660156 17.703125 42.535156 17.3125 42.304688 16.988281 L 35.863281 8.035156 C 35.628906 7.710938 35.300781 7.472656 34.925781 7.347656 Z M 24.503906 3.925781 " fill-opacity="1" fill-rule="evenodd"/></g><path fill="#ffffff" d="M 24.136719 5.0625 C 24 5.019531 23.851562 5.019531 23.714844 5.0625 L 13.289062 8.484375 C 13.152344 8.53125 13.03125 8.617188 12.945312 8.738281 L 6.503906 17.691406 C 6.421875 17.8125 6.375 17.953125 6.375 18.101562 L 6.375 29.171875 C 6.375 29.316406 6.421875 29.460938 6.503906 29.578125 L 12.945312 38.535156 C 13.03125 38.652344 13.152344 38.742188 13.289062 38.785156 L 23.714844 42.207031 C 23.851562 42.253906 24 42.253906 24.136719 42.207031 L 34.5625 38.785156 C 34.699219 38.742188 34.820312 38.652344 34.90625 38.535156 L 41.347656 29.578125 C 41.433594 29.460938 41.476562 29.316406 41.476562 29.171875 L 41.476562 18.101562 C 41.476562 17.953125 41.433594 17.8125 41.347656 17.691406 L 34.90625 8.738281 C 34.820312 8.617188 34.699219 8.53125 34.5625 8.484375 Z M 24.136719 5.0625 " fill-opacity="1" fill-rule="evenodd"/><path fill="#282211" d="M 14.503906 9.546875 L 23.925781 6.453125 L 33.925781 9.734375 L 33.960938 9.789062 L 30.492188 13.871094 L 18.179688 13.871094 Z M 7.75 18.324219 L 7.75 27.882812 L 12.9375 26.675781 L 16.910156 14.507812 L 13.4375 10.421875 Z M 34.792969 10.941406 L 31.691406 14.589844 L 35.65625 26.738281 L 40.101562 28.335938 L 40.101562 18.324219 Z M 14.367188 26.734375 C 14.335938 26.898438 14.371094 27.007812 14.523438 27.097656 L 24.289062 34.160156 L 34.171875 27.011719 C 34.175781 26.988281 34.183594 26.96875 34.1875 26.945312 C 34.203125 26.90625 34.21875 26.871094 34.238281 26.835938 L 30.460938 15.257812 L 18.113281 15.257812 Z M 39.609375 29.632812 L 35.132812 28.023438 L 24.976562 35.371094 L 24.976562 40.472656 L 33.925781 37.535156 Z M 13.402344 27.996094 L 8.007812 29.25 C 7.996094 29.25 7.984375 29.253906 7.972656 29.257812 L 13.929688 37.535156 L 23.601562 40.710938 L 23.601562 35.371094 Z M 24.136719 5.0625 C 24 5.019531 23.851562 5.019531 23.714844 5.0625 L 13.289062 8.484375 C 13.152344 8.53125 13.03125 8.617188 12.949219 8.738281 L 6.503906 17.691406 C 6.421875 17.8125 6.375 17.953125 6.375 18.101562 L 6.375 29.171875 C 6.375 29.316406 6.421875 29.460938 6.503906 29.578125 L 12.949219 38.535156 C 13.03125 38.652344 13.152344 38.742188 13.289062 38.785156 L 23.714844 42.207031 C 23.851562 42.253906 24 42.253906 24.136719 42.207031 L 34.5625 38.785156 C 34.699219 38.742188 34.820312 38.652344 34.90625 38.535156 L 41.347656 29.578125 C 41.433594 29.460938 41.476562 29.316406 41.476562 29.171875 L 41.476562 18.101562 C 41.476562 17.953125 41.433594 17.8125 41.347656 17.691406 L 34.90625 8.738281 C 34.820312 8.617188 34.699219 8.53125 34.5625 8.484375 Z M 24.136719 5.0625 " fill-opacity="1" fill-rule="evenodd"/><path fill="#282211" d="M 8.40625 19.253906 L 8.605469 27.003906 L 12.199219 26.097656 C 12.199219 26.097656 9.195312 24.980469 8.40625 19.253906 M 39.636719 19.949219 L 39.574219 27.554688 L 36.007812 26.230469 C 36.007812 26.230469 39.097656 26.171875 39.636719 19.949219 M 24.105469 33.402344 C 25.21875 32.378906 31.234375 26.632812 31.5 21.546875 L 33.136719 26.613281 L 24.121094 33.417969 C 24.222656 33.511719 24.28125 33.5625 24.28125 33.5625 L 24.105469 33.429688 L 23.925781 33.5625 C 23.925781 33.5625 23.984375 33.511719 24.085938 33.417969 L 15.070312 26.613281 L 16.707031 21.546875 C 16.972656 26.632812 22.988281 32.378906 24.105469 33.402344 M 35.414062 34.410156 L 35.085938 33.929688 L 34.621094 34.195312 L 34.347656 33.820312 C 35.542969 32.882812 36.84375 31.65625 38.234375 30.0625 Z M 9.480469 30.0625 L 12.777344 34.835938 L 13.5625 33.777344 L 13.542969 33.761719 C 12.835938 33.238281 12.15625 32.671875 11.503906 32.078125 C 10.800781 31.4375 10.128906 30.761719 9.480469 30.0625 M 14.644531 36.730469 L 15.121094 37.28125 L 14.296875 37.03125 L 13.605469 36.03125 Z M 33.101562 34.722656 L 34.28125 36.152344 L 33.710938 37.03125 L 32.882812 37.300781 C 33.089844 37.128906 33.230469 36.917969 33.253906 36.695312 C 33.308594 36.136719 32.808594 35.382812 32.570312 35.058594 C 32.742188 34.953125 32.921875 34.839844 33.101562 34.722656 M 31.480469 37.757812 L 25.433594 39.730469 L 25.433594 36.296875 C 25.433594 36.296875 27.027344 37.207031 29.855469 36.316406 C 30.085938 36.667969 30.609375 37.40625 31.125 37.664062 C 31.230469 37.714844 31.347656 37.746094 31.480469 37.757812 M 17.78125 36.117188 C 21.179688 37.332031 23.105469 36.296875 23.105469 36.296875 L 23.105469 39.730469 L 16.882812 37.824219 L 17.664062 37.097656 L 17.28125 36.5625 Z M 17.78125 36.117188 " fill-opacity="1" fill-rule="evenodd"/><path fill="#282211" d="M 9.566406 20.246094 L 8.777344 20.105469 L 9.164062 17.890625 L 9.714844 17.988281 L 13.9375 19.765625 L 13.789062 20.617188 L 9.792969 18.9375 Z M 9.566406 20.246094 " fill-opacity="1" fill-rule="nonzero"/><path fill="#282211" d="M 22.945312 11.859375 C 22.949219 12.046875 23.035156 12.144531 23.199219 12.144531 C 23.363281 12.144531 23.449219 12.046875 23.453125 11.859375 L 23.453125 11.019531 C 23.453125 10.859375 23.425781 10.765625 23.371094 10.742188 C 23.34375 10.730469 23.289062 10.722656 23.210938 10.722656 C 23.1875 10.722656 23.164062 10.722656 23.140625 10.726562 C 23.007812 10.730469 22.945312 10.828125 22.945312 11.019531 Z M 22.117188 11.019531 C 22.117188 10.675781 22.226562 10.445312 22.453125 10.328125 C 22.226562 10.210938 22.113281 9.980469 22.113281 9.636719 L 22.113281 8.820312 C 22.113281 8.089844 22.476562 7.722656 23.199219 7.722656 C 23.921875 7.722656 24.28125 8.085938 24.28125 8.820312 L 24.28125 9.632812 C 24.28125 9.980469 24.167969 10.210938 23.945312 10.328125 C 24.167969 10.441406 24.28125 10.671875 24.28125 11.019531 L 24.28125 11.859375 C 24.28125 12.589844 23.921875 12.953125 23.199219 12.957031 C 22.476562 12.953125 22.117188 12.585938 22.117188 11.859375 Z M 22.941406 9.628906 C 22.941406 9.828125 23.027344 9.925781 23.195312 9.925781 C 23.367188 9.925781 23.453125 9.828125 23.453125 9.628906 L 23.453125 8.820312 C 23.449219 8.628906 23.363281 8.53125 23.199219 8.53125 C 23.035156 8.53125 22.949219 8.628906 22.941406 8.820312 Z M 22.941406 9.628906 " fill-opacity="1" fill-rule="nonzero"/><path fill="#282211" d="M 37.71875 18.191406 C 38.285156 17.738281 38.792969 17.796875 39.242188 18.367188 C 39.691406 18.9375 39.632812 19.453125 39.0625 19.90625 L 36.703125 21.796875 C 36.136719 22.25 35.628906 22.191406 35.179688 21.617188 C 34.734375 21.046875 34.792969 20.535156 35.359375 20.082031 L 35.917969 19.636719 L 36.4375 20.296875 L 35.878906 20.742188 C 35.730469 20.859375 35.707031 20.984375 35.808594 21.117188 L 35.8125 21.121094 C 35.914062 21.25 36.039062 21.253906 36.183594 21.132812 L 37.023438 20.464844 C 36.921875 20.445312 36.808594 20.351562 36.675781 20.183594 C 36.652344 20.15625 36.632812 20.128906 36.613281 20.09375 C 36.476562 19.882812 36.429688 19.675781 36.460938 19.472656 C 36.492188 19.265625 36.65625 19.042969 36.953125 18.804688 Z M 38.546875 19.246094 C 38.691406 19.125 38.714844 19.003906 38.613281 18.871094 C 38.511719 18.742188 38.386719 18.734375 38.238281 18.855469 L 37.472656 19.46875 C 37.351562 19.566406 37.296875 19.640625 37.3125 19.695312 C 37.320312 19.726562 37.347656 19.773438 37.394531 19.832031 C 37.40625 19.847656 37.421875 19.867188 37.4375 19.882812 C 37.519531 19.984375 37.632812 19.976562 37.777344 19.859375 Z M 38.546875 19.246094 " fill-opacity="1" fill-rule="nonzero"/><path fill="#282211" d="M 34.292969 35.847656 L 31.761719 32.433594 L 31.230469 32.835938 L 30.75 32.1875 L 32.484375 30.875 L 32.960938 31.523438 L 32.429688 31.925781 L 34.484375 34.691406 L 35.015625 34.289062 L 35.496094 34.9375 Z M 34.292969 35.847656 " fill-opacity="1" fill-rule="nonzero"/><path fill="#282211" d="M 31.59375 36.621094 C 31.707031 36.773438 31.828125 36.800781 31.960938 36.703125 L 31.964844 36.699219 C 32.09375 36.601562 32.101562 36.476562 31.988281 36.320312 L 30.183594 33.886719 C 30.070312 33.734375 29.945312 33.707031 29.816406 33.808594 C 29.683594 33.90625 29.671875 34.035156 29.785156 34.1875 Z M 29.117188 34.695312 C 28.683594 34.109375 28.757812 33.597656 29.335938 33.160156 C 29.914062 32.722656 30.417969 32.796875 30.851562 33.382812 L 32.65625 35.816406 C 33.089844 36.402344 33.019531 36.914062 32.441406 37.347656 C 31.863281 37.785156 31.359375 37.714844 30.925781 37.128906 Z M 29.117188 34.695312 " fill-opacity="1" fill-rule="nonzero"/><path fill="#282211" d="M 15.195312 36.859375 L 17.84375 33.535156 L 17.328125 33.113281 L 17.828125 32.484375 L 19.515625 33.855469 L 19.015625 34.484375 L 18.496094 34.0625 L 16.351562 36.757812 L 16.867188 37.179688 L 16.367188 37.808594 Z M 15.195312 36.859375 " fill-opacity="1" fill-rule="nonzero"/><path fill="#282211" d="M 13.003906 35.074219 L 15.652344 31.75 L 15.132812 31.328125 L 15.632812 30.699219 L 17.320312 32.070312 L 16.820312 32.699219 L 16.300781 32.277344 L 14.15625 34.972656 L 14.671875 35.394531 L 14.171875 36.023438 Z M 13.003906 35.074219 " fill-opacity="1" fill-rule="nonzero"/><path fill="#282211" d="M 22.996094 20.402344 L 22.996094 25.925781 L 23.859375 25.925781 L 23.859375 26.972656 L 21.054688 26.972656 L 21.054688 25.925781 L 21.914062 25.925781 L 21.914062 21.449219 L 21.054688 21.449219 L 21.054688 20.402344 Z M 22.996094 20.402344 " fill-opacity="1" fill-rule="nonzero"/><path fill="#282211" d="M 24.703125 25.527344 C 24.703125 24.925781 25 24.414062 25.589844 23.988281 C 26.144531 23.585938 26.421875 23.25 26.425781 22.980469 L 26.425781 21.71875 C 26.425781 21.472656 26.320312 21.347656 26.109375 21.347656 L 26.105469 21.347656 C 25.890625 21.347656 25.785156 21.472656 25.785156 21.71875 L 25.785156 22.648438 L 24.703125 22.648438 L 24.703125 21.71875 C 24.703125 20.769531 25.171875 20.296875 26.105469 20.296875 C 27.039062 20.296875 27.507812 20.769531 27.507812 21.71875 L 27.507812 23.003906 C 27.507812 23.617188 27.210938 24.136719 26.617188 24.5625 C 26.0625 24.964844 25.785156 25.3125 25.785156 25.605469 L 25.785156 25.925781 L 27.507812 25.925781 L 27.507812 26.972656 L 24.703125 26.972656 Z M 24.703125 25.527344 " fill-opacity="1" fill-rule="nonzero"/></svg>