<svg xmlns="http://www.w3.org/2000/svg" xmlns:xlink="http://www.w3.org/1999/xlink" width="64" zoomAndPan="magnify" viewBox="0 0 48 48" height="64" preserveAspectRatio="xMidYMid meet" version="1.0"><defs><clipPath id="7a94541e5e"><path d="M 6.261719 3.578125 L 41.527344 3.578125 L 41.527344 43.25 L 6.261719 43.25 Z M 6.261719 3.578125 " clip-rule="nonzero"/></clipPath></defs><g clip-path="url(#7a94541e5e)"><path fill="#ffffff" d="M 24.132812 5.519531 L 23.894531 5.382812 L 23.625 5.535156 C 23.714844 5.503906 23.808594 5.488281 23.90625 5.488281 C 23.984375 5.488281 24.058594 5.496094 24.132812 5.519531 M 23.359375 5.6875 L 21.175781 6.921875 C 21.3125 6.972656 21.433594 7.058594 21.53125 7.175781 C 21.628906 7.296875 21.6875 7.433594 21.710938 7.574219 L 23.257812 5.785156 C 23.289062 5.75 23.324219 5.714844 23.359375 5.6875 M 24.496094 5.726562 C 24.515625 5.746094 24.535156 5.765625 24.554688 5.785156 L 26.125 7.605469 C 26.148438 7.460938 26.207031 7.324219 26.304688 7.207031 C 26.402344 7.089844 26.523438 7 26.660156 6.949219 Z M 8.382812 14.167969 L 7.972656 14.402344 L 7.972656 14.863281 C 8.015625 14.828125 8.058594 14.796875 8.105469 14.773438 C 8.214844 14.714844 8.328125 14.679688 8.445312 14.671875 C 8.394531 14.554688 8.367188 14.421875 8.371094 14.289062 C 8.371094 14.25 8.375 14.207031 8.382812 14.167969 M 39.417969 14.175781 C 39.425781 14.214844 39.429688 14.257812 39.429688 14.296875 C 39.433594 14.433594 39.40625 14.566406 39.347656 14.6875 C 39.460938 14.699219 39.574219 14.730469 39.679688 14.789062 C 39.726562 14.816406 39.773438 14.84375 39.8125 14.878906 L 39.8125 14.402344 Z M 10.878906 14.363281 L 16.992188 10.902344 L 12.882812 15.664062 Z M 34.929688 15.664062 L 30.84375 10.929688 L 36.921875 14.371094 Z M 16.445312 16.296875 L 23.90625 7.65625 C 25.449219 9.445312 29.359375 13.976562 31.363281 16.296875 Z M 13.734375 17.300781 L 13.691406 17.347656 C 13.539062 17.527344 13.324219 17.628906 13.101562 17.640625 C 13.175781 17.808594 13.195312 17.992188 13.152344 18.175781 C 13.21875 18.152344 13.285156 18.136719 13.355469 18.128906 C 13.589844 18.109375 13.816406 18.183594 13.992188 18.332031 C 14.007812 18.265625 14.035156 18.199219 14.070312 18.140625 C 14.113281 18.0625 14.164062 17.996094 14.226562 17.9375 C 14.039062 17.855469 13.886719 17.703125 13.796875 17.511719 C 13.765625 17.445312 13.746094 17.371094 13.734375 17.300781 M 34.078125 17.300781 C 34.066406 17.371094 34.046875 17.445312 34.015625 17.511719 C 33.953125 17.648438 33.855469 17.761719 33.738281 17.847656 C 33.847656 17.921875 33.9375 18.019531 34.003906 18.140625 C 34.0625 18.242188 34.097656 18.355469 34.109375 18.472656 C 34.246094 18.40625 34.398438 18.375 34.558594 18.390625 C 34.621094 18.398438 34.6875 18.410156 34.746094 18.433594 L 34.695312 18.292969 C 34.609375 18.078125 34.621094 17.84375 34.710938 17.640625 C 34.488281 17.628906 34.273438 17.527344 34.121094 17.347656 Z M 36.542969 18.328125 L 38.414062 17.117188 L 38.414062 23.21875 Z M 9.371094 23.285156 L 9.371094 17.101562 L 11.269531 18.328125 Z M 39.8125 28.511719 C 39.703125 28.601562 39.570312 28.664062 39.425781 28.691406 C 39.277344 28.71875 39.132812 28.707031 39 28.664062 L 39.8125 30.785156 Z M 7.972656 28.578125 L 7.972656 30.855469 L 8.785156 28.730469 C 8.652344 28.773438 8.507812 28.785156 8.359375 28.757812 C 8.214844 28.730469 8.082031 28.667969 7.972656 28.578125 M 30.183594 21.886719 C 29.933594 21.789062 29.640625 21.816406 29.40625 21.96875 C 29.070312 22.191406 28.933594 22.609375 29.074219 22.984375 C 29.074219 22.984375 29.128906 23.136719 29.25 23.394531 C 29.25 23.394531 25.621094 29.246094 24.039062 31.804688 C 24.039062 31.804688 18.480469 22.839844 16.355469 19.414062 L 31.71875 19.414062 Z M 32.265625 24.4375 L 34.292969 21.164062 L 38.0625 31.007812 L 27.207031 32.597656 L 31.144531 26.242188 C 31.375 26.441406 31.699219 26.507812 31.992188 26.402344 C 32.320312 26.285156 32.546875 25.984375 32.5625 25.632812 C 32.5625 25.632812 32.613281 25.199219 32.265625 24.4375 M 16.324219 25.269531 C 15.996094 25.597656 15.660156 26.007812 15.359375 26.527344 C 15.171875 26.855469 15.21875 27.265625 15.472656 27.539062 C 15.730469 27.816406 16.136719 27.890625 16.472656 27.726562 C 16.472656 27.726562 16.890625 27.527344 17.453125 27.09375 L 20.890625 32.640625 C 17.921875 32.203125 12.128906 31.355469 9.75 31.007812 L 13.617188 20.902344 Z M 7.972656 32.316406 L 7.972656 32.429688 L 10.046875 33.601562 C 10.019531 33.464844 10.03125 33.320312 10.078125 33.179688 C 10.125 33.039062 10.207031 32.917969 10.3125 32.820312 L 8.441406 32.546875 C 8.265625 32.523438 8.101562 32.441406 7.972656 32.316406 M 39.8125 32.339844 C 39.691406 32.449219 39.535156 32.523438 39.371094 32.546875 L 37.464844 32.828125 C 37.570312 32.921875 37.652344 33.042969 37.699219 33.183594 C 37.746094 33.324219 37.757812 33.46875 37.730469 33.609375 L 39.8125 32.429688 Z M 24.695312 33.980469 C 24.535156 34.171875 24.292969 34.289062 24.039062 34.289062 C 23.796875 34.289062 23.570312 34.1875 23.40625 34.011719 C 23.386719 34.085938 23.351562 34.160156 23.308594 34.226562 C 23.265625 34.285156 23.21875 34.339844 23.167969 34.390625 L 23.347656 34.414062 C 23.585938 34.449219 23.789062 34.582031 23.921875 34.769531 C 24.054688 34.578125 24.257812 34.445312 24.5 34.410156 L 24.933594 34.347656 C 24.878906 34.300781 24.832031 34.246094 24.792969 34.183594 C 24.75 34.117188 24.71875 34.050781 24.695312 33.980469 M 25.480469 36 L 32.480469 34.972656 L 25.480469 38.9375 Z M 15.789062 35.039062 C 16.40625 35.519531 17.113281 35.992188 17.785156 36.265625 C 18.160156 36.421875 18.59375 36.289062 18.820312 35.949219 C 18.910156 35.8125 18.957031 35.660156 18.964844 35.507812 L 22.367188 36.003906 L 22.367188 38.972656 L 15.296875 34.96875 Z M 23.9375 40.917969 C 23.867188 41.027344 23.769531 41.117188 23.65625 41.183594 C 23.617188 41.207031 23.574219 41.226562 23.53125 41.242188 L 23.894531 41.445312 L 24.316406 41.207031 C 24.273438 41.191406 24.230469 41.171875 24.191406 41.148438 C 24.089844 41.089844 24.003906 41.011719 23.9375 40.917969 M 24.660156 3.847656 C 24.183594 3.578125 23.601562 3.578125 23.128906 3.847656 L 7.050781 12.953125 C 6.5625 13.230469 6.261719 13.746094 6.261719 14.308594 L 6.261719 32.519531 C 6.261719 33.082031 6.5625 33.601562 7.050781 33.875 L 23.128906 42.984375 C 23.601562 43.25 24.183594 43.25 24.660156 42.984375 L 40.734375 33.875 C 41.222656 33.601562 41.523438 33.082031 41.523438 32.519531 L 41.523438 14.308594 C 41.523438 13.746094 41.222656 13.230469 40.734375 12.953125 Z M 24.660156 3.847656 " fill-opacity="1" fill-rule="evenodd"/></g><path fill="#ffffff" d="M 24.230469 4.953125 C 24.023438 4.835938 23.765625 4.835938 23.554688 4.953125 L 7.789062 13.886719 C 7.570312 14.007812 7.4375 14.234375 7.4375 14.484375 L 7.4375 32.347656 C 7.4375 32.59375 7.570312 32.824219 7.789062 32.945312 L 23.554688 41.875 C 23.765625 41.996094 24.023438 41.996094 24.230469 41.875 L 40 32.945312 C 40.214844 32.824219 40.347656 32.59375 40.347656 32.347656 L 40.347656 14.484375 C 40.347656 14.234375 40.214844 14.007812 40 13.886719 Z M 24.230469 4.953125 " fill-opacity="1" fill-rule="evenodd"/><path fill="#282211" d="M 10.527344 14.519531 L 18.53125 9.988281 C 18.53125 9.988281 14.347656 13.371094 13.171875 14.730469 Z M 23.914062 7.492188 C 23.621094 10.046875 19.800781 13.359375 19.957031 16.789062 L 15.910156 16.746094 C 17.769531 14.59375 22.5 9.113281 23.90625 7.484375 Z M 9.246094 14.027344 C 9.085938 14.121094 8.984375 14.289062 8.976562 14.472656 C 8.972656 14.660156 9.066406 14.835938 9.21875 14.933594 L 12.964844 17.359375 C 13.1875 17.503906 13.480469 17.460938 13.652344 17.261719 L 21.328125 8.367188 C 21.496094 8.171875 21.5 7.886719 21.335938 7.6875 C 21.171875 7.488281 20.890625 7.433594 20.667969 7.5625 Z M 9.339844 24.96875 L 9.339844 16.648438 C 9.339844 16.648438 10.066406 18.363281 10.847656 18.867188 Z M 8.28125 27.828125 C 8.28125 28.085938 8.464844 28.304688 8.714844 28.351562 C 8.964844 28.398438 9.214844 28.257812 9.304688 28.019531 L 13.035156 18.28125 C 13.125 18.046875 13.039062 17.78125 12.828125 17.644531 L 9.097656 15.230469 C 8.9375 15.125 8.730469 15.117188 8.558594 15.210938 C 8.386719 15.304688 8.28125 15.480469 8.28125 15.675781 Z M 13.75 20.253906 C 14.257812 21.074219 13.636719 24.929688 15.308594 27.625 C 17.292969 30.828125 21.566406 32.867188 21.566406 32.867188 C 21.566406 32.867188 12.179688 31.492188 9.589844 31.113281 Z M 25.757812 35.398438 L 25.140625 35.488281 L 25.140625 38.480469 C 25.46875 37.507812 25.664062 36.484375 25.757812 35.398438 M 16.941406 34.488281 C 17 34.527344 17.054688 34.5625 17.101562 34.601562 C 17.175781 34.660156 17.261719 34.695312 17.355469 34.710938 C 17.355469 34.710938 18.976562 35.292969 20.339844 35.496094 L 22.707031 39.207031 C 20.945312 38.210938 16.625 35.761719 13.863281 34.199219 L 16.542969 34.589844 C 16.6875 34.613281 16.832031 34.570312 16.941406 34.488281 M 23.671875 41.332031 L 8.046875 32.484375 C 8 32.457031 7.96875 32.402344 7.96875 32.347656 L 7.96875 14.484375 C 7.96875 14.425781 8 14.375 8.046875 14.347656 L 23.816406 5.414062 C 23.863281 5.386719 23.921875 5.386719 23.96875 5.414062 L 24.171875 5.53125 C 24.140625 5.734375 24.109375 5.949219 24.082031 6.171875 C 24.023438 6.152344 23.964844 6.140625 23.90625 6.140625 C 23.753906 6.140625 23.605469 6.207031 23.503906 6.324219 L 14.355469 16.929688 C 14.21875 17.085938 14.1875 17.308594 14.273438 17.496094 C 14.359375 17.683594 14.546875 17.804688 14.753906 17.804688 L 23.609375 17.804688 C 23.617188 17.910156 23.625 18.015625 23.632812 18.121094 L 14.992188 18.121094 C 14.800781 18.121094 14.621094 18.222656 14.527344 18.390625 C 14.4375 18.558594 14.441406 18.765625 14.542969 18.929688 L 18.042969 24.574219 C 17.972656 24.632812 17.886719 24.707031 17.800781 24.78125 C 16.835938 23.222656 14.085938 18.789062 14.085938 18.789062 C 13.980469 18.617188 13.785156 18.523438 13.585938 18.542969 C 13.386719 18.558594 13.214844 18.691406 13.140625 18.878906 L 8.367188 31.351562 C 8.308594 31.5 8.324219 31.667969 8.402344 31.808594 C 8.484375 31.949219 8.625 32.042969 8.785156 32.066406 L 15.472656 33.046875 C 15.4375 33.082031 15.40625 33.121094 15.378906 33.167969 C 15.347656 33.222656 15.328125 33.28125 15.320312 33.339844 L 11.214844 32.738281 C 10.960938 32.703125 10.71875 32.851562 10.636719 33.089844 C 10.554688 33.332031 10.65625 33.597656 10.878906 33.726562 L 22.976562 40.578125 C 23.140625 40.671875 23.339844 40.667969 23.503906 40.574219 C 23.667969 40.480469 23.765625 40.304688 23.765625 40.117188 L 23.765625 35.035156 C 23.765625 34.773438 23.574219 34.550781 23.3125 34.511719 C 23.3125 34.511719 18.503906 33.808594 17.640625 33.679688 C 17.445312 33.542969 17.195312 33.398438 16.863281 33.25 L 22.539062 34.082031 C 22.742188 34.109375 22.945312 34.019531 23.058594 33.847656 C 23.171875 33.675781 23.175781 33.453125 23.066406 33.277344 L 18.484375 25.886719 C 18.546875 25.789062 18.613281 25.6875 18.671875 25.589844 L 23.585938 33.519531 C 23.679688 33.675781 23.851562 33.769531 24.035156 33.769531 C 24.21875 33.769531 24.386719 33.675781 24.484375 33.519531 L 25.707031 31.542969 C 25.722656 31.71875 25.738281 31.894531 25.75 32.070312 L 25.027344 33.234375 C 24.917969 33.410156 24.921875 33.632812 25.035156 33.804688 C 25.148438 33.980469 25.351562 34.070312 25.554688 34.039062 L 25.820312 34 C 25.816406 34.109375 25.816406 34.214844 25.8125 34.320312 L 24.53125 34.507812 C 24.273438 34.546875 24.082031 34.769531 24.082031 35.03125 L 24.082031 40.082031 C 24.082031 40.226562 24.136719 40.359375 24.238281 40.460938 C 24.066406 40.753906 23.875 41.046875 23.671875 41.332031 " fill-opacity="1" fill-rule="evenodd"/><path fill="#282211" d="M 21.558594 27.050781 L 21.558594 20.851562 L 20.578125 21.039062 L 20.578125 20.042969 L 22.605469 19.671875 L 22.605469 27.050781 Z M 21.558594 27.050781 " fill-opacity="1" fill-rule="nonzero"/><path fill="#282211" d="M 25.246094 22.640625 C 25.246094 22.894531 25.300781 23.046875 25.410156 23.09375 C 25.464844 23.121094 25.558594 23.132812 25.6875 23.132812 C 25.71875 23.132812 25.753906 23.128906 25.789062 23.128906 C 26.035156 23.121094 26.160156 22.957031 26.160156 22.640625 L 26.160156 21.195312 C 26.160156 20.863281 26.007812 20.699219 25.703125 20.699219 C 25.398438 20.699219 25.246094 20.863281 25.246094 21.195312 Z M 26.160156 23.867188 C 25.960938 24.046875 25.714844 24.136719 25.425781 24.136719 C 25.378906 24.136719 25.332031 24.132812 25.277344 24.128906 C 24.945312 24.09375 24.679688 23.972656 24.492188 23.769531 C 24.296875 23.554688 24.199219 23.179688 24.199219 22.640625 L 24.199219 21.195312 C 24.199219 20.175781 24.699219 19.664062 25.703125 19.664062 C 26.707031 19.664062 27.207031 20.171875 27.207031 21.195312 L 27.207031 25.640625 C 27.207031 26.65625 26.707031 27.167969 25.699219 27.167969 C 24.699219 27.167969 24.199219 26.65625 24.199219 25.640625 L 24.199219 24.660156 L 25.246094 24.660156 L 25.246094 25.640625 C 25.246094 25.964844 25.398438 26.128906 25.699219 26.132812 L 25.707031 26.132812 C 26.007812 26.132812 26.160156 25.96875 26.160156 25.640625 Z M 26.160156 23.867188 " fill-opacity="1" fill-rule="nonzero"/><path fill="#282211" d="M 9.507812 14.488281 L 13.25 16.914062 L 20.925781 8.023438 Z M 34.558594 16.914062 L 38.292969 14.496094 L 26.910156 8.050781 Z M 14.753906 17.273438 L 33.058594 17.273438 L 23.90625 6.671875 Z M 35.269531 18.089844 L 38.976562 27.765625 L 38.976562 15.691406 Z M 8.8125 27.828125 L 12.539062 18.089844 L 8.8125 15.675781 Z M 30.253906 23.203125 L 33.078125 18.648438 L 14.992188 18.648438 L 24.035156 33.238281 L 30.105469 23.441406 C 29.871094 22.992188 29.761719 22.699219 29.761719 22.699219 C 29.945312 22.875 30.109375 23.042969 30.253906 23.203125 M 31.140625 24.378906 C 31.574219 25.128906 31.558594 25.554688 31.558594 25.554688 C 31.011719 24.9375 30.605469 24.328125 30.316406 23.828125 C 30.425781 24.433594 30.574219 24.824219 30.753906 24.996094 L 25.476562 33.515625 L 38.953125 31.539062 L 34.273438 19.324219 Z M 17.558594 25.398438 L 13.636719 19.070312 L 8.859375 31.539062 L 22.617188 33.558594 L 17.851562 25.867188 C 18.035156 25.675781 18.4375 24.9375 18.4375 24.9375 L 18.429688 24.941406 C 17.464844 26.296875 16.25 26.890625 16.25 26.890625 C 16.65625 26.183594 17.144531 25.707031 17.558594 25.398438 M 24.609375 35.03125 L 24.609375 40.082031 L 36.640625 33.269531 Z M 16.289062 34.019531 L 11.136719 33.261719 L 23.238281 40.117188 L 23.238281 35.035156 L 17.429688 34.1875 C 17.203125 34.007812 16.859375 33.808594 16.351562 33.609375 C 17.328125 34.335938 18.21875 35.242188 18.21875 35.242188 C 17.566406 34.972656 16.871094 34.488281 16.289062 34.019531 M 24.230469 4.953125 C 24.019531 4.835938 23.765625 4.835938 23.554688 4.953125 L 7.789062 13.886719 C 7.570312 14.007812 7.4375 14.234375 7.4375 14.484375 L 7.4375 32.347656 C 7.4375 32.59375 7.570312 32.824219 7.789062 32.945312 L 23.554688 41.875 C 23.765625 41.996094 24.019531 41.996094 24.230469 41.875 L 40 32.945312 C 40.214844 32.824219 40.347656 32.59375 40.347656 32.347656 L 40.347656 14.484375 C 40.347656 14.234375 40.214844 14.007812 40 13.886719 Z M 24.230469 4.953125 " fill-opacity="1" fill-rule="evenodd"/></svg>