<svg xmlns="http://www.w3.org/2000/svg" xmlns:xlink="http://www.w3.org/1999/xlink" width="64" zoomAndPan="magnify" viewBox="0 0 48 48" height="64" preserveAspectRatio="xMidYMid meet" version="1.0"><defs><clipPath id="2c6e1e0dd0"><path d="M 5.191406 3.4375 L 42.660156 3.4375 L 42.660156 43.847656 L 5.191406 43.847656 Z M 5.191406 3.4375 " clip-rule="nonzero"/></clipPath></defs><g clip-path="url(#2c6e1e0dd0)"><path fill="#000000" d="M 22.832031 3.589844 C 22.078125 3.761719 21.722656 3.9375 16.921875 6.460938 C 12.953125 8.546875 11.621094 9.246094 10.398438 9.878906 C 7.132812 11.5625 7.015625 11.632812 6.46875 12.191406 C 5.875 12.785156 5.574219 13.308594 5.378906 14.097656 C 5.246094 14.613281 5.242188 14.890625 5.242188 23.539062 C 5.242188 33.328125 5.226562 32.875 5.65625 33.75 C 5.984375 34.40625 6.347656 34.910156 6.730469 35.226562 C 7.152344 35.585938 7.789062 35.9375 11.695312 37.953125 C 13.390625 38.832031 15.324219 39.832031 16 40.191406 C 21.96875 43.3125 22.507812 43.582031 23.171875 43.710938 C 23.835938 43.835938 24.382812 43.792969 25.113281 43.554688 C 25.714844 43.359375 27.945312 42.253906 30.480469 40.910156 C 31.457031 40.390625 32.703125 39.742188 33.246094 39.464844 C 33.792969 39.183594 34.578125 38.78125 34.988281 38.5625 C 36.019531 38.015625 37.183594 37.410156 38.953125 36.484375 C 40.734375 35.558594 40.824219 35.503906 41.320312 35.046875 C 41.792969 34.613281 42.210938 33.976562 42.449219 33.308594 L 42.640625 32.796875 L 42.640625 23.582031 C 42.640625 14.828125 42.632812 14.347656 42.519531 13.953125 C 42.230469 13.027344 41.675781 12.261719 40.917969 11.765625 C 40.667969 11.589844 38.625 10.515625 36.390625 9.363281 C 34.15625 8.214844 31.746094 6.972656 31.027344 6.601562 C 24.914062 3.433594 25.199219 3.554688 24.027344 3.523438 C 23.515625 3.507812 23.097656 3.527344 22.832031 3.589844 Z M 25.011719 7.429688 C 26.421875 7.980469 26.609375 9.425781 25.351562 10.101562 C 24.375 10.625 22.859375 10.652344 21.914062 10.164062 C 21.613281 10.003906 21.238281 9.652344 21.117188 9.425781 C 20.992188 9.183594 20.992188 8.664062 21.109375 8.375 C 21.210938 8.125 21.648438 7.703125 21.96875 7.53125 C 22.644531 7.1875 24.246094 7.125 25.011719 7.429688 Z M 30.933594 11.265625 C 32.96875 11.742188 33.007812 13.710938 30.992188 14.261719 C 30.550781 14.386719 30.40625 14.402344 29.796875 14.402344 C 28.136719 14.40625 26.996094 13.433594 27.402344 12.363281 C 27.648438 11.730469 28.363281 11.316406 29.558594 11.128906 C 29.820312 11.085938 30.425781 11.148438 30.933594 11.265625 Z M 10.507812 14.144531 C 11.578125 14.675781 15.234375 16.5625 16.957031 17.464844 C 17.480469 17.75 18.894531 18.480469 20.097656 19.09375 C 21.300781 19.714844 22.453125 20.324219 22.660156 20.449219 C 23.226562 20.785156 23.652344 21.289062 23.820312 21.820312 L 23.910156 22.097656 L 24 21.835938 C 24.121094 21.476562 24.449219 21.019531 24.8125 20.695312 C 25.195312 20.359375 26.019531 19.921875 32.871094 16.4375 C 38.152344 13.753906 38.425781 13.621094 38.855469 13.59375 C 39.210938 13.566406 39.367188 13.585938 39.613281 13.695312 C 39.957031 13.847656 40.242188 14.1875 40.316406 14.519531 C 40.351562 14.703125 40.339844 14.738281 40.203125 14.78125 C 40.058594 14.828125 36.757812 16.484375 29.15625 20.351562 C 26.820312 21.53125 26.183594 21.890625 25.890625 22.160156 C 25.414062 22.59375 25.160156 22.976562 24.988281 23.5 C 24.847656 23.921875 24.847656 24.023438 24.847656 31.785156 C 24.847656 38.769531 24.832031 39.679688 24.738281 39.964844 C 24.605469 40.34375 24.238281 40.703125 23.972656 40.703125 C 23.683594 40.703125 23.351562 40.453125 23.207031 40.128906 C 23.078125 39.847656 23.070312 39.582031 23.070312 32.003906 C 23.070312 23.445312 23.082031 23.769531 22.679688 23.007812 C 22.277344 22.277344 22.058594 22.140625 17.84375 19.992188 C 11.375 16.707031 7.527344 14.726562 7.507812 14.664062 C 7.453125 14.53125 7.796875 13.980469 8.015625 13.84375 C 8.363281 13.628906 8.582031 13.574219 9.039062 13.601562 C 9.386719 13.621094 9.605469 13.703125 10.507812 14.144531 Z M 10.144531 18.964844 C 10.808594 19.246094 11.730469 20.40625 11.96875 21.242188 C 12.140625 21.84375 12.148438 22.769531 11.976562 23.113281 C 11.777344 23.519531 11.578125 23.617188 10.910156 23.617188 C 10.398438 23.617188 10.289062 23.597656 9.96875 23.417969 C 8.921875 22.828125 8.074219 21.25 8.210938 20.128906 C 8.347656 18.972656 9.105469 18.507812 10.144531 18.964844 Z M 38.863281 18.820312 C 39.5 19 39.777344 19.523438 39.71875 20.425781 C 39.636719 21.691406 38.847656 22.953125 37.832031 23.457031 C 37.585938 23.582031 37.402344 23.617188 36.992188 23.617188 C 36.398438 23.617188 36.171875 23.5 35.964844 23.09375 C 35.789062 22.753906 35.804688 21.78125 35.980469 21.242188 C 36.371094 20.070312 37.320312 19.039062 38.214844 18.824219 C 38.570312 18.742188 38.578125 18.742188 38.863281 18.820312 Z M 18.425781 23.273438 C 19.109375 23.625 19.886719 24.578125 20.152344 25.382812 C 20.316406 25.875 20.363281 26.476562 20.269531 26.929688 C 20.160156 27.449219 20.042969 27.628906 19.695312 27.808594 C 19.347656 27.988281 18.746094 27.953125 18.253906 27.71875 C 17.503906 27.367188 16.71875 26.28125 16.519531 25.320312 C 16.171875 23.628906 17.125 22.609375 18.425781 23.273438 Z M 30.71875 23.167969 C 30.863281 23.242188 31.046875 23.394531 31.125 23.507812 C 31.601562 24.183594 31.382812 25.605469 30.660156 26.578125 C 30.011719 27.441406 29.46875 27.800781 28.765625 27.847656 C 27.917969 27.902344 27.523438 27.460938 27.515625 26.445312 C 27.511719 25.902344 27.621094 25.417969 27.851562 24.964844 C 28.582031 23.507812 29.847656 22.71875 30.71875 23.167969 Z M 35.015625 26.121094 C 35.113281 26.191406 35.269531 26.390625 35.367188 26.558594 C 35.507812 26.8125 35.535156 26.945312 35.53125 27.414062 C 35.507812 28.40625 35.042969 29.375 34.203125 30.160156 C 33.480469 30.84375 32.605469 31.015625 32.058594 30.597656 C 31.589844 30.238281 31.492188 29.3125 31.808594 28.285156 C 32.078125 27.398438 32.953125 26.355469 33.671875 26.074219 C 34.117188 25.894531 34.742188 25.914062 35.015625 26.121094 Z M 10.253906 29.152344 C 10.992188 29.53125 11.769531 30.574219 12.015625 31.519531 C 12.324219 32.714844 12.03125 33.613281 11.265625 33.800781 C 10.519531 33.976562 9.75 33.578125 8.996094 32.632812 C 8.125 31.535156 7.960938 29.851562 8.65625 29.207031 C 9.03125 28.863281 9.652344 28.84375 10.253906 29.152344 Z M 39.226562 29.179688 C 39.527344 29.449219 39.585938 29.558594 39.667969 30.003906 C 39.832031 30.863281 39.382812 32.136719 38.625 32.949219 C 38.050781 33.5625 37.566406 33.8125 36.972656 33.8125 C 36.4375 33.8125 36.15625 33.675781 35.972656 33.300781 C 35.507812 32.378906 35.933594 30.816406 36.929688 29.789062 C 37.511719 29.195312 37.960938 28.964844 38.554688 28.964844 C 38.9375 28.964844 39.007812 28.988281 39.226562 29.179688 Z M 18.472656 33.496094 C 18.882812 33.695312 19.539062 34.371094 19.84375 34.910156 C 20.308594 35.746094 20.445312 36.914062 20.140625 37.539062 C 19.421875 39.046875 16.988281 37.742188 16.539062 35.601562 C 16.300781 34.433594 16.574219 33.613281 17.296875 33.351562 C 17.640625 33.226562 18 33.273438 18.472656 33.496094 Z M 30.78125 33.453125 C 31.425781 33.910156 31.511719 35.195312 30.992188 36.320312 C 30.121094 38.183594 28.136719 38.816406 27.605469 37.410156 C 27.460938 37.042969 27.503906 36.078125 27.675781 35.574219 C 28.027344 34.542969 28.863281 33.597656 29.65625 33.34375 C 30.015625 33.21875 30.535156 33.273438 30.78125 33.453125 Z M 30.78125 33.453125 " fill-opacity="1" fill-rule="nonzero"/></g></svg>