<svg xmlns="http://www.w3.org/2000/svg" xmlns:xlink="http://www.w3.org/1999/xlink" width="64" zoomAndPan="magnify" viewBox="0 0 48 48" height="64" preserveAspectRatio="xMidYMid meet" version="1.0"><defs><clipPath id="43c998aa71"><path d="M 8 4 L 40.957031 4 L 40.957031 43 L 8 43 Z M 8 4 " clip-rule="nonzero"/></clipPath><clipPath id="60abfbb346"><path d="M 7.160156 4 L 40.957031 4 L 40.957031 43 L 7.160156 43 Z M 7.160156 4 " clip-rule="nonzero"/></clipPath><clipPath id="0a357692a7"><path d="M 8 4 L 40.957031 4 L 40.957031 43 L 8 43 Z M 8 4 " clip-rule="nonzero"/></clipPath><clipPath id="625f172dde"><path d="M 7.160156 3.230469 L 40.957031 3.230469 L 40.957031 43.640625 L 7.160156 43.640625 Z M 7.160156 3.230469 " clip-rule="nonzero"/></clipPath><clipPath id="aacecda2d8"><path d="M 8 4 L 40.957031 4 L 40.957031 43 L 8 43 Z M 8 4 " clip-rule="nonzero"/></clipPath></defs><g clip-path="url(#43c998aa71)"><path fill="#282211" d="M 37.234375 16.921875 L 10.878906 16.921875 C 14.6875 13.789062 24.058594 6.089844 24.058594 6.089844 Z M 9.566406 20.210938 L 21.125 38.53125 L 9.566406 29.371094 Z M 38.550781 20.210938 L 38.550781 29.371094 C 38.550781 29.371094 31.402344 35.035156 26.992188 38.53125 Z M 10.160156 18.390625 L 24.058594 40.410156 L 37.953125 18.390625 Z M 8.3125 17.125 L 8.3125 17.128906 L 8.308594 17.128906 C 8.300781 17.136719 8.296875 17.140625 8.292969 17.148438 L 8.289062 17.152344 L 8.285156 17.152344 L 8.28125 17.15625 L 8.277344 17.164062 L 8.273438 17.164062 C 8.230469 17.210938 8.195312 17.261719 8.167969 17.316406 L 8.164062 17.328125 C 8.125 17.40625 8.097656 17.488281 8.089844 17.578125 C 8.089844 17.582031 8.089844 17.589844 8.085938 17.59375 C 8.085938 17.617188 8.085938 17.640625 8.085938 17.664062 L 8.085938 29.722656 C 8.085938 29.949219 8.1875 30.160156 8.363281 30.296875 L 23.59375 42.363281 C 23.59375 42.367188 23.597656 42.367188 23.601562 42.371094 L 23.605469 42.375 L 23.609375 42.375 C 23.660156 42.414062 23.714844 42.445312 23.769531 42.46875 C 23.839844 42.5 23.914062 42.515625 23.988281 42.523438 L 24 42.523438 L 24 42.527344 L 24.027344 42.527344 C 24.03125 42.527344 24.03125 42.527344 24.035156 42.527344 C 24.042969 42.527344 24.050781 42.527344 24.058594 42.527344 L 24.0625 42.527344 C 24.066406 42.527344 24.074219 42.527344 24.078125 42.527344 C 24.082031 42.527344 24.085938 42.527344 24.089844 42.527344 L 24.097656 42.527344 C 24.101562 42.527344 24.101562 42.527344 24.105469 42.527344 L 24.113281 42.527344 L 24.117188 42.523438 L 24.144531 42.523438 C 24.214844 42.515625 24.28125 42.496094 24.34375 42.46875 C 24.402344 42.445312 24.457031 42.414062 24.507812 42.375 L 24.511719 42.375 L 24.511719 42.371094 L 24.515625 42.371094 C 24.519531 42.367188 24.519531 42.367188 24.523438 42.363281 L 39.75 30.296875 C 39.929688 30.160156 40.03125 29.949219 40.03125 29.722656 L 40.03125 17.664062 C 40.03125 17.640625 40.03125 17.617188 40.027344 17.59375 C 40.027344 17.589844 40.027344 17.582031 40.027344 17.578125 C 40.015625 17.488281 39.992188 17.40625 39.953125 17.328125 L 39.949219 17.316406 C 39.917969 17.265625 39.886719 17.214844 39.84375 17.167969 L 39.824219 17.148438 C 39.820312 17.140625 39.8125 17.136719 39.808594 17.128906 L 39.804688 17.128906 L 39.800781 17.125 C 39.785156 17.109375 39.773438 17.097656 39.757812 17.085938 L 24.53125 4.570312 C 24.253906 4.347656 23.859375 4.347656 23.585938 4.570312 L 8.359375 17.085938 C 8.34375 17.097656 8.328125 17.109375 8.3125 17.125 Z M 8.3125 17.125 " fill-opacity="1" fill-rule="evenodd"/></g><g clip-path="url(#60abfbb346)"><path stroke-linecap="butt" transform="matrix(0.00827216, 0, 0, 0.00821093, 3.377201, 2.937624)" fill="none" stroke-linejoin="round" d="M 4092.90511 1703.126435 L 906.861475 1703.126435 C 1367.272405 1321.584677 2500.119401 383.90537 2500.119401 383.90537 Z M 748.196785 2103.697707 L 2145.484931 4334.908235 L 748.196785 3219.302971 Z M 4252.042016 2103.697707 L 4252.042016 3219.302971 C 4252.042016 3219.302971 3387.886117 3909.122857 2854.753871 4334.908235 Z M 819.973668 1882.003868 L 2500.119401 4563.738142 L 4179.792917 1882.003868 Z M 596.61534 1727.864803 L 596.61534 1728.340541 L 596.143124 1728.340541 C 595.198691 1729.292017 594.726475 1729.767755 594.254259 1730.719231 L 593.782042 1731.194968 L 593.309826 1731.194968 L 592.83761 1731.670706 L 592.365393 1732.622182 L 591.893177 1732.622182 C 586.698797 1738.331036 582.44885 1744.515628 579.143336 1751.175958 L 578.67112 1752.603172 C 573.948956 1762.117929 570.643442 1772.108424 569.699009 1783.050394 C 569.699009 1783.526132 569.699009 1784.477608 569.226793 1784.953346 C 569.226793 1787.807773 569.226793 1790.6622 569.226793 1793.516627 L 569.226793 3262.119378 C 569.226793 3289.712173 581.504418 3315.402017 602.754153 3332.052842 L 2443.925656 4801.607069 C 2443.925656 4802.082807 2444.397873 4802.082807 2444.870089 4802.558544 L 2445.342305 4803.034282 L 2445.814522 4803.034282 C 2451.953334 4807.791661 2458.564363 4811.597564 2465.175392 4814.451991 C 2473.675286 4818.257894 2482.647396 4820.160845 2491.619507 4821.112321 L 2493.036156 4821.112321 L 2493.036156 4821.588058 L 2496.34167 4821.588058 C 2496.813886 4821.588058 2496.813886 4821.588058 2497.286103 4821.588058 C 2498.230535 4821.588058 2499.174968 4821.588058 2500.119401 4821.588058 L 2500.591617 4821.588058 C 2501.063833 4821.588058 2502.008266 4821.588058 2502.480482 4821.588058 C 2502.952699 4821.588058 2503.424915 4821.588058 2503.897131 4821.588058 L 2504.841564 4821.588058 C 2505.31378 4821.588058 2505.31378 4821.588058 2505.785997 4821.588058 L 2506.730429 4821.588058 L 2507.202646 4821.112321 L 2510.50816 4821.112321 C 2519.008054 4820.160845 2527.035732 4817.782156 2534.591193 4814.451991 C 2541.674438 4811.597564 2548.285467 4807.791661 2554.42428 4803.034282 L 2554.896496 4803.034282 L 2554.896496 4802.558544 L 2555.368712 4802.558544 C 2555.840929 4802.082807 2555.840929 4802.082807 2556.313145 4801.607069 L 4397.012432 3332.052842 C 4418.734384 3315.402017 4431.012009 3289.712173 4431.012009 3262.119378 L 4431.012009 1793.516627 C 4431.012009 1790.6622 4431.012009 1787.807773 4430.539792 1784.953346 C 4430.539792 1784.477608 4430.539792 1783.526132 4430.539792 1783.050394 C 4429.123143 1772.108424 4426.289845 1762.117929 4421.567682 1752.603172 L 4421.095466 1751.175958 C 4417.317735 1744.991366 4413.540004 1738.806774 4408.345624 1733.09792 L 4405.984543 1730.719231 C 4405.512326 1729.767755 4404.567894 1729.292017 4404.095677 1728.340541 L 4403.623461 1728.340541 L 4403.151245 1727.864803 C 4401.262379 1725.961852 4399.84573 1724.534638 4397.956865 1723.107425 L 2557.257578 198.843345 C 2523.730218 171.726288 2476.036367 171.726288 2442.981224 198.843345 L 602.281936 1723.107425 C 600.393071 1724.534638 598.504206 1725.961852 596.61534 1727.864803 Z M 596.61534 1727.864803 " stroke="#ffffff" stroke-width="22.49" stroke-opacity="1" stroke-miterlimit="10"/></g><g clip-path="url(#0a357692a7)"><path fill="#ffffff" d="M 8.3125 17.125 L 8.308594 17.128906 C 8.300781 17.136719 8.296875 17.140625 8.289062 17.148438 L 8.277344 17.164062 L 8.273438 17.164062 C 8.230469 17.210938 8.195312 17.261719 8.167969 17.316406 L 8.164062 17.328125 C 8.125 17.40625 8.097656 17.488281 8.089844 17.578125 L 8.085938 17.59375 C 8.085938 17.617188 8.085938 17.640625 8.085938 17.664062 L 8.085938 29.722656 C 8.085938 29.949219 8.1875 30.160156 8.363281 30.296875 L 23.59375 42.363281 L 23.605469 42.375 C 23.660156 42.414062 23.714844 42.445312 23.769531 42.46875 C 23.839844 42.5 23.914062 42.515625 23.984375 42.523438 L 24.003906 42.527344 L 24.035156 42.527344 C 24.042969 42.527344 24.050781 42.527344 24.058594 42.527344 L 24.097656 42.527344 L 24.117188 42.523438 L 24.144531 42.523438 C 24.214844 42.515625 24.28125 42.496094 24.34375 42.46875 C 24.402344 42.445312 24.457031 42.414062 24.507812 42.375 L 24.515625 42.371094 C 24.519531 42.367188 24.519531 42.367188 24.523438 42.363281 L 39.75 30.296875 C 39.925781 30.160156 40.03125 29.949219 40.03125 29.722656 L 40.03125 17.664062 C 40.03125 17.640625 40.03125 17.617188 40.027344 17.59375 L 40.027344 17.578125 C 40.015625 17.488281 39.992188 17.40625 39.953125 17.328125 L 39.945312 17.316406 C 39.917969 17.265625 39.886719 17.214844 39.84375 17.167969 L 39.824219 17.148438 C 39.820312 17.140625 39.8125 17.136719 39.808594 17.128906 L 39.800781 17.125 C 39.785156 17.109375 39.773438 17.097656 39.757812 17.085938 L 24.53125 4.570312 C 24.253906 4.347656 23.859375 4.347656 23.585938 4.570312 L 8.359375 17.085938 C 8.34375 17.097656 8.328125 17.109375 8.3125 17.125 " fill-opacity="1" fill-rule="evenodd"/></g><g clip-path="url(#625f172dde)"><path fill="#ffffff" d="M 7.402344 16.757812 L 7.394531 16.761719 C 7.390625 16.769531 7.382812 16.777344 7.378906 16.78125 L 7.359375 16.800781 C 7.316406 16.847656 7.277344 16.902344 7.246094 16.960938 L 7.242188 16.972656 C 7.203125 17.054688 7.175781 17.144531 7.164062 17.238281 L 7.164062 17.253906 C 7.160156 17.28125 7.160156 17.304688 7.160156 17.328125 L 7.160156 30.085938 C 7.160156 30.324219 7.269531 30.546875 7.453125 30.695312 L 23.566406 43.460938 L 23.582031 43.472656 C 23.636719 43.511719 23.691406 43.546875 23.753906 43.570312 C 23.828125 43.601562 23.90625 43.621094 23.980469 43.628906 L 24.019531 43.628906 L 24.035156 43.632812 C 24.042969 43.632812 24.050781 43.632812 24.058594 43.632812 L 24.082031 43.632812 L 24.101562 43.628906 L 24.140625 43.628906 L 24.152344 43.625 C 24.222656 43.617188 24.292969 43.597656 24.359375 43.570312 C 24.421875 43.546875 24.480469 43.511719 24.535156 43.472656 L 24.542969 43.464844 C 24.542969 43.464844 24.546875 43.460938 24.546875 43.460938 L 40.660156 30.695312 C 40.847656 30.546875 40.957031 30.324219 40.957031 30.085938 L 40.957031 17.328125 C 40.957031 17.304688 40.953125 17.28125 40.953125 17.253906 L 40.949219 17.238281 C 40.941406 17.144531 40.914062 17.054688 40.871094 16.972656 L 40.867188 16.960938 C 40.839844 16.90625 40.800781 16.851562 40.757812 16.804688 L 40.746094 16.789062 L 40.738281 16.78125 C 40.730469 16.777344 40.726562 16.769531 40.71875 16.761719 L 40.714844 16.757812 C 40.699219 16.742188 40.683594 16.730469 40.664062 16.714844 L 24.558594 3.476562 C 24.265625 3.238281 23.847656 3.238281 23.558594 3.476562 L 7.449219 16.714844 C 7.433594 16.730469 7.417969 16.742188 7.402344 16.757812 " fill-opacity="1" fill-rule="evenodd"/></g><g clip-path="url(#aacecda2d8)"><path fill="#000000" d="M 37.234375 16.921875 L 10.878906 16.921875 C 14.6875 13.789062 24.058594 6.089844 24.058594 6.089844 Z M 9.566406 20.210938 L 21.125 38.53125 L 9.566406 29.371094 Z M 38.550781 20.210938 L 38.550781 29.371094 C 38.550781 29.371094 31.402344 35.035156 26.992188 38.53125 Z M 10.160156 18.390625 L 24.058594 40.410156 L 37.953125 18.390625 Z M 8.3125 17.125 L 8.3125 17.128906 L 8.308594 17.128906 C 8.300781 17.136719 8.296875 17.140625 8.292969 17.148438 L 8.289062 17.152344 L 8.285156 17.152344 L 8.28125 17.15625 L 8.277344 17.164062 L 8.273438 17.164062 C 8.230469 17.210938 8.195312 17.261719 8.167969 17.316406 L 8.164062 17.328125 C 8.125 17.40625 8.097656 17.488281 8.089844 17.578125 C 8.089844 17.582031 8.089844 17.589844 8.085938 17.59375 C 8.085938 17.617188 8.085938 17.640625 8.085938 17.664062 L 8.085938 29.722656 C 8.085938 29.949219 8.1875 30.160156 8.363281 30.296875 L 23.59375 42.363281 C 23.59375 42.367188 23.597656 42.367188 23.601562 42.371094 L 23.605469 42.375 L 23.609375 42.375 C 23.660156 42.414062 23.714844 42.445312 23.769531 42.46875 C 23.839844 42.5 23.914062 42.515625 23.988281 42.523438 L 24 42.523438 L 24 42.527344 L 24.027344 42.527344 C 24.03125 42.527344 24.03125 42.527344 24.035156 42.527344 C 24.042969 42.527344 24.050781 42.527344 24.058594 42.527344 L 24.0625 42.527344 C 24.066406 42.527344 24.074219 42.527344 24.078125 42.527344 C 24.082031 42.527344 24.085938 42.527344 24.089844 42.527344 L 24.097656 42.527344 C 24.101562 42.527344 24.101562 42.527344 24.105469 42.527344 L 24.113281 42.527344 L 24.117188 42.523438 L 24.144531 42.523438 C 24.214844 42.515625 24.28125 42.496094 24.34375 42.46875 C 24.402344 42.445312 24.457031 42.414062 24.507812 42.375 L 24.511719 42.375 L 24.511719 42.371094 L 24.515625 42.371094 C 24.519531 42.367188 24.519531 42.367188 24.523438 42.363281 L 39.75 30.296875 C 39.929688 30.160156 40.03125 29.949219 40.03125 29.722656 L 40.03125 17.664062 C 40.03125 17.640625 40.03125 17.617188 40.027344 17.59375 C 40.027344 17.589844 40.027344 17.582031 40.027344 17.578125 C 40.015625 17.488281 39.992188 17.40625 39.953125 17.328125 L 39.949219 17.316406 C 39.917969 17.265625 39.886719 17.214844 39.84375 17.167969 L 39.824219 17.148438 C 39.820312 17.140625 39.8125 17.136719 39.808594 17.128906 L 39.804688 17.128906 L 39.800781 17.125 C 39.785156 17.109375 39.773438 17.097656 39.757812 17.085938 L 24.53125 4.570312 C 24.253906 4.347656 23.859375 4.347656 23.585938 4.570312 L 8.359375 17.085938 C 8.34375 17.097656 8.328125 17.109375 8.3125 17.125 " fill-opacity="1" fill-rule="evenodd"/></g><path fill="#000000" d="M 37.90625 28.554688 L 37.875 22.292969 L 29.703125 35.628906 C 29.703125 35.628906 35.585938 27.484375 36.371094 27.324219 C 37.15625 27.160156 37.90625 28.554688 37.90625 28.554688 Z M 37.90625 28.554688 " fill-opacity="1" fill-rule="evenodd"/><path fill="#000000" d="M 18.976562 36.074219 L 9.957031 21.800781 L 10.160156 28.617188 C 10.160156 28.617188 11.421875 26.960938 12.925781 28.332031 C 14.425781 29.703125 18.976562 36.074219 18.976562 36.074219 Z M 18.976562 36.074219 " fill-opacity="1" fill-rule="evenodd"/><path fill="#000000" d="M 14.492188 24.273438 L 10.90625 18.792969 L 36.808594 18.792969 L 33.46875 24.59375 C 33.46875 24.59375 34.394531 21.992188 33.585938 20.714844 C 32.78125 19.433594 15.082031 19.425781 14.398438 20.382812 C 13.714844 21.34375 14.492188 24.273438 14.492188 24.273438 Z M 14.492188 24.273438 " fill-opacity="1" fill-rule="evenodd"/><path fill="#000000" d="M 20.027344 32.742188 L 23.941406 39.050781 L 28.285156 32.308594 C 28.285156 32.308594 25.792969 35.488281 24.1875 35.484375 C 22.253906 35.480469 20.027344 32.742188 20.027344 32.742188 Z M 20.027344 32.742188 " fill-opacity="1" fill-rule="evenodd"/><path fill="#000000" d="M 19.347656 10.464844 L 12.019531 16.460938 L 35.707031 16.394531 L 29.210938 10.703125 L 31.296875 14.738281 L 16.1875 14.84375 Z M 19.347656 10.464844 " fill-opacity="1" fill-rule="evenodd"/><path fill="#000000" d="M 24.015625 20.820312 C 25.683594 20.820312 26.515625 21.660156 26.515625 23.332031 L 26.515625 25.410156 C 26.515625 26.191406 26.199219 26.746094 25.5625 27.074219 C 26.199219 27.398438 26.515625 27.953125 26.515625 28.734375 L 26.515625 30.644531 C 26.515625 32.316406 25.683594 33.152344 24.015625 33.152344 C 22.351562 33.152344 21.519531 32.316406 21.519531 30.644531 L 21.519531 28.734375 C 21.519531 27.953125 21.835938 27.398438 22.472656 27.074219 C 21.835938 26.746094 21.519531 26.191406 21.519531 25.410156 L 21.519531 23.332031 C 21.519531 21.660156 22.351562 20.820312 24.015625 20.820312 Z M 24.023438 31.453125 C 24.527344 31.449219 24.777344 31.179688 24.777344 30.644531 L 24.777344 28.734375 C 24.777344 28.300781 24.6875 28.042969 24.503906 27.960938 C 24.402344 27.921875 24.253906 27.902344 24.046875 27.902344 L 23.988281 27.902344 C 23.78125 27.902344 23.632812 27.921875 23.53125 27.960938 C 23.347656 28.042969 23.257812 28.300781 23.257812 28.734375 L 23.257812 30.644531 C 23.257812 31.179688 23.507812 31.449219 24.011719 31.453125 Z M 24.183594 26.203125 C 24.347656 26.203125 24.46875 26.175781 24.550781 26.128906 C 24.703125 26.042969 24.777344 25.800781 24.777344 25.398438 L 24.777344 23.332031 C 24.777344 22.796875 24.527344 22.527344 24.023438 22.519531 L 24.011719 22.519531 C 23.507812 22.527344 23.257812 22.796875 23.257812 23.332031 L 23.257812 25.398438 C 23.257812 25.800781 23.332031 26.042969 23.484375 26.128906 C 23.566406 26.175781 23.6875 26.203125 23.851562 26.203125 Z M 24.183594 26.203125 " fill-opacity="1" fill-rule="nonzero"/></svg>