<svg xmlns="http://www.w3.org/2000/svg" xmlns:xlink="http://www.w3.org/1999/xlink" width="64" zoomAndPan="magnify" viewBox="0 0 48 48" height="64" preserveAspectRatio="xMidYMid meet" version="1.0"><defs><clipPath id="061b650e69"><path d="M 5.191406 4.703125 L 42.660156 4.703125 L 42.660156 42.171875 L 5.191406 42.171875 Z M 5.191406 4.703125 " clip-rule="nonzero"/></clipPath></defs><g clip-path="url(#061b650e69)"><path fill="#000000" d="M 38.371094 5.640625 C 37.121094 4.390625 34.945312 4.390625 33.695312 5.640625 L 7.964844 31.394531 C 7.847656 31.515625 7.761719 31.660156 7.71875 31.820312 L 5.226562 40.960938 C 5.132812 41.292969 5.230469 41.648438 5.472656 41.890625 C 5.65625 42.074219 5.898438 42.171875 6.152344 42.171875 C 6.234375 42.171875 6.320312 42.160156 6.402344 42.136719 L 15.535156 39.644531 C 15.695312 39.597656 15.839844 39.515625 15.960938 39.394531 L 41.691406 13.640625 C 42.316406 13.015625 42.660156 12.183594 42.660156 11.300781 C 42.660156 10.417969 42.316406 9.585938 41.691406 8.960938 L 38.375 5.636719 Z M 9.996094 32.074219 L 31.882812 10.167969 L 37.167969 15.457031 L 15.28125 37.363281 Z M 9.132812 33.921875 L 13.433594 38.230469 L 7.515625 39.84375 Z M 40.335938 12.289062 L 38.523438 14.101562 L 33.238281 8.8125 L 35.050781 6.996094 C 35.574219 6.472656 36.492188 6.472656 37.015625 6.996094 L 40.332031 10.320312 C 40.597656 10.582031 40.742188 10.929688 40.742188 11.304688 C 40.742188 11.675781 40.597656 12.023438 40.332031 12.289062 Z M 40.335938 12.289062 " fill-opacity="1" fill-rule="nonzero"/></g></svg>