<svg xmlns="http://www.w3.org/2000/svg" xmlns:xlink="http://www.w3.org/1999/xlink" width="64" zoomAndPan="magnify" viewBox="0 0 48 48" height="64" preserveAspectRatio="xMidYMid meet" version="1.0"><defs><clipPath id="53b80ff050"><path d="M 5.425781 4.703125 L 42.894531 4.703125 L 42.894531 42.171875 L 5.425781 42.171875 Z M 5.425781 4.703125 " clip-rule="nonzero"/></clipPath></defs><g clip-path="url(#53b80ff050)"><path fill="#000000" d="M 7.851562 41.804688 C 7.367188 41.613281 6.945312 41.332031 6.578125 40.964844 L 6.566406 40.953125 C 6.203125 40.585938 5.921875 40.164062 5.722656 39.6875 C 5.515625 39.210938 5.414062 38.710938 5.414062 38.1875 C 5.414062 37.671875 5.515625 37.179688 5.722656 36.703125 C 5.917969 36.226562 6.199219 35.804688 6.566406 35.4375 L 9.9375 32.082031 C 9.269531 31.304688 8.648438 30.492188 8.082031 29.640625 C 7.097656 28.136719 6.296875 26.546875 5.683594 24.859375 L 5.671875 24.835938 C 5.621094 24.703125 5.578125 24.570312 5.542969 24.433594 C 5.511719 24.339844 5.492188 24.246094 5.476562 24.148438 C 5.4375 23.925781 5.414062 23.695312 5.414062 23.464844 C 5.414062 23.234375 5.441406 23.007812 5.488281 22.78125 C 5.511719 22.636719 5.546875 22.496094 5.59375 22.355469 C 5.609375 22.277344 5.632812 22.199219 5.660156 22.121094 C 6.367188 20.128906 7.34375 18.273438 8.585938 16.550781 C 9.828125 14.828125 11.285156 13.3125 12.960938 11.996094 C 14.546875 10.75 16.296875 9.792969 18.210938 9.125 C 20.125 8.460938 22.097656 8.121094 24.125 8.109375 C 25.824219 8.121094 27.488281 8.363281 29.117188 8.832031 C 30.148438 9.140625 31.148438 9.527344 32.113281 9.996094 L 36.148438 5.976562 L 36.148438 5.992188 C 36.460938 5.667969 36.816406 5.410156 37.222656 5.214844 C 37.289062 5.191406 37.339844 5.152344 37.40625 5.125 C 37.765625 4.972656 38.140625 4.878906 38.53125 4.835938 C 38.921875 4.796875 39.3125 4.8125 39.695312 4.886719 C 40.082031 4.964844 40.445312 5.09375 40.792969 5.277344 C 41.136719 5.460938 41.449219 5.6875 41.722656 5.964844 C 42.484375 6.734375 42.867188 7.65625 42.867188 8.730469 C 42.867188 9.257812 42.761719 9.765625 42.554688 10.253906 C 42.378906 10.667969 42.136719 11.035156 41.828125 11.363281 C 41.789062 11.417969 41.746094 11.46875 41.699219 11.519531 L 38.328125 14.863281 C 39 15.636719 39.617188 16.449219 40.179688 17.304688 C 41.167969 18.804688 41.96875 20.398438 42.578125 22.082031 L 42.59375 22.109375 C 42.675781 22.328125 42.738281 22.550781 42.773438 22.78125 C 42.863281 23.242188 42.863281 23.703125 42.773438 24.164062 C 42.734375 24.390625 42.675781 24.617188 42.59375 24.835938 L 42.59375 24.820312 C 41.882812 26.816406 40.90625 28.671875 39.667969 30.394531 C 38.425781 32.113281 36.96875 33.632812 35.292969 34.949219 C 33.703125 36.195312 31.953125 37.152344 30.039062 37.820312 C 28.125 38.484375 26.15625 38.824219 24.125 38.835938 L 24.125 38.824219 C 22.425781 38.820312 20.761719 38.585938 19.132812 38.113281 C 18.109375 37.800781 17.113281 37.414062 16.148438 36.949219 L 12.128906 40.964844 L 12.117188 40.953125 L 12.117188 40.964844 C 11.75 41.328125 11.324219 41.609375 10.847656 41.804688 C 10.363281 42 9.863281 42.101562 9.339844 42.101562 C 8.824219 42.101562 8.328125 42 7.851562 41.804688 Z M 8.1875 39.351562 C 8.339844 39.503906 8.519531 39.621094 8.71875 39.707031 C 8.921875 39.789062 9.128906 39.828125 9.347656 39.828125 C 9.566406 39.828125 9.777344 39.789062 9.976562 39.707031 C 10.179688 39.621094 10.355469 39.503906 10.507812 39.351562 L 15.761719 34.121094 C 18.3125 35.730469 21.097656 36.542969 24.125 36.5625 C 31.234375 36.5625 37.640625 31.652344 40.453125 24.035156 C 40.519531 23.851562 40.554688 23.660156 40.558594 23.464844 C 40.554688 23.273438 40.519531 23.089844 40.453125 22.910156 C 39.335938 19.796875 37.5625 17.101562 35.136719 14.824219 L 40.078125 9.90625 C 40.320312 9.671875 40.476562 9.394531 40.546875 9.070312 C 40.617188 8.746094 40.589844 8.425781 40.464844 8.117188 C 40.339844 7.808594 40.136719 7.5625 39.859375 7.375 C 39.582031 7.1875 39.273438 7.089844 38.9375 7.089844 C 38.46875 7.089844 38.078125 7.257812 37.753906 7.59375 L 32.503906 12.824219 C 29.949219 11.210938 27.15625 10.398438 24.125 10.382812 C 17.019531 10.382812 10.613281 15.289062 7.8125 22.910156 C 7.738281 23.089844 7.703125 23.273438 7.707031 23.464844 C 7.703125 23.664062 7.738281 23.851562 7.8125 24.035156 C 8.925781 27.148438 10.699219 29.839844 13.128906 32.105469 L 8.1875 37.039062 C 8.035156 37.195312 7.914062 37.371094 7.832031 37.570312 C 7.75 37.769531 7.707031 37.980469 7.707031 38.195312 C 7.707031 38.414062 7.75 38.621094 7.832031 38.820312 C 7.914062 39.019531 8.035156 39.199219 8.1875 39.351562 Z M 37.160156 23.464844 C 34.722656 29.457031 29.664062 33.28125 24.125 33.28125 C 22 33.277344 20.011719 32.757812 18.160156 31.730469 L 20.820312 29.082031 C 21.832031 29.703125 22.933594 30.011719 24.125 30.015625 C 24.707031 30.011719 25.28125 29.9375 25.839844 29.785156 C 26.402344 29.636719 26.933594 29.414062 27.4375 29.125 C 27.9375 28.835938 28.394531 28.488281 28.804688 28.078125 C 29.210938 27.667969 29.558594 27.214844 29.847656 26.714844 C 30.132812 26.214844 30.347656 25.6875 30.492188 25.128906 C 30.636719 24.574219 30.707031 24.007812 30.699219 23.433594 C 30.695312 22.859375 30.609375 22.292969 30.453125 21.742188 C 30.292969 21.1875 30.066406 20.664062 29.765625 20.171875 L 32.777344 17.175781 C 34.722656 18.941406 36.183594 21.039062 37.160156 23.464844 Z M 20.960938 24.304688 C 20.882812 24.03125 20.84375 23.75 20.84375 23.464844 C 20.84375 23.035156 20.925781 22.621094 21.089844 22.21875 C 21.257812 21.820312 21.492188 21.46875 21.800781 21.160156 C 22.109375 20.855469 22.464844 20.617188 22.867188 20.453125 C 23.269531 20.285156 23.6875 20.199219 24.125 20.199219 C 24.414062 20.203125 24.695312 20.246094 24.96875 20.328125 Z M 27.289062 22.640625 C 27.363281 22.910156 27.410156 23.183594 27.417969 23.464844 C 27.421875 23.898438 27.339844 24.316406 27.171875 24.714844 C 27.003906 25.117188 26.769531 25.472656 26.460938 25.777344 C 26.152344 26.085938 25.792969 26.324219 25.390625 26.492188 C 24.984375 26.660156 24.5625 26.742188 24.125 26.746094 C 23.84375 26.734375 23.566406 26.691406 23.296875 26.617188 Z M 11.105469 23.464844 C 13.53125 17.484375 18.589844 13.648438 24.125 13.648438 C 26.25 13.664062 28.238281 14.1875 30.089844 15.210938 L 27.445312 17.859375 C 26.429688 17.242188 25.320312 16.933594 24.125 16.929688 C 23.546875 16.933594 22.972656 17.011719 22.414062 17.164062 C 21.855469 17.316406 21.324219 17.539062 20.824219 17.828125 C 20.324219 18.117188 19.867188 18.46875 19.460938 18.878906 C 19.054688 19.285156 18.707031 19.738281 18.421875 20.238281 C 18.132812 20.738281 17.917969 21.265625 17.773438 21.820312 C 17.628906 22.375 17.558594 22.941406 17.5625 23.515625 C 17.570312 24.085938 17.652344 24.652344 17.804688 25.203125 C 17.960938 25.753906 18.1875 26.277344 18.484375 26.773438 L 15.476562 29.769531 C 13.53125 27.996094 12.074219 25.894531 11.105469 23.464844 Z M 33.449219 21.359375 C 33.230469 21.035156 32.992188 20.726562 32.738281 20.429688 L 32.503906 20.664062 C 32.554688 20.816406 32.605469 20.984375 32.660156 21.140625 C 32.847656 21.824219 32.953125 22.523438 32.96875 23.234375 C 32.980469 23.308594 32.984375 23.386719 32.984375 23.464844 C 32.984375 24.796875 32.699219 26.066406 32.128906 27.277344 C 33.167969 26.132812 34.015625 24.863281 34.667969 23.464844 C 34.320312 22.730469 33.914062 22.03125 33.449219 21.359375 Z M 16.136719 19.667969 C 15.089844 20.808594 14.246094 22.078125 13.59375 23.480469 C 13.941406 24.214844 14.347656 24.917969 14.8125 25.582031 C 15.035156 25.894531 15.269531 26.214844 15.515625 26.515625 L 15.75 26.28125 C 15.695312 26.125 15.644531 25.957031 15.605469 25.804688 C 15.410156 25.121094 15.300781 24.421875 15.28125 23.710938 C 15.28125 23.632812 15.269531 23.554688 15.269531 23.464844 C 15.265625 22.136719 15.554688 20.871094 16.136719 19.667969 Z M 16.136719 19.667969 " fill-opacity="1" fill-rule="evenodd"/></g></svg>