<svg xmlns="http://www.w3.org/2000/svg" xmlns:xlink="http://www.w3.org/1999/xlink" width="64" zoomAndPan="magnify" viewBox="0 0 48 48" height="64" preserveAspectRatio="xMidYMid meet" version="1.0"><defs><clipPath id="bd22b66ebb"><path d="M 3.9375 4.703125 L 44.347656 4.703125 L 44.347656 31 L 3.9375 31 Z M 3.9375 4.703125 " clip-rule="nonzero"/></clipPath><clipPath id="674afcd83e"><path d="M 6 16 L 42 16 L 42 42.171875 L 6 42.171875 Z M 6 16 " clip-rule="nonzero"/></clipPath></defs><g clip-path="url(#bd22b66ebb)"><path fill="currentColor" d="M 23.929688 8.972656 C 23.945312 8.992188 23.972656 8.996094 23.992188 8.980469 C 23.996094 8.976562 24 8.976562 24 8.972656 C 26.46875 5.515625 30.921875 4.269531 35.03125 4.832031 C 39.320312 5.417969 42.652344 8.3125 43.65625 12.5625 C 44.527344 16.25 43.984375 19.710938 42.027344 22.949219 C 41.988281 23.011719 41.921875 23.046875 41.851562 23.046875 L 27.460938 23.046875 C 27.382812 23.046875 27.316406 22.996094 27.300781 22.921875 C 26.925781 21.300781 26.574219 19.910156 26.25 18.753906 C 26.117188 18.285156 25.40625 18.15625 25.277344 18.660156 C 24.207031 23 23.308594 26.796875 22.582031 30.054688 C 22.578125 30.070312 22.570312 30.082031 22.5625 30.078125 C 22.546875 30.078125 22.539062 30.078125 22.539062 30.078125 C 22.507812 30.101562 22.464844 30.09375 22.441406 30.0625 C 22.433594 30.054688 22.429688 30.042969 22.429688 30.03125 C 21.984375 27.289062 21.613281 25.117188 21.320312 23.515625 C 20.582031 19.488281 20.222656 16.949219 19.503906 12.8125 C 19.414062 12.292969 18.695312 12.316406 18.574219 12.796875 C 17.578125 16.753906 16.5625 20.898438 15.53125 25.234375 C 15.515625 25.289062 15.460938 25.320312 15.40625 25.308594 C 15.378906 25.300781 15.355469 25.28125 15.34375 25.253906 C 14.648438 23.660156 13.933594 21.894531 13.1875 19.957031 C 13.101562 19.730469 12.867188 19.601562 12.636719 19.652344 C 12.445312 19.695312 12.265625 19.832031 12.101562 20.050781 C 11.398438 21.007812 10.71875 21.980469 10.0625 22.964844 C 10.023438 23.027344 9.953125 23.0625 9.882812 23.0625 L 6.007812 23.0625 C 5.933594 23.0625 5.867188 23.023438 5.832031 22.960938 C 4.410156 20.511719 3.789062 17.765625 3.96875 14.726562 C 4.371094 8 9.714844 4.183594 16.199219 4.773438 C 19.40625 5.0625 21.984375 6.464844 23.929688 8.972656 Z M 23.929688 8.972656 " fill-opacity="1" fill-rule="nonzero"/></g><g clip-path="url(#674afcd83e)"><path fill="currentColor" d="M 25.714844 21.6875 C 25.722656 21.648438 25.761719 21.621094 25.800781 21.632812 C 25.828125 21.636719 25.851562 21.65625 25.859375 21.683594 L 26.464844 23.84375 C 26.511719 24.023438 26.675781 24.144531 26.859375 24.144531 L 41.058594 24.144531 C 41.109375 24.144531 41.148438 24.183594 41.148438 24.230469 C 41.152344 24.25 41.144531 24.269531 41.132812 24.289062 C 40.21875 25.53125 39.242188 26.628906 38.210938 27.582031 C 32.96875 32.421875 29.417969 35.578125 25.835938 39.5 C 25.058594 40.351562 24.464844 41.265625 24.058594 42.238281 C 24.039062 42.296875 23.972656 42.324219 23.914062 42.300781 C 23.886719 42.289062 23.863281 42.265625 23.851562 42.234375 C 23.332031 40.757812 22.054688 39.285156 20.949219 38.179688 C 17.535156 34.765625 14.046875 31.472656 10.492188 28.300781 C 8.921875 26.898438 7.753906 25.523438 6.71875 24.273438 C 6.683594 24.230469 6.691406 24.167969 6.734375 24.132812 C 6.75 24.121094 6.773438 24.113281 6.792969 24.113281 L 10.332031 24.113281 C 10.464844 24.113281 10.589844 24.046875 10.671875 23.941406 L 12.460938 21.539062 C 12.484375 21.507812 12.527344 21.5 12.558594 21.523438 C 12.570312 21.53125 12.578125 21.542969 12.582031 21.554688 C 13.472656 23.675781 14.253906 25.578125 14.917969 27.257812 C 14.976562 27.410156 15.066406 27.589844 15.191406 27.796875 C 15.332031 28.035156 15.640625 28.109375 15.894531 27.972656 C 16.046875 27.890625 16.140625 27.738281 16.179688 27.511719 C 16.292969 26.851562 17.140625 23.246094 18.722656 16.691406 C 18.753906 16.566406 18.789062 16.480469 18.835938 16.433594 C 18.867188 16.398438 18.917969 16.394531 18.953125 16.425781 C 18.96875 16.441406 18.976562 16.457031 18.980469 16.476562 C 19.265625 18.144531 19.480469 19.339844 19.621094 20.0625 C 20.035156 22.199219 20.214844 23.972656 20.632812 26.09375 C 21.125 28.570312 21.417969 31.179688 21.953125 33.929688 C 22.003906 34.171875 22.238281 34.332031 22.480469 34.285156 C 22.511719 34.277344 22.542969 34.269531 22.570312 34.257812 C 22.746094 34.179688 22.859375 34.027344 22.910156 33.792969 C 23.835938 29.378906 24.773438 25.347656 25.714844 21.6875 Z M 25.714844 21.6875 " fill-opacity="1" fill-rule="nonzero"/></g></svg>