<svg xmlns="http://www.w3.org/2000/svg" xmlns:xlink="http://www.w3.org/1999/xlink" width="64" zoomAndPan="magnify" viewBox="0 0 48 48" height="64" preserveAspectRatio="xMidYMid meet" version="1.0"><defs><clipPath id="586411af5a"><path d="M 18 3.78125 L 30 3.78125 L 30 9 L 18 9 Z M 18 3.78125 " clip-rule="nonzero"/></clipPath><clipPath id="ed30266b70"><path d="M 8 8 L 40 8 L 40 43.457031 L 8 43.457031 Z M 8 8 " clip-rule="nonzero"/></clipPath><clipPath id="18adade347"><path d="M 4.222656 27 L 8 27 L 8 40 L 4.222656 40 Z M 4.222656 27 " clip-rule="nonzero"/></clipPath><clipPath id="e492546606"><path d="M 40 27 L 43.894531 27 L 43.894531 40 L 40 40 Z M 40 27 " clip-rule="nonzero"/></clipPath></defs><g clip-path="url(#586411af5a)"><path fill="#151515" d="M 24.035156 3.78125 C 25.046875 3.78125 26.003906 3.9375 26.941406 4.332031 C 28.472656 4.976562 29.625 6.375 29.570312 8.074219 C 29.570312 8.109375 29.539062 8.140625 29.503906 8.136719 C 29.5 8.136719 29.496094 8.136719 29.492188 8.136719 L 27.957031 7.796875 C 27.910156 7.789062 27.875 7.753906 27.867188 7.710938 C 27.59375 6.703125 26.902344 6.042969 25.796875 5.726562 C 25.230469 5.5625 24.644531 5.480469 24.039062 5.480469 C 23.433594 5.484375 22.847656 5.566406 22.28125 5.734375 C 21.175781 6.054688 20.492188 6.71875 20.222656 7.726562 C 20.210938 7.773438 20.175781 7.804688 20.132812 7.816406 L 18.597656 8.160156 C 18.5625 8.167969 18.527344 8.144531 18.519531 8.109375 C 18.519531 8.105469 18.519531 8.101562 18.519531 8.097656 C 18.457031 6.398438 19.605469 4.996094 21.128906 4.34375 C 22.066406 3.945312 23.023438 3.785156 24.035156 3.78125 Z M 24.035156 3.78125 " fill-opacity="1" fill-rule="nonzero"/></g><path fill="#151515" d="M 31.132812 8.449219 C 31.289062 7.050781 31.371094 6.132812 31.378906 5.683594 C 31.398438 4.917969 31.742188 4.4375 32.527344 4.503906 C 34.425781 4.671875 35.914062 4.8125 37 4.929688 C 37.820312 5.015625 38.464844 5.875 38.390625 6.734375 C 38.207031 8.886719 38 10.683594 37.769531 12.132812 C 37.71875 12.46875 37.609375 12.789062 37.441406 13.101562 C 37.429688 13.121094 37.402344 13.128906 37.382812 13.121094 C 37.375 13.117188 37.371094 13.113281 37.367188 13.109375 C 35.761719 11.058594 33.574219 9.511719 31.203125 8.5625 C 31.15625 8.542969 31.128906 8.496094 31.132812 8.449219 Z M 31.132812 8.449219 " fill-opacity="1" fill-rule="nonzero"/><path fill="#151515" d="M 16.890625 8.574219 C 14.519531 9.515625 12.332031 11.050781 10.71875 13.09375 C 10.703125 13.109375 10.675781 13.113281 10.660156 13.101562 C 10.652344 13.097656 10.648438 13.089844 10.644531 13.085938 C 10.480469 12.773438 10.371094 12.453125 10.320312 12.117188 C 10.097656 10.671875 9.894531 8.871094 9.71875 6.722656 C 9.648438 5.867188 10.292969 5.011719 11.117188 4.925781 C 12.199219 4.8125 13.6875 4.675781 15.582031 4.515625 C 16.367188 4.453125 16.710938 4.933594 16.722656 5.699219 C 16.730469 6.144531 16.808594 7.066406 16.960938 8.457031 C 16.964844 8.507812 16.9375 8.554688 16.890625 8.574219 Z M 16.890625 8.574219 " fill-opacity="1" fill-rule="nonzero"/><g clip-path="url(#ed30266b70)"><path fill="#151515" d="M 24.074219 8.542969 C 25.410156 8.546875 26.738281 8.679688 28.066406 8.945312 C 28.28125 8.988281 28.71875 9.101562 29.378906 9.289062 C 33.238281 10.371094 36.273438 12.988281 37.945312 16.519531 C 38.570312 17.84375 38.996094 19.347656 39.222656 21.03125 C 39.308594 21.648438 39.347656 23.214844 39.347656 25.738281 C 39.335938 35.046875 39.328125 39.886719 39.320312 40.253906 C 39.300781 41.640625 38.316406 42.851562 37.082031 43.285156 C 36.753906 43.398438 36.199219 43.457031 35.414062 43.457031 C 35.160156 43.457031 31.371094 43.457031 24.054688 43.449219 C 16.734375 43.445312 12.945312 43.445312 12.691406 43.445312 C 11.910156 43.441406 11.351562 43.382812 11.023438 43.269531 C 9.792969 42.835938 8.808594 41.625 8.789062 40.238281 C 8.785156 39.871094 8.78125 35.03125 8.78125 25.71875 C 8.78125 23.199219 8.824219 21.628906 8.90625 21.011719 C 9.136719 19.332031 9.566406 17.828125 10.195312 16.507812 C 11.867188 12.972656 14.90625 10.363281 18.765625 9.28125 C 19.425781 9.097656 19.863281 8.980469 20.078125 8.941406 C 21.40625 8.675781 22.738281 8.542969 24.074219 8.542969 Z M 24.070312 12.226562 C 27.214844 12.226562 30.527344 12.910156 32.75 15.3125 C 33.949219 16.609375 34.792969 18.277344 35.199219 19.910156 C 35.269531 20.207031 35.5625 20.390625 35.859375 20.328125 L 35.882812 20.324219 C 36.179688 20.261719 36.371094 19.972656 36.308594 19.671875 C 36.308594 19.664062 36.304688 19.652344 36.300781 19.640625 C 35.335938 16.101562 33.195312 13.300781 29.671875 12.003906 C 27.851562 11.335938 25.992188 11.09375 24.070312 11.09375 C 22.144531 11.09375 20.285156 11.335938 18.46875 12.003906 C 14.941406 13.300781 12.800781 16.097656 11.835938 19.636719 C 11.753906 19.933594 11.929688 20.234375 12.21875 20.3125 C 12.230469 20.316406 12.242188 20.320312 12.253906 20.320312 L 12.277344 20.328125 C 12.574219 20.390625 12.867188 20.203125 12.9375 19.910156 C 13.34375 18.273438 14.1875 16.605469 15.386719 15.308594 C 17.609375 12.90625 20.921875 12.226562 24.070312 12.226562 Z M 35.535156 28.3125 C 35.535156 26.425781 34.007812 24.894531 32.121094 24.894531 L 15.992188 24.894531 C 14.109375 24.894531 12.582031 26.425781 12.582031 28.3125 L 12.582031 36.519531 C 12.582031 38.410156 14.109375 39.941406 15.992188 39.941406 L 32.121094 39.941406 C 34.007812 39.941406 35.535156 38.410156 35.535156 36.519531 Z M 35.535156 28.3125 " fill-opacity="1" fill-rule="nonzero"/></g><path fill="#151515" d="M 13.992188 29.730469 C 13.9375 29.730469 13.890625 29.683594 13.890625 29.628906 L 13.890625 28.332031 C 13.890625 27.132812 14.886719 26.160156 16.109375 26.160156 L 32.023438 26.160156 C 33.25 26.160156 34.242188 27.132812 34.242188 28.332031 L 34.242188 29.628906 C 34.242188 29.683594 34.195312 29.730469 34.140625 29.730469 Z M 13.992188 29.730469 " fill-opacity="1" fill-rule="nonzero"/><g clip-path="url(#18adade347)"><path fill="#151515" d="M 7.507812 39.421875 C 7.507812 39.480469 7.457031 39.53125 7.398438 39.53125 L 6.25 39.53125 C 5.140625 39.535156 4.242188 38.625 4.242188 37.503906 L 4.226562 29.617188 C 4.226562 28.496094 5.121094 27.582031 6.226562 27.582031 L 7.378906 27.578125 C 7.4375 27.578125 7.484375 27.628906 7.484375 27.6875 Z M 7.507812 39.421875 " fill-opacity="1" fill-rule="nonzero"/></g><g clip-path="url(#e492546606)"><path fill="#151515" d="M 40.609375 27.664062 C 40.609375 27.621094 40.644531 27.589844 40.683594 27.589844 L 41.949219 27.589844 C 43.023438 27.59375 43.890625 28.488281 43.890625 29.589844 L 43.878906 37.535156 C 43.875 38.636719 43.003906 39.53125 41.929688 39.527344 C 41.929688 39.527344 41.925781 39.527344 41.925781 39.527344 L 40.664062 39.527344 C 40.621094 39.527344 40.589844 39.492188 40.589844 39.449219 Z M 40.609375 27.664062 " fill-opacity="1" fill-rule="nonzero"/></g><path fill="#151515" d="M 34.15625 31.113281 C 34.1875 31.113281 34.210938 31.136719 34.210938 31.167969 C 34.210938 34.136719 34.210938 35.703125 34.21875 35.867188 C 34.253906 36.628906 34.195312 37.160156 34.046875 37.460938 C 33.804688 37.953125 33.414062 38.304688 32.875 38.515625 C 32.515625 38.660156 32.066406 38.648438 31.632812 38.648438 C 24.917969 38.648438 19.828125 38.648438 16.359375 38.648438 C 15.816406 38.644531 15.40625 38.589844 15.125 38.472656 C 14.316406 38.136719 13.910156 37.453125 13.902344 36.421875 C 13.882812 33.515625 13.890625 31.773438 13.929688 31.195312 C 13.929688 31.152344 13.96875 31.117188 14.011719 31.117188 L 17.113281 31.117188 C 17.144531 31.117188 17.171875 31.144531 17.171875 31.175781 C 17.191406 31.730469 17.191406 32.542969 17.175781 33.617188 C 17.171875 33.992188 17.308594 34.214844 17.644531 34.328125 C 17.832031 34.394531 18.234375 34.347656 18.417969 34.230469 C 18.59375 34.117188 18.683594 33.90625 18.683594 33.589844 C 18.691406 32.878906 18.6875 32.070312 18.679688 31.15625 C 18.679688 31.132812 18.695312 31.113281 18.71875 31.113281 C 18.71875 31.113281 18.722656 31.113281 18.722656 31.113281 Z M 34.15625 31.113281 " fill-opacity="1" fill-rule="nonzero"/></svg>