<svg xmlns="http://www.w3.org/2000/svg" xmlns:xlink="http://www.w3.org/1999/xlink" width="64" zoomAndPan="magnify" viewBox="0 0 48 48" height="64" preserveAspectRatio="xMidYMid meet" version="1.0"><defs><clipPath id="a954d5b869"><path d="M 0.488281 0 L 47.507812 0 L 47.507812 44 L 0.488281 44 Z M 0.488281 0 " clip-rule="nonzero"/></clipPath><clipPath id="afa614d3de"><path d="M 5 5.640625 L 43 5.640625 L 43 41.328125 L 5 41.328125 Z M 5 5.640625 " clip-rule="nonzero"/></clipPath><clipPath id="1753bf6dd4"><path d="M 16.179688 6.765625 L 31.816406 6.765625 L 31.816406 22.402344 L 16.179688 22.402344 Z M 16.179688 6.765625 " clip-rule="nonzero"/></clipPath><clipPath id="66148f5d33"><path d="M 24 6.765625 C 19.679688 6.765625 16.179688 10.265625 16.179688 14.582031 C 16.179688 18.902344 19.679688 22.402344 24 22.402344 C 28.316406 22.402344 31.816406 18.902344 31.816406 14.582031 C 31.816406 10.265625 28.316406 6.765625 24 6.765625 Z M 24 6.765625 " clip-rule="nonzero"/></clipPath><clipPath id="48823e47f2"><rect x="0" width="48" y="0" height="44"/></clipPath></defs><g clip-path="url(#a954d5b869)"><g transform="matrix(1, 0, 0, 1, 0.000000000000000056, 0.000000000000005041)"><g clip-path="url(#48823e47f2)"><g clip-path="url(#afa614d3de)"><path fill="currentColor" d="M 36.824219 16.292969 C 36.824219 16.839844 36.789062 17.390625 36.71875 17.933594 C 36.648438 18.480469 36.542969 19.019531 36.402344 19.550781 C 36.261719 20.085938 36.089844 20.605469 35.882812 21.113281 C 35.675781 21.625 35.4375 22.117188 35.167969 22.597656 C 34.894531 23.078125 34.59375 23.535156 34.265625 23.976562 C 33.9375 24.417969 33.578125 24.835938 33.195312 25.230469 C 32.8125 25.625 32.402344 25.992188 31.972656 26.332031 C 31.542969 26.675781 31.089844 26.988281 30.621094 27.273438 C 30.148438 27.554688 29.660156 27.808594 29.15625 28.03125 C 28.652344 28.25 28.136719 28.4375 27.609375 28.59375 C 27.082031 28.746094 26.542969 28.867188 26 28.953125 C 25.457031 29.039062 24.910156 29.089844 24.359375 29.105469 C 23.808594 29.121094 23.261719 29.097656 22.714844 29.042969 C 22.167969 28.988281 21.625 28.898438 21.089844 28.773438 C 20.554688 28.648438 20.027344 28.488281 19.511719 28.292969 C 18.996094 28.101562 18.496094 27.875 18.011719 27.617188 C 17.523438 27.359375 17.054688 27.074219 16.605469 26.753906 C 16.15625 26.4375 15.730469 26.09375 15.328125 25.71875 C 14.921875 25.347656 14.542969 24.949219 14.1875 24.527344 C 13.835938 24.105469 13.511719 23.664062 13.214844 23.199219 C 12.917969 22.738281 12.652344 22.257812 12.417969 21.757812 C 12.183594 21.261719 11.980469 20.75 11.8125 20.226562 C 11.644531 19.703125 11.507812 19.171875 11.40625 18.628906 C 11.308594 18.089844 11.242188 17.542969 11.210938 16.996094 C 11.183594 16.445312 11.1875 15.894531 11.226562 15.347656 C 11.269531 14.796875 11.34375 14.253906 11.453125 13.714844 C 11.566406 13.175781 11.710938 12.648438 11.890625 12.125 C 12.066406 11.605469 12.28125 11.097656 12.523438 10.605469 C 12.769531 10.113281 13.042969 9.636719 13.347656 9.179688 C 13.652344 8.722656 13.988281 8.285156 14.347656 7.871094 C 14.710938 7.457031 15.097656 7.066406 15.507812 6.703125 C 15.921875 6.335938 16.355469 6 16.808594 5.691406 C 16.15625 5.964844 15.523438 6.277344 14.90625 6.625 C 14.289062 6.96875 13.695312 7.351562 13.125 7.765625 C 12.550781 8.183594 12.003906 8.628906 11.484375 9.105469 C 10.960938 9.582031 10.46875 10.089844 10.003906 10.625 C 9.542969 11.15625 9.109375 11.714844 8.710938 12.300781 C 8.3125 12.882812 7.945312 13.488281 7.613281 14.113281 C 7.285156 14.738281 6.992188 15.378906 6.734375 16.039062 C 6.476562 16.699219 6.257812 17.367188 6.078125 18.050781 C 5.898438 18.738281 5.757812 19.429688 5.65625 20.128906 C 5.554688 20.828125 5.492188 21.53125 5.472656 22.238281 C 5.453125 22.945312 5.472656 23.652344 5.53125 24.355469 C 5.59375 25.0625 5.691406 25.757812 5.832031 26.453125 C 5.972656 27.144531 6.152344 27.828125 6.371094 28.5 C 6.585938 29.175781 6.84375 29.832031 7.136719 30.476562 C 7.429688 31.121094 7.757812 31.742188 8.125 32.347656 C 8.488281 32.957031 8.886719 33.539062 9.320312 34.097656 C 9.75 34.660156 10.214844 35.191406 10.707031 35.699219 C 11.199219 36.207031 11.71875 36.683594 12.265625 37.132812 C 12.8125 37.582031 13.382812 37.996094 13.980469 38.378906 C 14.574219 38.761719 15.1875 39.109375 15.824219 39.417969 C 16.457031 39.730469 17.109375 40.007812 17.773438 40.246094 C 18.441406 40.484375 19.117188 40.679688 19.808594 40.839844 C 20.496094 41 21.191406 41.121094 21.894531 41.203125 C 22.597656 41.285156 23.300781 41.324219 24.007812 41.324219 C 24.714844 41.324219 25.421875 41.285156 26.125 41.203125 C 26.824219 41.121094 27.523438 41 28.210938 40.839844 C 28.898438 40.679688 29.578125 40.484375 30.242188 40.246094 C 30.910156 40.007812 31.558594 39.730469 32.195312 39.417969 C 32.828125 39.109375 33.441406 38.761719 34.039062 38.378906 C 34.632812 37.996094 35.203125 37.582031 35.75 37.132812 C 36.296875 36.683594 36.820312 36.207031 37.3125 35.699219 C 37.804688 35.191406 38.265625 34.660156 38.699219 34.097656 C 39.128906 33.539062 39.527344 32.957031 39.894531 32.347656 C 40.257812 31.742188 40.585938 31.121094 40.878906 30.476562 C 41.175781 29.832031 41.429688 29.175781 41.648438 28.5 C 41.867188 27.828125 42.046875 27.144531 42.183594 26.453125 C 42.324219 25.757812 42.425781 25.0625 42.484375 24.355469 C 42.546875 23.652344 42.566406 22.945312 42.542969 22.238281 C 42.523438 21.53125 42.464844 20.828125 42.363281 20.128906 C 42.261719 19.429688 42.121094 18.738281 41.941406 18.050781 C 41.757812 17.367188 41.542969 16.699219 41.285156 16.039062 C 41.027344 15.378906 40.734375 14.738281 40.402344 14.113281 C 40.070312 13.488281 39.707031 12.882812 39.308594 12.300781 C 38.90625 11.714844 38.476562 11.15625 38.011719 10.625 C 37.546875 10.089844 37.054688 9.582031 36.535156 9.105469 C 36.011719 8.628906 35.464844 8.183594 34.894531 7.765625 C 34.320312 7.351562 33.726562 6.96875 33.109375 6.625 C 32.496094 6.277344 31.859375 5.964844 31.207031 5.691406 C 32.074219 6.277344 32.855469 6.960938 33.554688 7.738281 C 34.25 8.515625 34.84375 9.367188 35.335938 10.292969 C 35.824219 11.214844 36.195312 12.1875 36.445312 13.199219 C 36.699219 14.214844 36.824219 15.246094 36.824219 16.292969 Z M 36.824219 16.292969 " fill-opacity="1" fill-rule="nonzero"/></g><g clip-path="url(#1753bf6dd4)"><g clip-path="url(#66148f5d33)"><path stroke-linecap="butt" transform="matrix(0.274523, 0, 0, 0.274523, 16.181622, 6.765628)" fill="none" stroke-linejoin="miter" d="M 28.479821 -0.0000105942 C 12.74232 -0.0000105942 -0.00704812 12.749357 -0.00704812 28.472629 C -0.00704812 44.21013 12.74232 56.959498 28.479821 56.959498 C 44.203092 56.959498 56.95246 44.21013 56.95246 28.472629 C 56.95246 12.749357 44.203092 -0.0000105942 28.479821 -0.0000105942 Z M 28.479821 -0.0000105942 " stroke="currentColor" stroke-width="37.467525" stroke-opacity="1" stroke-miterlimit="4"/></g></g></g></g></g></svg>