<svg xmlns="http://www.w3.org/2000/svg" xmlns:xlink="http://www.w3.org/1999/xlink" width="64" zoomAndPan="magnify" viewBox="0 0 48 48" height="64" preserveAspectRatio="xMidYMid meet" version="1.0"><defs><clipPath id="30051e4368"><path d="M 5.839844 3.769531 L 41 3.769531 L 41 43.445312 L 5.839844 43.445312 Z M 5.839844 3.769531 " clip-rule="nonzero"/></clipPath><clipPath id="9c4a429488"><path d="M 28 26 L 41.839844 26 L 41.839844 42 L 28 42 Z M 28 26 " clip-rule="nonzero"/></clipPath><clipPath id="d997d2a555"><path d="M 5.839844 3.769531 L 20 3.769531 L 20 19 L 5.839844 19 Z M 5.839844 3.769531 " clip-rule="nonzero"/></clipPath></defs><g clip-path="url(#30051e4368)"><path fill="currentColor" d="M 40.699219 23.585938 L 40.738281 23.511719 C 40.738281 23.511719 29.851562 23.480469 26.902344 20.003906 C 24.046875 16.644531 23.402344 7.355469 23.285156 3.878906 C 23.167969 7.355469 22.527344 16.644531 19.671875 20.003906 C 16.722656 23.480469 5.84375 23.511719 5.84375 23.511719 L 5.894531 23.585938 L 5.84375 23.632812 C 5.84375 23.632812 16.722656 23.648438 19.671875 27.125 C 22.527344 30.480469 23.167969 39.773438 23.285156 43.25 C 23.402344 39.773438 24.054688 30.480469 26.902344 27.125 C 29.851562 23.648438 40.738281 23.632812 40.738281 23.632812 Z M 40.699219 23.585938 " fill-opacity="1" fill-rule="nonzero"/></g><g clip-path="url(#9c4a429488)"><path fill="currentColor" d="M 42.152344 34.085938 C 42.152344 34.085938 37.96875 34.070312 36.828125 32.730469 C 35.726562 31.441406 35.484375 27.871094 35.4375 26.535156 C 35.390625 27.871094 35.144531 31.441406 34.050781 32.730469 C 32.917969 34.070312 28.734375 34.085938 28.734375 34.085938 L 28.75 34.109375 L 28.734375 34.125 C 28.734375 34.125 32.917969 34.132812 34.050781 35.46875 C 35.152344 36.757812 35.398438 40.332031 35.4375 41.667969 C 35.484375 40.332031 35.734375 36.757812 36.828125 35.46875 C 37.960938 34.132812 42.152344 34.125 42.152344 34.125 L 42.136719 34.109375 Z M 42.152344 34.085938 " fill-opacity="1" fill-rule="nonzero"/></g><g clip-path="url(#d997d2a555)"><path fill="currentColor" d="M 11.164062 12.707031 C 12.265625 13.996094 12.507812 17.566406 12.546875 18.902344 C 12.59375 17.566406 12.847656 13.996094 13.941406 12.707031 C 15.070312 11.367188 19.265625 11.359375 19.265625 11.359375 L 19.25 11.34375 L 19.265625 11.320312 C 19.265625 11.320312 15.078125 11.304688 13.941406 9.96875 C 12.839844 8.679688 12.59375 5.105469 12.546875 3.769531 C 12.5 5.105469 12.257812 8.679688 11.164062 9.96875 C 10.03125 11.304688 5.84375 11.320312 5.84375 11.320312 L 5.863281 11.34375 L 5.84375 11.359375 C 5.84375 11.359375 10.03125 11.367188 11.164062 12.707031 Z M 11.164062 12.707031 " fill-opacity="1" fill-rule="nonzero"/></g></svg>