<svg xmlns="http://www.w3.org/2000/svg" xmlns:xlink="http://www.w3.org/1999/xlink" width="64" zoomAndPan="magnify" viewBox="0 0 48 48" height="64" preserveAspectRatio="xMidYMid meet" version="1.0"><defs><clipPath id="70449f76eb"><path d="M 5.191406 19 L 42.660156 19 L 42.660156 28 L 5.191406 28 Z M 5.191406 19 " clip-rule="nonzero"/></clipPath><clipPath id="d3a082e942"><path d="M 20 4.703125 L 28 4.703125 L 28 42.171875 L 20 42.171875 Z M 20 4.703125 " clip-rule="nonzero"/></clipPath></defs><g clip-path="url(#70449f76eb)"><path fill="currentColor" d="M 40.789062 27.183594 L 7.066406 27.183594 C 5.941406 27.183594 5.191406 26.433594 5.191406 25.308594 L 5.191406 21.5625 C 5.191406 20.4375 5.941406 19.691406 7.066406 19.691406 L 40.789062 19.691406 C 41.910156 19.691406 42.660156 20.4375 42.660156 21.5625 L 42.660156 25.308594 C 42.660156 26.433594 41.910156 27.183594 40.789062 27.183594 Z M 40.789062 27.183594 " fill-opacity="1" fill-rule="nonzero"/></g><g clip-path="url(#d3a082e942)"><path fill="currentColor" d="M 20.179688 40.296875 L 20.179688 6.574219 C 20.179688 5.453125 20.929688 4.703125 22.054688 4.703125 L 25.800781 4.703125 C 26.925781 4.703125 27.671875 5.453125 27.671875 6.574219 L 27.671875 40.296875 C 27.671875 41.421875 26.925781 42.171875 25.800781 42.171875 L 22.054688 42.171875 C 20.929688 42.171875 20.179688 41.421875 20.179688 40.296875 Z M 20.179688 40.296875 " fill-opacity="1" fill-rule="nonzero"/></g></svg>