<svg xmlns="http://www.w3.org/2000/svg" xmlns:xlink="http://www.w3.org/1999/xlink" width="64" zoomAndPan="magnify" viewBox="0 0 48 48" height="64" preserveAspectRatio="xMidYMid meet" version="1.0"><defs><clipPath id="b81326b00f"><path d="M 5.261719 7.875 L 42.578125 7.875 L 42.578125 39.46875 L 5.261719 39.46875 Z M 5.261719 7.875 " clip-rule="nonzero"/></clipPath></defs><g clip-path="url(#b81326b00f)"><path fill="currentColor" d="M 31.503906 38.125 C 31.105469 38.523438 30.792969 38.902344 30.410156 39.179688 C 30.277344 39.277344 29.679688 38.230469 29.640625 37.816406 C 29.496094 36.28125 29.449219 34.722656 29.164062 33.214844 C 28.871094 31.664062 28.855469 30.0625 28.308594 28.554688 C 28.199219 28.253906 28.300781 27.875 28.289062 27.53125 C 28.273438 27.117188 27.949219 26.902344 27.675781 27.164062 C 26.585938 28.210938 25.527344 29.289062 24.460938 30.359375 C 24.277344 30.542969 24.125 30.753906 23.9375 30.933594 C 22.21875 32.609375 20.496094 34.277344 18.777344 35.945312 C 18.695312 36.023438 18.582031 36.09375 18.542969 36.191406 C 18.074219 37.320312 17.050781 37.804688 16.121094 38.441406 C 14.507812 39.542969 12.785156 39.75 10.992188 39.195312 C 8.882812 38.542969 7.269531 37.117188 6.109375 35.273438 C 5.585938 34.441406 5.355469 33.382812 5.28125 32.3125 C 5.128906 30.207031 5.898438 28.523438 7.136719 26.902344 C 8.09375 25.65625 9.226562 24.773438 10.597656 24.082031 C 11.355469 23.699219 11.976562 23.035156 12.65625 22.492188 C 13.433594 21.867188 14.203125 21.25 15.144531 20.859375 C 15.773438 20.597656 16.277344 20.136719 16.769531 19.589844 C 17.394531 18.894531 18.332031 18.5 19.109375 17.941406 C 19.359375 17.757812 19.605469 17.488281 19.710938 17.203125 C 20.035156 16.324219 20.785156 16.015625 21.519531 15.664062 C 21.773438 15.542969 22.050781 15.441406 22.253906 15.257812 C 23.21875 14.386719 24.1875 13.511719 25.105469 12.59375 C 25.757812 11.9375 26.390625 11.253906 26.925781 10.503906 C 28.085938 8.878906 29.582031 7.925781 31.578125 8.148438 C 32.929688 8.296875 34.25 8.703125 35.40625 9.507812 C 36.0625 9.964844 36.160156 9.957031 36.664062 9.339844 C 36.988281 8.945312 37.300781 8.539062 37.621094 8.144531 C 37.921875 7.78125 38.207031 7.800781 38.554688 8.121094 C 40.234375 9.65625 41.539062 11.480469 42.34375 13.613281 C 42.707031 14.578125 42.730469 15.664062 41.808594 16.464844 C 41.371094 16.851562 40.597656 17.179688 40.542969 17.609375 C 40.453125 18.3125 39.96875 18.4375 39.597656 18.683594 C 38.1875 19.621094 36.726562 20.476562 35.300781 21.386719 C 34.816406 21.691406 34.40625 22.125 33.910156 22.402344 C 33.089844 22.867188 32.226562 23.246094 31.390625 23.671875 C 31.3125 23.710938 31.230469 23.828125 31.234375 23.90625 C 31.238281 23.980469 31.351562 24.113281 31.410156 24.113281 C 32.449219 24.078125 33.1875 24.703125 34.011719 25.214844 C 36.03125 26.460938 37.980469 27.78125 39.746094 29.398438 C 40.394531 29.988281 40.933594 30.585938 41.40625 31.320312 C 41.667969 31.730469 41.324219 31.871094 41.234375 31.871094 C 40.808594 31.867188 40.378906 31.796875 39.957031 31.714844 C 39.792969 31.683594 39.652344 31.542969 39.488281 31.484375 C 38.753906 31.222656 38.269531 31.5625 38.207031 32.375 C 38.207031 32.414062 38.207031 32.453125 38.207031 32.488281 C 38.199219 32.886719 38.308594 33.449219 37.761719 33.457031 C 37.390625 33.464844 36.875 33.21875 36.664062 32.917969 C 35.609375 31.429688 34.585938 29.921875 33.296875 28.625 C 32.421875 27.746094 31.503906 26.898438 30.699219 25.957031 C 30.289062 25.476562 30.058594 26.015625 29.75 25.953125 C 29.785156 26.140625 29.757812 26.375 29.863281 26.496094 C 30.480469 27.238281 31.179688 27.910156 31.753906 28.683594 C 32.746094 30.019531 33.535156 31.472656 34.179688 33.027344 C 34.714844 34.3125 35.027344 35.644531 35.425781 36.960938 C 35.535156 37.320312 35.648438 37.722656 35.253906 37.957031 C 34.878906 38.1875 34.480469 38.15625 34.1875 37.761719 C 33.785156 37.210938 33.375 36.660156 33 36.089844 C 32.746094 35.703125 32.511719 35.808594 32.367188 36.121094 C 32.066406 36.753906 31.824219 37.417969 31.503906 38.125 Z M 14.207031 31.667969 C 14.390625 31.410156 14.945312 31.4375 14.769531 30.902344 C 14.511719 30.101562 14.28125 29.292969 13.992188 28.503906 C 13.949219 28.386719 13.613281 28.257812 13.480469 28.3125 C 12.773438 28.59375 12.085938 28.921875 11.40625 29.261719 C 11.296875 29.316406 10.90625 29.527344 11.445312 29.625 C 11.628906 29.660156 11.792969 29.890625 11.9375 30.054688 C 12.339844 30.523438 12.714844 31.019531 13.128906 31.476562 C 13.351562 31.71875 13.574219 32.1875 14.207031 31.667969 Z M 17.699219 31.09375 C 17.847656 31.984375 18 32.875 18.152344 33.761719 C 18.175781 33.902344 18.21875 34.039062 18.257812 34.175781 C 18.410156 34.097656 18.589844 34.050781 18.714844 33.941406 C 19.410156 33.332031 20.085938 32.699219 20.777344 32.089844 C 21.800781 31.191406 22.875 30.355469 23.84375 29.40625 C 24.855469 28.417969 25.777344 27.339844 26.714844 26.273438 C 26.859375 26.105469 26.980469 25.777344 26.921875 25.582031 C 26.527344 24.246094 26.097656 22.921875 25.089844 21.894531 C 24.726562 21.523438 24.476562 21.546875 24.066406 21.871094 C 22.480469 23.109375 20.828125 24.257812 19.25 25.503906 C 18.085938 26.421875 17.035156 27.46875 17.253906 29.179688 C 17.332031 29.785156 17.472656 30.378906 17.699219 31.09375 Z M 30.546875 16.921875 C 30.160156 17.265625 29.800781 17.640625 29.382812 17.941406 C 28.628906 18.492188 28.527344 18.785156 29.082031 19.535156 C 29.765625 20.460938 30.253906 21.476562 30.523438 22.582031 C 30.632812 23.027344 30.6875 23.113281 31.050781 22.816406 C 31.464844 22.476562 31.886719 22.128906 32.339844 21.84375 C 33.914062 20.835938 35.503906 19.859375 37.082031 18.863281 C 38.039062 18.261719 38.945312 17.558594 39.953125 17.066406 C 40.644531 16.730469 41.144531 16.234375 41.640625 15.707031 C 41.96875 15.355469 42.175781 14.878906 42.023438 14.398438 C 41.78125 13.632812 41.539062 12.835938 41.136719 12.15625 C 40.585938 11.226562 39.894531 10.382812 39.242188 9.523438 C 38.894531 9.0625 38.382812 9.179688 37.972656 9.664062 C 37.300781 10.460938 36.679688 11.375 35.84375 11.941406 C 34.558594 12.804688 33.53125 13.945312 32.34375 14.90625 C 31.695312 15.429688 31.214844 16.167969 30.546875 16.921875 Z M 10.710938 25.609375 C 12.523438 26.207031 13.898438 27.292969 14.8125 29.039062 C 15.292969 29.957031 15.417969 30.925781 15.664062 31.882812 C 15.785156 32.371094 15.847656 32.882812 15.886719 33.386719 C 15.90625 33.640625 15.808594 33.90625 15.769531 34.164062 C 16.003906 34.019531 16.246094 33.734375 16.472656 33.75 C 17.046875 33.785156 17.058594 33.480469 17.027344 33.070312 C 17.011719 32.878906 17.066406 32.675781 17.015625 32.5 C 16.582031 31.027344 16.339844 29.527344 16.339844 27.984375 C 16.339844 27.742188 16.234375 27.5 16.167969 27.257812 C 15.988281 26.578125 16.152344 26.117188 16.71875 25.722656 C 17.1875 25.394531 17.691406 25.105469 18.109375 24.71875 C 19.457031 23.464844 21.070312 22.609375 22.582031 21.605469 C 22.882812 21.40625 23.167969 21.171875 23.429688 20.925781 C 23.617188 20.753906 23.65625 20.609375 23.335938 20.453125 C 22.296875 19.953125 21.308594 19.339844 20.25 18.898438 C 19.910156 18.75 19.304688 18.839844 19.007812 19.070312 C 17.8125 19.996094 16.625 20.929688 15.394531 21.8125 C 13.917969 22.871094 12.46875 23.917969 10.679688 24.359375 C 10.453125 24.414062 10.191406 24.535156 10.046875 24.710938 C 9.804688 24.996094 9.320312 25.136719 9.40625 25.65625 C 9.691406 25.484375 9.976562 25.304688 10.269531 25.152344 C 10.378906 25.09375 10.523438 25.109375 10.652344 25.089844 C 10.636719 25.226562 10.617188 25.359375 10.710938 25.609375 Z M 13.304688 34.636719 C 14.058594 34.179688 14.730469 33.65625 14.800781 32.664062 C 14.808594 32.53125 14.792969 32.394531 14.792969 32.261719 C 14.660156 32.304688 14.496094 32.3125 14.398438 32.394531 C 13.398438 33.242188 12.515625 32.964844 12.050781 31.707031 C 11.855469 31.183594 11.527344 30.707031 11.203125 30.242188 C 11.074219 30.058594 10.679688 29.820312 10.617188 29.871094 C 10.375 30.066406 10.210938 30.363281 10.042969 30.640625 C 9.996094 30.722656 10.039062 30.863281 10.035156 30.976562 C 10.03125 31.878906 10.398438 32.675781 10.925781 33.332031 C 11.464844 34 12.027344 34.777344 13.304688 34.636719 Z M 35.164062 10.179688 C 34.195312 9.34375 32.953125 9.148438 31.808594 9.101562 C 30.8125 9.0625 29.75 9.488281 28.957031 10.296875 C 27.324219 11.96875 25.6875 13.640625 24.023438 15.285156 C 23.71875 15.585938 23.875 15.777344 24.09375 15.84375 C 25.320312 16.214844 26.40625 16.832031 27.417969 17.617188 C 27.507812 17.683594 27.765625 17.648438 27.867188 17.566406 C 28.5625 16.964844 29.246094 16.34375 29.921875 15.71875 C 30.226562 15.4375 30.496094 15.117188 30.800781 14.839844 C 32.296875 13.464844 33.800781 12.101562 35.289062 10.71875 C 35.394531 10.617188 35.359375 10.359375 35.164062 10.179688 Z M 6.882812 29.039062 L 6.746094 28.945312 C 6.753906 29.015625 6.761719 29.082031 6.882812 29.039062 Z M 16.683594 34.867188 C 15.652344 35.429688 14.714844 35.761719 13.398438 35.394531 C 11.257812 34.800781 9.960938 33.601562 9.324219 31.519531 C 8.933594 30.257812 9.402344 29.046875 10.605469 28.472656 C 11.199219 28.191406 11.839844 28.003906 12.460938 27.78125 C 12.625 27.722656 12.796875 27.695312 12.964844 27.65625 C 12.859375 27.472656 12.789062 27.238281 12.636719 27.113281 C 11.148438 25.933594 9.210938 26.121094 8.023438 27.765625 C 7.535156 28.441406 7.199219 29.238281 6.839844 30.003906 C 6.441406 30.851562 6.09375 31.730469 6.210938 32.703125 C 6.261719 33.132812 6.425781 33.558594 6.414062 33.980469 C 6.394531 34.703125 6.636719 35.265625 7.164062 35.730469 C 7.363281 35.902344 7.613281 36.070312 7.710938 36.296875 C 8.097656 37.214844 8.964844 37.566406 9.691406 38.054688 C 11.339844 39.164062 13.085938 38.835938 14.847656 38.308594 C 15.796875 38.023438 16.316406 37.324219 16.820312 36.5625 C 17.179688 36.011719 17.050781 35.441406 16.683594 34.867188 Z M 16.683594 34.867188 " fill-opacity="1" fill-rule="evenodd"/></g></svg>