<svg xmlns="http://www.w3.org/2000/svg" xmlns:xlink="http://www.w3.org/1999/xlink" width="64" zoomAndPan="magnify" viewBox="0 0 48 48" height="64" preserveAspectRatio="xMidYMid meet" version="1.0"><defs><clipPath id="aabbde57db"><path d="M 6.675781 3.566406 L 41.207031 3.566406 L 41.207031 43.242188 L 6.675781 43.242188 Z M 6.675781 3.566406 " clip-rule="nonzero"/></clipPath></defs><path fill="#050606" d="M 36.75 12.597656 C 36.878906 14.648438 36.890625 17.820312 36.222656 21.28125 C 35.496094 25.050781 34.125 28.386719 32.140625 31.207031 C 30.09375 34.117188 27.335938 36.53125 23.9375 38.390625 L 23.9375 8.445312 C 23.945312 8.441406 23.949219 8.441406 23.957031 8.4375 C 27.527344 10.15625 31.367188 11.277344 34.074219 11.933594 C 34.957031 12.148438 35.851562 12.347656 36.746094 12.527344 C 36.75 12.550781 36.75 12.574219 36.75 12.597656 " fill-opacity="1" fill-rule="nonzero"/><g clip-path="url(#aabbde57db)"><path fill="#050606" d="M 38.539062 21.726562 C 37.75 25.820312 36.246094 29.464844 34.074219 32.558594 C 31.578125 36.105469 28.15625 38.964844 23.894531 41.066406 C 19.671875 38.964844 16.28125 36.109375 13.800781 32.5625 C 11.640625 29.46875 10.140625 25.824219 9.347656 21.726562 C 8.632812 18.019531 8.636719 14.632812 8.765625 12.445312 C 8.808594 11.71875 8.867188 11.082031 8.929688 10.542969 C 10.0625 10.347656 11.574219 10.054688 13.265625 9.644531 C 16.238281 8.925781 20.347656 7.699219 23.957031 5.804688 C 27.5625 7.699219 31.664062 8.925781 34.628906 9.644531 C 36.316406 10.054688 37.8125 10.347656 38.9375 10.542969 C 39 11.082031 39.058594 11.71875 39.105469 12.453125 C 39.242188 14.640625 39.253906 18.023438 38.539062 21.726562 Z M 41.054688 12.332031 C 40.953125 10.730469 40.78125 9.519531 40.671875 8.851562 C 39.691406 8.707031 37.621094 8.367188 35.09375 7.753906 C 31.980469 6.996094 27.578125 5.667969 23.957031 3.578125 C 20.335938 5.667969 15.921875 6.996094 12.804688 7.75 C 10.28125 8.363281 8.175781 8.707031 7.1875 8.851562 C 7.082031 9.515625 6.914062 10.714844 6.820312 12.328125 C 6.683594 14.628906 6.675781 18.191406 7.433594 22.09375 C 8.277344 26.460938 9.882812 30.359375 12.203125 33.679688 C 15.039062 37.738281 18.972656 40.949219 23.890625 43.226562 C 28.851562 40.949219 32.816406 37.738281 35.671875 33.675781 C 38.003906 30.359375 39.613281 26.460938 40.457031 22.09375 C 41.210938 18.191406 41.195312 14.632812 41.054688 12.332031 " fill-opacity="1" fill-rule="nonzero"/></g><path fill="#050606" d="M 36.222656 21.28125 C 35.496094 25.050781 34.125 28.386719 32.140625 31.207031 C 30.09375 34.117188 27.335938 36.53125 23.9375 38.390625 L 23.9375 8.445312 C 23.945312 8.441406 23.949219 8.441406 23.957031 8.4375 C 27.527344 10.15625 31.367188 11.277344 34.074219 11.933594 C 34.957031 12.148438 35.851562 12.347656 36.746094 12.527344 C 36.75 12.550781 36.75 12.574219 36.75 12.597656 C 36.878906 14.648438 36.890625 17.820312 36.222656 21.28125 " fill-opacity="1" fill-rule="nonzero"/></svg>