<svg xmlns="http://www.w3.org/2000/svg" xmlns:xlink="http://www.w3.org/1999/xlink" width="64" zoomAndPan="magnify" viewBox="0 0 48 48" height="64" preserveAspectRatio="xMidYMid meet" version="1.0"><defs><clipPath id="4f591da88f"><path d="M 5.191406 5.386719 L 42.660156 5.386719 L 42.660156 41.386719 L 5.191406 41.386719 Z M 5.191406 5.386719 " clip-rule="nonzero"/></clipPath></defs><g clip-path="url(#4f591da88f)"><path fill="#000000" d="M 11.8125 31.773438 C 11.765625 31.617188 11.621094 31.554688 11.511719 31.46875 C 10.933594 31.007812 10.351562 30.554688 9.777344 30.09375 C 9.121094 29.570312 8.480469 29.023438 7.898438 28.414062 C 7.242188 27.730469 6.664062 26.992188 6.21875 26.152344 C 5.875 25.507812 5.6875 24.808594 5.527344 24.109375 C 5.222656 22.765625 5.128906 21.40625 5.234375 20.027344 C 5.449219 17.257812 6.378906 14.753906 8.027344 12.515625 C 9.21875 10.890625 10.6875 9.5625 12.375 8.472656 C 12.6875 8.269531 13.03125 8.132812 13.371094 7.996094 C 14.824219 7.398438 16.328125 6.984375 17.878906 6.746094 C 18.65625 6.625 19.433594 6.566406 20.21875 6.582031 C 21.332031 6.605469 22.417969 6.800781 23.492188 7.070312 C 24.066406 7.210938 24.632812 7.378906 25.203125 7.53125 C 25.300781 7.554688 25.398438 7.597656 25.503906 7.574219 C 25.511719 7.570312 25.527344 7.558594 25.527344 7.546875 C 25.53125 7.53125 25.53125 7.507812 25.523438 7.503906 C 25.472656 7.476562 25.425781 7.445312 25.371094 7.429688 C 23.949219 6.972656 22.515625 6.585938 21.03125 6.394531 C 19.988281 6.261719 18.945312 6.199219 17.894531 6.300781 C 17.800781 6.308594 17.699219 6.34375 17.59375 6.277344 C 17.820312 6.136719 18.078125 6.121094 18.316406 6.070312 C 19.644531 5.789062 20.988281 5.613281 22.34375 5.507812 C 23.316406 5.433594 24.289062 5.378906 25.265625 5.394531 C 26.285156 5.410156 27.296875 5.5 28.289062 5.753906 C 29.429688 6.042969 30.496094 6.496094 31.507812 7.089844 C 33.035156 7.984375 34.367188 9.121094 35.570312 10.40625 C 38.078125 13.085938 39.988281 16.140625 41.304688 19.5625 C 41.359375 19.707031 41.46875 19.847656 41.414062 20.023438 L 41.425781 20.011719 C 41.382812 20.011719 41.332031 20.023438 41.296875 20.007812 C 40.902344 19.84375 40.511719 19.671875 40.117188 19.507812 C 39.226562 19.140625 38.589844 18.519531 38.214844 17.632812 C 38.179688 17.550781 38.144531 17.472656 38.101562 17.394531 C 38.078125 17.34375 38.042969 17.28125 37.972656 17.304688 C 37.875 17.332031 37.890625 17.414062 37.90625 17.484375 C 37.929688 17.597656 37.957031 17.714844 37.996094 17.824219 C 38.300781 18.707031 38.808594 19.457031 39.511719 20.070312 C 39.734375 20.265625 39.980469 20.425781 40.25 20.554688 C 40.542969 20.695312 40.839844 20.832031 41.117188 20.996094 C 41.703125 21.339844 42.089844 21.847656 42.265625 22.5 C 42.375 22.898438 42.464844 23.300781 42.554688 23.703125 C 42.691406 24.328125 42.675781 24.960938 42.617188 25.59375 C 42.523438 26.625 42.28125 27.625 41.9375 28.601562 C 41.636719 29.460938 41.304688 30.3125 40.984375 31.167969 C 40.941406 31.277344 40.90625 31.390625 40.8125 31.472656 C 40.417969 31.824219 40.03125 32.183594 39.683594 32.5625 C 39.570312 32.535156 39.605469 32.472656 39.609375 32.417969 C 39.6875 31.734375 39.929688 31.105469 40.222656 30.492188 C 40.363281 30.199219 40.523438 29.917969 40.671875 29.628906 C 40.710938 29.554688 40.78125 29.488281 40.765625 29.390625 C 40.691406 29.347656 40.667969 29.417969 40.640625 29.453125 C 40.320312 29.859375 39.988281 30.257812 39.691406 30.675781 C 39.300781 31.21875 38.992188 31.804688 38.847656 32.464844 C 38.714844 33.066406 38.730469 33.664062 38.90625 34.253906 C 39.011719 34.605469 39.105469 34.960938 39.167969 35.324219 C 39.242188 35.761719 39.386719 36.179688 39.523438 36.597656 C 39.648438 37.007812 39.769531 37.414062 39.855469 37.835938 C 39.933594 38.230469 39.953125 38.625 39.914062 39.023438 C 39.847656 39.695312 39.519531 40.21875 38.972656 40.601562 C 38.644531 40.832031 38.28125 40.925781 37.878906 40.871094 C 37.699219 40.847656 37.636719 40.78125 37.652344 40.617188 C 37.695312 40.027344 37.746094 39.441406 37.789062 38.855469 C 37.800781 38.730469 37.859375 38.679688 37.976562 38.652344 C 38.191406 38.597656 38.402344 38.527344 38.59375 38.410156 C 38.652344 38.371094 38.71875 38.339844 38.722656 38.253906 C 38.59375 38.179688 38.5 38.289062 38.394531 38.324219 C 37.96875 38.472656 37.542969 38.5625 37.09375 38.429688 C 37.011719 38.402344 36.917969 38.398438 36.832031 38.386719 C 36.703125 38.367188 36.585938 38.320312 36.449219 38.398438 C 36.371094 38.445312 36.246094 38.414062 36.144531 38.40625 C 35.835938 38.382812 35.527344 38.34375 35.21875 38.332031 C 34.578125 38.308594 33.953125 38.414062 33.328125 38.527344 C 33.210938 38.546875 33.097656 38.574219 32.976562 38.601562 C 33.023438 38.71875 33.121094 38.671875 33.1875 38.671875 C 33.925781 38.671875 34.664062 38.660156 35.402344 38.65625 C 35.710938 38.65625 36.015625 38.652344 36.308594 38.679688 C 36.355469 38.78125 36.3125 38.847656 36.285156 38.914062 C 36.078125 39.4375 35.871094 39.957031 35.660156 40.472656 C 35.566406 40.707031 35.546875 40.710938 35.296875 40.628906 C 34.808594 40.464844 34.453125 40.152344 34.207031 39.710938 C 34.144531 39.59375 34.125 39.457031 34 39.347656 C 33.960938 39.496094 33.921875 39.632812 33.886719 39.769531 C 33.796875 40.097656 33.671875 40.410156 33.449219 40.675781 C 33.292969 40.867188 33.101562 40.992188 32.851562 41.019531 C 32.644531 41.042969 32.550781 40.964844 32.542969 40.757812 C 32.523438 40.242188 32.507812 39.726562 32.488281 39.210938 C 32.484375 39.125 32.476562 39.035156 32.46875 38.949219 C 32.460938 38.890625 32.410156 38.878906 32.371094 38.898438 C 32.320312 38.925781 32.273438 38.964844 32.234375 39.007812 C 31.851562 39.417969 31.613281 39.894531 31.546875 40.460938 C 31.527344 40.644531 31.621094 40.875 31.453125 41.003906 C 31.320312 41.105469 31.125 41.125 30.957031 41.179688 C 30.804688 41.226562 30.652344 41.269531 30.511719 41.3125 C 30.402344 41.210938 30.4375 41.101562 30.433594 41.003906 C 30.40625 40.484375 30.273438 39.988281 30.0625 39.515625 C 30.042969 39.472656 30.023438 39.433594 29.996094 39.398438 C 29.972656 39.367188 29.9375 39.328125 29.90625 39.324219 C 29.851562 39.3125 29.832031 39.367188 29.824219 39.410156 C 29.730469 39.824219 29.636719 40.242188 29.542969 40.660156 C 29.511719 40.800781 29.480469 40.945312 29.445312 41.089844 C 29.394531 41.296875 29.347656 41.324219 29.132812 41.238281 C 28.527344 41 28.203125 40.542969 28.117188 39.90625 C 28.101562 39.820312 28.117188 39.730469 28.113281 39.644531 C 28.101562 39.515625 28.207031 39.375 28.101562 39.261719 C 28.007812 39.160156 27.851562 39.199219 27.726562 39.160156 C 27.640625 39.136719 27.554688 39.109375 27.464844 39.109375 C 27.308594 39.105469 27.136719 38.953125 27.007812 39.070312 C 26.894531 39.164062 26.972656 39.351562 26.953125 39.492188 C 26.820312 40.464844 25.921875 41.304688 24.9375 41.371094 C 24.863281 41.378906 24.789062 41.378906 24.71875 41.371094 C 24.246094 41.320312 24.296875 41.304688 24.28125 40.933594 C 24.265625 40.566406 24.292969 40.199219 24.355469 39.835938 C 24.367188 39.769531 24.371094 39.699219 24.382812 39.625 C 24.25 39.644531 24.230469 39.746094 24.183594 39.816406 C 24.046875 40.042969 23.917969 40.273438 23.777344 40.5 C 23.625 40.746094 23.410156 40.8125 23.132812 40.722656 C 22.941406 40.65625 22.8125 40.519531 22.703125 40.359375 C 22.597656 40.210938 22.550781 40.042969 22.496094 39.882812 C 22.390625 39.839844 22.363281 39.925781 22.316406 39.976562 C 22.25 40.054688 22.1875 40.136719 22.109375 40.203125 C 21.925781 40.371094 21.707031 40.441406 21.457031 40.425781 C 21.160156 40.40625 21.105469 40.335938 21.15625 40.042969 C 21.300781 39.203125 21.042969 38.472656 20.550781 37.808594 C 20.210938 37.347656 19.765625 37.011719 19.253906 36.761719 C 18.871094 36.574219 18.472656 36.421875 18.066406 36.273438 C 17.625 36.113281 17.183594 35.941406 16.746094 35.769531 C 16.472656 35.660156 16.210938 35.519531 15.96875 35.351562 C 15.453125 34.992188 15.085938 34.53125 14.910156 33.921875 C 14.84375 33.683594 14.773438 33.597656 14.703125 33.648438 C 14.578125 33.730469 14.625 33.859375 14.632812 33.96875 C 14.667969 34.4375 14.859375 34.847656 15.144531 35.21875 C 15.632812 35.855469 16.277344 36.289062 16.996094 36.617188 C 17.34375 36.777344 17.699219 36.921875 18.054688 37.074219 C 18.132812 37.105469 18.203125 37.144531 18.285156 37.203125 C 18.144531 37.289062 18.023438 37.257812 17.914062 37.257812 C 17.191406 37.242188 16.464844 37.222656 15.742188 37.207031 C 15.609375 37.203125 15.476562 37.175781 15.351562 37.234375 C 15.339844 37.238281 15.335938 37.261719 15.332031 37.273438 C 15.332031 37.285156 15.332031 37.304688 15.339844 37.308594 C 15.378906 37.320312 15.421875 37.335938 15.464844 37.34375 C 16.09375 37.429688 16.722656 37.515625 17.351562 37.609375 C 17.523438 37.632812 17.691406 37.671875 17.863281 37.761719 C 17.378906 37.828125 16.890625 37.894531 16.402344 37.957031 C 16.332031 37.96875 16.253906 37.964844 16.183594 37.976562 C 14.894531 38.15625 13.683594 37.882812 12.527344 37.339844 C 11.125 36.679688 10.023438 35.6875 9.277344 34.320312 C 8.910156 33.65625 8.703125 32.933594 8.546875 32.199219 C 8.351562 31.304688 8.152344 30.417969 7.796875 29.570312 C 7.777344 29.53125 7.753906 29.488281 7.804688 29.449219 C 7.933594 29.480469 8.019531 29.589844 8.117188 29.671875 C 9.109375 30.476562 10.1875 31.136719 11.359375 31.640625 C 11.503906 31.703125 11.640625 31.8125 11.816406 31.765625 C 11.808594 31.8125 11.808594 31.84375 11.867188 31.804688 C 11.847656 31.796875 11.828125 31.785156 11.808594 31.773438 Z M 20.304688 27.308594 C 20.300781 27.765625 20.324219 28.21875 20.425781 28.667969 C 20.640625 29.636719 21.230469 30.25 22.175781 30.53125 C 22.191406 30.535156 22.207031 30.535156 22.21875 30.539062 C 22.691406 30.6875 23.175781 30.730469 23.664062 30.738281 C 24.863281 30.765625 25.972656 30.472656 26.953125 29.753906 C 28.117188 28.898438 28.8125 27.746094 28.988281 26.320312 C 29.160156 24.957031 28.792969 23.722656 27.898438 22.660156 C 27.167969 21.796875 26.28125 21.160156 25.171875 20.863281 C 23.863281 20.511719 22.640625 20.941406 21.851562 22.035156 C 21.683594 22.273438 21.527344 22.527344 21.402344 22.792969 C 20.726562 24.222656 20.34375 25.726562 20.304688 27.308594 Z M 40.175781 24.636719 C 40.175781 24.476562 40.183594 24.316406 40.175781 24.152344 C 40.128906 23.355469 39.984375 22.578125 39.636719 21.847656 C 39.101562 20.734375 38.226562 20.058594 36.992188 19.875 C 36.101562 19.738281 35.363281 20.007812 34.832031 20.761719 C 34.722656 20.917969 34.617188 21.078125 34.535156 21.25 C 33.964844 22.445312 33.878906 23.679688 34.246094 24.945312 C 34.484375 25.773438 34.992188 26.398438 35.757812 26.816406 C 36.226562 27.074219 36.726562 27.257812 37.253906 27.328125 C 37.828125 27.40625 38.402344 27.40625 38.953125 27.183594 C 39.59375 26.921875 39.972656 26.453125 40.101562 25.78125 C 40.171875 25.402344 40.183594 25.019531 40.175781 24.636719 Z M 31.789062 35.261719 C 31.890625 35.25 31.992188 35.246094 32.09375 35.226562 C 32.5625 35.132812 32.902344 34.886719 33.019531 34.398438 C 33.035156 34.328125 33.058594 34.257812 33.082031 34.1875 C 33.195312 33.878906 33.429688 33.753906 33.742188 33.839844 C 33.933594 33.886719 34.09375 33.992188 34.238281 34.121094 C 34.378906 34.25 34.519531 34.382812 34.667969 34.5 C 35.003906 34.765625 35.378906 34.792969 35.75 34.613281 C 36.292969 34.347656 36.609375 33.910156 36.644531 33.296875 C 36.671875 32.847656 36.566406 32.417969 36.40625 32.003906 C 35.949219 30.832031 35.265625 29.816406 34.359375 28.945312 C 34.203125 28.792969 34.023438 28.65625 33.84375 28.53125 C 33.566406 28.335938 33.253906 28.199219 32.914062 28.140625 C 32.296875 28.027344 31.859375 28.210938 31.511719 28.738281 C 31.351562 28.984375 31.226562 29.253906 31.140625 29.535156 C 31.011719 29.941406 30.894531 30.351562 30.78125 30.761719 C 30.683594 31.117188 30.570312 31.464844 30.417969 31.800781 C 30.292969 32.066406 30.195312 32.34375 30.109375 32.625 C 29.972656 33.066406 29.917969 33.519531 29.984375 33.976562 C 30.066406 34.542969 30.335938 35.003906 30.832031 35.308594 C 31.367188 35.640625 31.945312 35.65625 32.539062 35.507812 C 32.578125 35.496094 32.621094 35.476562 32.65625 35.449219 C 32.675781 35.433594 32.691406 35.402344 32.6875 35.375 C 32.6875 35.355469 32.65625 35.320312 32.640625 35.320312 C 32.507812 35.328125 32.378906 35.335938 32.246094 35.351562 C 32.085938 35.367188 31.921875 35.378906 31.789062 35.261719 Z M 19.527344 18.546875 C 19.535156 18.023438 19.402344 17.390625 19.160156 16.785156 C 19.121094 16.691406 19.066406 16.601562 19.011719 16.519531 C 18.992188 16.492188 18.933594 16.484375 18.890625 16.484375 C 18.835938 16.484375 18.820312 16.535156 18.8125 16.574219 C 18.792969 16.710938 18.851562 16.835938 18.878906 16.964844 C 19.070312 17.804688 19.132812 18.648438 18.914062 19.5 C 18.765625 20.074219 18.511719 20.601562 18.191406 21.101562 C 17.949219 21.488281 17.695312 21.867188 17.457031 22.257812 C 16.953125 23.089844 16.753906 23.996094 16.785156 24.960938 C 16.796875 25.347656 16.882812 25.71875 17.046875 26.070312 C 17.25 26.503906 17.570312 26.8125 18.023438 26.980469 C 18.097656 27.003906 18.171875 27.007812 18.226562 26.941406 C 18.285156 26.871094 18.253906 26.808594 18.203125 26.746094 C 18.175781 26.714844 18.144531 26.683594 18.113281 26.652344 C 17.746094 26.261719 17.550781 25.796875 17.46875 25.273438 C 17.335938 24.414062 17.480469 23.601562 17.859375 22.832031 C 18.03125 22.488281 18.246094 22.167969 18.441406 21.839844 C 18.613281 21.550781 18.800781 21.265625 18.964844 20.96875 C 19.355469 20.257812 19.527344 19.488281 19.527344 18.546875 Z M 25.652344 38.878906 C 25.574219 38.835938 25.496094 38.847656 25.425781 38.863281 C 25.078125 38.929688 24.722656 38.929688 24.367188 38.941406 C 23.707031 38.964844 23.042969 38.984375 22.378906 39.011719 C 22.277344 39.015625 22.175781 39.03125 22.078125 39.054688 C 22.046875 39.0625 22.011719 39.121094 22.015625 39.15625 C 22.015625 39.1875 22.054688 39.246094 22.085938 39.25 C 22.246094 39.277344 22.40625 39.296875 22.566406 39.304688 C 23.398438 39.332031 24.214844 39.234375 25.027344 39.0625 C 25.234375 39.015625 25.464844 39.023438 25.652344 38.878906 Z M 25.652344 38.878906 " fill-opacity="1" fill-rule="nonzero"/></g><path fill="#000000" d="M 41.414062 20.023438 C 41.472656 20.039062 41.414062 19.96875 41.449219 20.019531 C 41.464844 20.046875 41.453125 20.058594 41.425781 20.046875 C 41.371094 20.023438 41.449219 20.066406 41.421875 20.011719 C 41.421875 20.011719 41.414062 20.023438 41.414062 20.023438 Z M 41.414062 20.023438 " fill-opacity="1" fill-rule="nonzero"/></svg>