<svg xmlns="http://www.w3.org/2000/svg" xmlns:xlink="http://www.w3.org/1999/xlink" width="64" zoomAndPan="magnify" viewBox="0 0 48 48" height="64" preserveAspectRatio="xMidYMid meet" version="1.0"><defs><clipPath id="623ff19e95"><path d="M 8.097656 3.339844 L 39.691406 3.339844 L 39.691406 43.746094 L 8.097656 43.746094 Z M 8.097656 3.339844 " clip-rule="nonzero"/></clipPath></defs><g clip-path="url(#623ff19e95)"><path fill="currentColor" d="M 11.988281 36.054688 L 38.335938 36.054688 L 38.335938 39.125 L 15.632812 39.125 C 15.417969 39.125 15.238281 39.199219 15.085938 39.351562 C 14.9375 39.503906 14.859375 39.6875 14.859375 39.898438 C 14.859375 40.113281 14.9375 40.296875 15.085938 40.449219 C 15.238281 40.601562 15.417969 40.675781 15.632812 40.675781 L 38.335938 40.675781 L 38.335938 43.746094 L 11.988281 43.746094 C 11.492188 43.746094 11.015625 43.652344 10.558594 43.460938 C 10.101562 43.269531 9.695312 42.996094 9.347656 42.644531 C 8.996094 42.292969 8.726562 41.886719 8.535156 41.425781 C 8.34375 40.964844 8.25 40.484375 8.25 39.984375 L 8.25 39.824219 C 8.25 39.324219 8.34375 38.84375 8.535156 38.382812 C 8.726562 37.921875 8.996094 37.511719 9.347656 37.160156 C 9.695312 36.808594 10.101562 36.535156 10.558594 36.34375 C 11.015625 36.152344 11.492188 36.054688 11.988281 36.054688 Z M 39.460938 3.339844 L 39.460938 34.5 L 11.988281 34.5 C 11.285156 34.5 10.609375 34.636719 9.960938 34.910156 C 9.316406 35.179688 8.742188 35.566406 8.25 36.070312 L 8.25 7.644531 C 8.25 7.359375 8.277344 7.082031 8.332031 6.804688 C 8.386719 6.527344 8.46875 6.257812 8.574219 5.996094 C 8.683594 5.734375 8.8125 5.488281 8.96875 5.253906 C 9.125 5.019531 9.300781 4.800781 9.5 4.601562 C 9.699219 4.402344 9.914062 4.222656 10.148438 4.066406 C 10.378906 3.910156 10.625 3.777344 10.886719 3.667969 C 11.144531 3.558594 11.410156 3.476562 11.6875 3.421875 C 11.960938 3.367188 12.238281 3.339844 12.519531 3.339844 Z M 11.578125 8.910156 C 11.578125 9.082031 11.609375 9.246094 11.671875 9.402344 C 11.738281 9.5625 11.828125 9.699219 11.949219 9.820312 C 12.066406 9.941406 12.207031 10.035156 12.363281 10.101562 C 12.519531 10.167969 12.679688 10.199219 12.851562 10.199219 C 13.019531 10.199219 13.183594 10.167969 13.339844 10.105469 C 13.496094 10.039062 13.632812 9.945312 13.753906 9.828125 C 13.871094 9.707031 13.964844 9.566406 14.03125 9.410156 C 14.097656 9.253906 14.128906 9.089844 14.128906 8.917969 C 14.128906 8.746094 14.097656 8.582031 14.035156 8.425781 C 13.96875 8.269531 13.878906 8.128906 13.757812 8.007812 C 13.640625 7.886719 13.5 7.792969 13.34375 7.726562 C 13.1875 7.660156 13.027344 7.628906 12.859375 7.628906 C 12.6875 7.628906 12.527344 7.660156 12.367188 7.722656 C 12.210938 7.789062 12.074219 7.882812 11.953125 8 C 11.835938 8.121094 11.742188 8.261719 11.675781 8.417969 C 11.609375 8.574219 11.578125 8.738281 11.578125 8.910156 Z M 14.128906 29.734375 C 14.128906 29.566406 14.097656 29.402344 14.035156 29.242188 C 13.96875 29.085938 13.875 28.945312 13.757812 28.824219 C 13.636719 28.703125 13.5 28.609375 13.34375 28.542969 C 13.1875 28.480469 13.023438 28.445312 12.855469 28.445312 C 12.683594 28.445312 12.523438 28.480469 12.367188 28.542969 C 12.210938 28.609375 12.070312 28.703125 11.953125 28.824219 C 11.832031 28.945312 11.738281 29.082031 11.675781 29.242188 C 11.609375 29.398438 11.578125 29.5625 11.578125 29.734375 C 11.578125 29.90625 11.609375 30.070312 11.675781 30.226562 C 11.742188 30.382812 11.832031 30.523438 11.953125 30.644531 C 12.074219 30.765625 12.210938 30.855469 12.367188 30.921875 C 12.523438 30.988281 12.6875 31.019531 12.859375 31.019531 C 13.027344 31.019531 13.1875 30.984375 13.34375 30.921875 C 13.5 30.855469 13.636719 30.761719 13.757812 30.640625 C 13.875 30.523438 13.96875 30.382812 14.03125 30.226562 C 14.097656 30.070312 14.128906 29.90625 14.128906 29.734375 Z M 35.625 29.734375 C 35.625 29.566406 35.59375 29.402344 35.527344 29.246094 C 35.464844 29.089844 35.371094 28.949219 35.25 28.828125 C 35.132812 28.710938 34.996094 28.617188 34.839844 28.550781 C 34.683594 28.488281 34.519531 28.453125 34.351562 28.453125 C 34.183594 28.453125 34.023438 28.488281 33.867188 28.550781 C 33.710938 28.617188 33.574219 28.710938 33.453125 28.828125 C 33.335938 28.949219 33.242188 29.089844 33.179688 29.246094 C 33.113281 29.402344 33.082031 29.566406 33.082031 29.734375 C 33.082031 29.90625 33.113281 30.070312 33.179688 30.226562 C 33.242188 30.382812 33.335938 30.523438 33.453125 30.644531 C 33.574219 30.761719 33.710938 30.855469 33.867188 30.921875 C 34.023438 30.984375 34.183594 31.019531 34.351562 31.019531 C 34.519531 31.019531 34.683594 30.984375 34.839844 30.921875 C 34.996094 30.855469 35.132812 30.761719 35.25 30.640625 C 35.371094 30.523438 35.460938 30.382812 35.527344 30.226562 C 35.589844 30.070312 35.625 29.90625 35.625 29.734375 Z M 35.625 12.234375 C 35.625 12.019531 35.550781 11.839844 35.398438 11.6875 C 35.25 11.535156 35.066406 11.457031 34.855469 11.460938 C 34.453125 11.457031 34.066406 11.378906 33.695312 11.226562 C 33.328125 11.070312 33 10.847656 32.714844 10.5625 C 32.433594 10.277344 32.214844 9.945312 32.0625 9.574219 C 31.910156 9.199219 31.832031 8.808594 31.832031 8.40625 C 31.832031 8.191406 31.757812 8.007812 31.605469 7.855469 C 31.457031 7.703125 31.273438 7.628906 31.0625 7.628906 L 16.648438 7.628906 C 16.4375 7.628906 16.253906 7.703125 16.105469 7.855469 C 15.953125 8.007812 15.878906 8.191406 15.878906 8.40625 C 15.878906 8.808594 15.800781 9.199219 15.648438 9.574219 C 15.496094 9.945312 15.277344 10.277344 14.996094 10.5625 C 14.710938 10.847656 14.382812 11.070312 14.015625 11.226562 C 13.644531 11.378906 13.257812 11.457031 12.859375 11.460938 C 12.644531 11.457031 12.460938 11.535156 12.3125 11.6875 C 12.160156 11.839844 12.085938 12.019531 12.085938 12.234375 L 12.085938 25.90625 C 12.085938 26.121094 12.160156 26.304688 12.3125 26.457031 C 12.460938 26.605469 12.644531 26.683594 12.859375 26.683594 C 13.257812 26.683594 13.644531 26.761719 14.015625 26.917969 C 14.382812 27.070312 14.710938 27.292969 14.996094 27.578125 C 15.277344 27.867188 15.496094 28.195312 15.648438 28.570312 C 15.800781 28.941406 15.878906 29.332031 15.878906 29.734375 C 15.878906 29.949219 15.953125 30.132812 16.105469 30.285156 C 16.253906 30.4375 16.4375 30.511719 16.648438 30.511719 L 31.0625 30.511719 C 31.273438 30.511719 31.457031 30.4375 31.605469 30.285156 C 31.757812 30.132812 31.832031 29.949219 31.832031 29.734375 C 31.832031 29.332031 31.910156 28.941406 32.0625 28.570312 C 32.214844 28.195312 32.433594 27.867188 32.714844 27.578125 C 33 27.292969 33.328125 27.070312 33.695312 26.917969 C 34.066406 26.761719 34.453125 26.683594 34.855469 26.683594 C 35.066406 26.683594 35.25 26.605469 35.398438 26.457031 C 35.550781 26.304688 35.625 26.121094 35.625 25.90625 Z M 35.625 8.910156 C 35.625 8.742188 35.59375 8.578125 35.527344 8.417969 C 35.464844 8.261719 35.371094 8.125 35.25 8.003906 C 35.132812 7.882812 34.996094 7.789062 34.839844 7.726562 C 34.683594 7.660156 34.519531 7.628906 34.351562 7.628906 C 34.183594 7.628906 34.023438 7.660156 33.867188 7.726562 C 33.710938 7.789062 33.574219 7.882812 33.453125 8.003906 C 33.335938 8.125 33.242188 8.261719 33.179688 8.417969 C 33.113281 8.578125 33.082031 8.742188 33.082031 8.910156 C 33.082031 9.082031 33.113281 9.242188 33.179688 9.402344 C 33.242188 9.558594 33.335938 9.695312 33.453125 9.816406 C 33.574219 9.9375 33.710938 10.03125 33.867188 10.09375 C 34.023438 10.160156 34.183594 10.191406 34.351562 10.191406 C 34.519531 10.191406 34.683594 10.160156 34.839844 10.09375 C 34.996094 10.03125 35.132812 9.9375 35.25 9.816406 C 35.371094 9.695312 35.460938 9.558594 35.527344 9.402344 C 35.589844 9.242188 35.625 9.082031 35.625 8.910156 Z M 34.082031 12.945312 L 34.082031 25.191406 C 33.617188 25.273438 33.175781 25.421875 32.753906 25.644531 C 32.335938 25.863281 31.960938 26.140625 31.625 26.480469 C 31.292969 26.816406 31.015625 27.195312 30.800781 27.621094 C 30.582031 28.042969 30.433594 28.488281 30.351562 28.960938 L 17.359375 28.960938 C 17.277344 28.488281 17.128906 28.042969 16.910156 27.621094 C 16.691406 27.199219 16.417969 26.816406 16.082031 26.480469 C 15.75 26.144531 15.375 25.863281 14.953125 25.644531 C 14.535156 25.425781 14.09375 25.273438 13.628906 25.191406 L 13.628906 12.945312 C 14.09375 12.863281 14.535156 12.710938 14.953125 12.492188 C 15.375 12.273438 15.75 11.996094 16.085938 11.660156 C 16.417969 11.320312 16.695312 10.941406 16.910156 10.519531 C 17.128906 10.097656 17.277344 9.652344 17.359375 9.183594 L 30.351562 9.183594 C 30.433594 9.652344 30.582031 10.097656 30.796875 10.519531 C 31.015625 10.945312 31.292969 11.324219 31.625 11.660156 C 31.960938 11.996094 32.335938 12.273438 32.753906 12.492188 C 33.175781 12.714844 33.617188 12.863281 34.082031 12.945312 Z M 30.035156 15.382812 C 30.035156 15.367188 30.027344 15.351562 30.027344 15.335938 C 30.007812 15.144531 29.925781 14.984375 29.78125 14.855469 L 29.742188 14.816406 C 29.730469 14.808594 29.722656 14.800781 29.714844 14.792969 L 24.59375 11.148438 C 24.566406 11.128906 24.535156 11.113281 24.503906 11.101562 C 24.476562 11.085938 24.449219 11.070312 24.417969 11.0625 C 24.335938 11.023438 24.246094 11.007812 24.15625 11.007812 L 24.140625 11.007812 C 24.050781 11.007812 23.96875 11.027344 23.886719 11.0625 C 23.855469 11.070312 23.828125 11.085938 23.800781 11.101562 C 23.769531 11.113281 23.738281 11.128906 23.710938 11.148438 L 18.589844 14.792969 C 18.578125 14.796875 18.570312 14.804688 18.5625 14.816406 L 18.523438 14.855469 C 18.453125 14.914062 18.394531 14.984375 18.351562 15.066406 L 18.351562 15.074219 C 18.308594 15.15625 18.28125 15.242188 18.277344 15.335938 C 18.277344 15.351562 18.269531 15.367188 18.269531 15.390625 L 18.269531 22.75 C 18.269531 22.773438 18.277344 22.789062 18.277344 22.804688 C 18.28125 22.898438 18.308594 22.988281 18.351562 23.070312 L 18.351562 23.078125 C 18.382812 23.136719 18.421875 23.191406 18.46875 23.238281 C 18.484375 23.253906 18.507812 23.269531 18.523438 23.285156 C 18.542969 23.308594 18.566406 23.328125 18.589844 23.347656 L 23.710938 26.992188 C 23.738281 27.011719 23.769531 27.027344 23.800781 27.039062 C 23.828125 27.058594 23.855469 27.070312 23.886719 27.078125 C 23.96875 27.117188 24.058594 27.132812 24.148438 27.132812 C 24.242188 27.132812 24.332031 27.117188 24.417969 27.078125 C 24.449219 27.070312 24.476562 27.054688 24.503906 27.039062 C 24.535156 27.027344 24.566406 27.011719 24.59375 26.992188 L 29.714844 23.347656 C 29.738281 23.328125 29.761719 23.308594 29.78125 23.285156 C 29.796875 23.269531 29.820312 23.253906 29.835938 23.238281 C 29.945312 23.113281 30.007812 22.96875 30.027344 22.804688 C 30.027344 22.789062 30.035156 22.773438 30.035156 22.757812 Z M 27.785156 15.320312 L 24.917969 13.285156 L 24.917969 15.179688 L 26.246094 16.128906 Z M 23.378906 15.179688 L 23.378906 13.285156 L 20.519531 15.320312 L 22.050781 16.128906 Z M 21.351562 17.503906 L 19.808594 16.703125 L 19.808594 21.4375 L 21.351562 20.636719 Z M 25.414062 17.433594 L 24.148438 16.542969 L 22.890625 17.433594 L 22.890625 20.707031 L 24.148438 21.601562 L 25.414062 20.707031 Z M 26.953125 20.636719 L 28.496094 21.4375 L 28.496094 16.703125 L 26.953125 17.503906 Z M 20.511719 22.820312 L 23.378906 24.855469 L 23.378906 22.960938 L 22.050781 22.011719 Z M 24.917969 22.953125 L 24.917969 24.855469 L 27.785156 22.820312 L 26.246094 22.011719 Z M 24.917969 22.953125 " fill-opacity="1" fill-rule="nonzero"/></g></svg>