<svg xmlns="http://www.w3.org/2000/svg" xmlns:xlink="http://www.w3.org/1999/xlink" width="64" zoomAndPan="magnify" viewBox="0 0 48 48" height="64" preserveAspectRatio="xMidYMid meet" version="1.0"><defs><clipPath id="f45f18e387"><path d="M 6 5 L 43.472656 5 L 43.472656 42 L 6 42 Z M 6 5 " clip-rule="nonzero"/></clipPath></defs><path fill="currentColor" d="M 20.808594 9.066406 C 23.589844 9.0625 26.296875 10.179688 28.253906 12.144531 C 28.507812 12.402344 28.929688 12.40625 29.183594 12.148438 C 29.445312 11.894531 29.445312 11.480469 29.1875 11.222656 C 28.347656 10.375 27.390625 9.671875 26.351562 9.128906 C 24.664062 8.226562 22.746094 7.753906 20.808594 7.753906 C 7 8.097656 4.507812 26.929688 17.582031 30.921875 C 24.855469 33.125 32.785156 27.316406 32.667969 19.566406 C 32.667969 17.632812 32.191406 15.726562 31.285156 14.042969 C 31.113281 13.726562 30.714844 13.605469 30.394531 13.773438 C 30.074219 13.945312 29.953125 14.34375 30.125 14.664062 C 30.925781 16.15625 31.351562 17.851562 31.351562 19.566406 C 31.351562 22.871094 29.804688 25.824219 27.398438 27.75 L 27.398438 16.941406 C 27.398438 16.578125 27.101562 16.285156 26.738281 16.285156 L 23.773438 16.285156 C 23.410156 16.285156 23.113281 16.578125 23.113281 16.941406 L 23.113281 18.429688 L 20.808594 18.429688 C 20.445312 18.429688 20.148438 18.722656 20.148438 19.085938 L 20.148438 20.582031 L 17.84375 20.582031 C 17.480469 20.582031 17.183594 20.875 17.183594 21.238281 C 17.183594 21.238281 17.183594 22.726562 17.183594 22.726562 L 14.878906 22.726562 C 14.515625 22.726562 14.21875 23.023438 14.21875 23.382812 C 14.21875 23.382812 14.21875 27.75 14.21875 27.75 C 6.53125 21.613281 10.835938 9.113281 20.808594 9.066406 Z M 24.433594 17.597656 L 26.078125 17.597656 L 26.078125 28.644531 C 25.558594 28.945312 25.007812 29.203125 24.433594 29.414062 Z M 21.46875 19.742188 L 23.113281 19.742188 L 23.113281 29.804688 C 22.578125 29.921875 22.03125 29.996094 21.46875 30.03125 Z M 18.503906 21.894531 L 20.148438 21.894531 L 20.148438 30.03125 C 19.589844 29.996094 19.039062 29.921875 18.503906 29.804688 Z M 15.539062 24.039062 L 17.183594 24.039062 L 17.183594 29.414062 C 16.609375 29.203125 16.058594 28.945312 15.539062 28.644531 Z M 15.539062 24.039062 " fill-opacity="1" fill-rule="nonzero"/><g clip-path="url(#f45f18e387)"><path fill="currentColor" d="M 32.746094 27.742188 C 34.355469 25.417969 35.304688 22.597656 35.304688 19.566406 C 35.394531 11.679688 28.710938 5.046875 20.808594 5.128906 C 12.816406 5.128906 6.3125 11.605469 6.3125 19.566406 C 6.328125 20.429688 7.621094 20.421875 7.632812 19.566406 C 7.519531 11.191406 15.796875 4.738281 23.921875 6.808594 C 38.945312 10.753906 36.332031 32.363281 20.808594 32.691406 C 14.703125 32.691406 9.4375 28.566406 8 22.664062 C 7.917969 22.3125 7.558594 22.09375 7.207031 22.183594 C 6.851562 22.265625 6.636719 22.621094 6.722656 22.972656 C 8.300781 29.46875 14.09375 34.003906 20.808594 34.003906 C 23.855469 34.003906 26.683594 33.058594 29.019531 31.453125 C 29.019531 31.453125 38.707031 41.101562 38.714844 41.109375 C 39.738281 42.132812 41.410156 42.132812 42.4375 41.109375 C 43.464844 40.085938 43.464844 38.421875 42.4375 37.398438 C 42.4375 37.398438 32.742188 27.746094 32.746094 27.742188 Z M 31.941406 28.800781 L 34.449219 31.296875 L 32.589844 33.152344 L 30.078125 30.652344 C 30.753906 30.09375 31.378906 29.472656 31.941406 28.800781 Z M 41.507812 40.179688 C 40.992188 40.691406 40.160156 40.691406 39.644531 40.179688 L 33.519531 34.082031 L 35.382812 32.226562 L 41.507812 38.328125 C 42.019531 38.835938 42.019531 39.667969 41.507812 40.179688 Z M 41.507812 40.179688 " fill-opacity="1" fill-rule="nonzero"/></g></svg>