<svg xmlns="http://www.w3.org/2000/svg" xmlns:xlink="http://www.w3.org/1999/xlink" width="64" zoomAndPan="magnify" viewBox="0 0 48 48" height="64" preserveAspectRatio="xMidYMid meet" version="1.0"><defs><clipPath id="8a01172e3a"><path d="M 7.699219 4.703125 L 40 4.703125 L 40 42.171875 L 7.699219 42.171875 Z M 7.699219 4.703125 " clip-rule="nonzero"/></clipPath></defs><g clip-path="url(#8a01172e3a)"><path fill="currentColor" d="M 37.390625 8.757812 L 32.011719 8.757812 L 32.011719 7.988281 C 32.011719 6.179688 30.546875 4.707031 28.746094 4.707031 L 18.9375 4.707031 C 17.136719 4.707031 15.671875 6.179688 15.671875 7.988281 L 15.671875 8.757812 L 10.296875 8.757812 C 8.886719 8.757812 7.742188 9.910156 7.742188 11.324219 L 7.742188 12.542969 C 7.742188 13.867188 8.746094 14.957031 10.027344 15.09375 L 12.660156 38.28125 C 12.910156 40.496094 14.773438 42.164062 16.992188 42.164062 L 30.691406 42.164062 C 32.910156 42.164062 34.773438 40.496094 35.027344 38.28125 L 37.65625 15.09375 C 38.941406 14.957031 39.945312 13.867188 39.945312 12.542969 L 39.945312 11.324219 C 39.945312 9.910156 38.796875 8.757812 37.390625 8.757812 Z M 17.328125 7.988281 C 17.328125 7.097656 18.050781 6.375 18.9375 6.375 L 28.746094 6.375 C 29.632812 6.375 30.355469 7.097656 30.355469 7.988281 L 30.355469 8.757812 L 17.328125 8.757812 Z M 33.378906 38.09375 C 33.222656 39.464844 32.070312 40.5 30.691406 40.5 L 16.992188 40.5 C 15.617188 40.5 14.460938 39.464844 14.308594 38.09375 L 11.699219 15.105469 L 35.988281 15.105469 Z M 38.285156 12.542969 C 38.285156 13.039062 37.882812 13.441406 37.390625 13.441406 L 10.296875 13.441406 C 9.800781 13.441406 9.398438 13.039062 9.398438 12.542969 L 9.398438 11.324219 C 9.398438 10.828125 9.800781 10.425781 10.296875 10.425781 L 37.390625 10.425781 C 37.882812 10.425781 38.285156 10.828125 38.285156 11.324219 Z M 38.285156 12.542969 " fill-opacity="1" fill-rule="nonzero"/></g><path fill="currentColor" d="M 23.84375 35.992188 C 24.300781 35.992188 24.671875 35.621094 24.671875 35.160156 L 24.671875 20.445312 C 24.671875 19.988281 24.300781 19.613281 23.84375 19.613281 C 23.382812 19.613281 23.011719 19.988281 23.011719 20.445312 L 23.011719 35.160156 C 23.011719 35.621094 23.382812 35.992188 23.84375 35.992188 Z M 23.84375 35.992188 " fill-opacity="1" fill-rule="nonzero"/><path fill="currentColor" d="M 28.796875 35.953125 C 28.824219 35.957031 28.851562 35.957031 28.878906 35.957031 C 29.300781 35.957031 29.660156 35.636719 29.703125 35.207031 L 31.121094 20.5625 C 31.167969 20.105469 30.832031 19.695312 30.378906 19.652344 C 29.917969 19.605469 29.515625 19.941406 29.472656 20.398438 L 28.054688 35.042969 C 28.007812 35.503906 28.339844 35.910156 28.796875 35.953125 Z M 28.796875 35.953125 " fill-opacity="1" fill-rule="nonzero"/><path fill="currentColor" d="M 18.804688 35.957031 C 18.832031 35.957031 18.859375 35.957031 18.886719 35.953125 C 19.34375 35.910156 19.675781 35.503906 19.632812 35.042969 L 18.210938 20.398438 C 18.167969 19.941406 17.769531 19.605469 17.304688 19.652344 C 16.851562 19.695312 16.515625 20.105469 16.5625 20.5625 L 17.980469 35.207031 C 18.023438 35.636719 18.382812 35.957031 18.804688 35.957031 Z M 18.804688 35.957031 " fill-opacity="1" fill-rule="nonzero"/></svg>