<svg xmlns="http://www.w3.org/2000/svg" xmlns:xlink="http://www.w3.org/1999/xlink" width="64" zoomAndPan="magnify" viewBox="0 0 48 48" height="64" preserveAspectRatio="xMidYMid meet" version="1.0"><defs><clipPath id="fbaad744a4"><path d="M 14 4.703125 L 34 4.703125 L 34 25 L 14 25 Z M 14 4.703125 " clip-rule="nonzero"/></clipPath><clipPath id="5f4bbe877f"><path d="M 6 26 L 41.828125 26 L 41.828125 42 L 6 42 Z M 6 26 " clip-rule="nonzero"/></clipPath></defs><g clip-path="url(#fbaad744a4)"><path fill="currentColor" d="M 33.484375 14.542969 C 33.484375 15.183594 33.421875 15.820312 33.296875 16.449219 C 33.171875 17.078125 32.988281 17.691406 32.746094 18.285156 C 32.5 18.875 32.203125 19.441406 31.847656 19.972656 C 31.492188 20.507812 31.089844 21 30.636719 21.457031 C 30.1875 21.910156 29.695312 22.316406 29.164062 22.671875 C 28.632812 23.027344 28.074219 23.328125 27.484375 23.574219 C 26.894531 23.820312 26.285156 24.007812 25.660156 24.132812 C 25.035156 24.257812 24.402344 24.320312 23.765625 24.320312 C 23.125 24.320312 22.492188 24.257812 21.867188 24.132812 C 21.242188 24.007812 20.632812 23.820312 20.042969 23.574219 C 19.453125 23.328125 18.894531 23.027344 18.363281 22.671875 C 17.832031 22.316406 17.339844 21.910156 16.890625 21.457031 C 16.4375 21 16.035156 20.507812 15.679688 19.972656 C 15.328125 19.441406 15.027344 18.875 14.78125 18.285156 C 14.539062 17.691406 14.355469 17.078125 14.230469 16.449219 C 14.105469 15.820312 14.042969 15.183594 14.042969 14.542969 C 14.042969 13.898438 14.105469 13.265625 14.230469 12.632812 C 14.355469 12.003906 14.539062 11.394531 14.78125 10.800781 C 15.027344 10.207031 15.328125 9.644531 15.679688 9.109375 C 16.035156 8.574219 16.4375 8.082031 16.890625 7.628906 C 17.339844 7.171875 17.832031 6.769531 18.363281 6.410156 C 18.894531 6.054688 19.453125 5.753906 20.042969 5.507812 C 20.632812 5.261719 21.242188 5.078125 21.867188 4.953125 C 22.492188 4.824219 23.125 4.761719 23.765625 4.761719 C 24.402344 4.761719 25.035156 4.824219 25.660156 4.953125 C 26.285156 5.078125 26.894531 5.261719 27.484375 5.507812 C 28.074219 5.753906 28.632812 6.054688 29.164062 6.410156 C 29.695312 6.769531 30.1875 7.171875 30.636719 7.628906 C 31.089844 8.082031 31.492188 8.574219 31.847656 9.109375 C 32.203125 9.644531 32.5 10.207031 32.746094 10.800781 C 32.988281 11.394531 33.171875 12.003906 33.296875 12.632812 C 33.421875 13.265625 33.484375 13.898438 33.484375 14.542969 Z M 33.484375 14.542969 " fill-opacity="1" fill-rule="nonzero"/></g><g clip-path="url(#5f4bbe877f)"><path fill="currentColor" d="M 10.699219 41.984375 L 36.828125 41.984375 C 37.210938 41.980469 37.585938 41.929688 37.953125 41.835938 C 38.320312 41.738281 38.675781 41.601562 39.011719 41.421875 C 39.347656 41.242188 39.65625 41.023438 39.941406 40.769531 C 40.222656 40.511719 40.472656 40.226562 40.6875 39.910156 C 40.90625 39.59375 41.078125 39.257812 41.214844 38.898438 C 41.347656 38.539062 41.4375 38.171875 41.484375 37.792969 C 41.53125 37.410156 41.53125 37.03125 41.488281 36.648438 C 41.441406 36.269531 41.355469 35.898438 41.222656 35.542969 C 40.949219 34.855469 40.632812 34.191406 40.261719 33.554688 C 39.894531 32.917969 39.480469 32.308594 39.023438 31.734375 C 38.5625 31.160156 38.066406 30.621094 37.527344 30.121094 C 36.984375 29.621094 36.414062 29.164062 35.804688 28.75 C 35.199219 28.335938 34.5625 27.96875 33.902344 27.652344 C 33.238281 27.335938 32.558594 27.066406 31.855469 26.851562 C 31.15625 26.636719 30.441406 26.476562 29.714844 26.371094 C 28.988281 26.261719 28.261719 26.210938 27.527344 26.210938 L 20 26.210938 C 19.269531 26.210938 18.539062 26.265625 17.8125 26.375 C 17.089844 26.484375 16.375 26.648438 15.675781 26.863281 C 14.976562 27.082031 14.292969 27.347656 13.632812 27.664062 C 12.972656 27.984375 12.335938 28.351562 11.730469 28.761719 C 11.125 29.175781 10.550781 29.632812 10.011719 30.132812 C 9.472656 30.632812 8.972656 31.167969 8.515625 31.742188 C 8.054688 32.316406 7.640625 32.921875 7.269531 33.558594 C 6.898438 34.195312 6.578125 34.855469 6.308594 35.539062 C 6.171875 35.898438 6.085938 36.269531 6.039062 36.648438 C 5.996094 37.03125 5.996094 37.410156 6.042969 37.792969 C 6.089844 38.171875 6.179688 38.539062 6.3125 38.898438 C 6.449219 39.257812 6.621094 39.59375 6.839844 39.910156 C 7.054688 40.226562 7.304688 40.511719 7.585938 40.769531 C 7.871094 41.023438 8.179688 41.242188 8.515625 41.421875 C 8.851562 41.601562 9.207031 41.738281 9.574219 41.835938 C 9.941406 41.929688 10.316406 41.980469 10.699219 41.984375 Z M 10.699219 41.984375 " fill-opacity="1" fill-rule="nonzero"/></g></svg>